<?xml version="1.0" encoding="utf-8" standalone="no"?>
<!DOCTYPE svg PUBLIC "-//W3C//DTD SVG 1.1//EN"
  "http://www.w3.org/Graphics/SVG/1.1/DTD/svg11.dtd">
<svg xmlns:xlink="http://www.w3.org/1999/xlink" width="712.595312pt" height="426.63625pt" viewBox="0 0 712.595312 426.63625" xmlns="http://www.w3.org/2000/svg" version="1.1">
 <metadata>
  <rdf:RDF xmlns:dc="http://purl.org/dc/elements/1.1/" xmlns:cc="http://creativecommons.org/ns#" xmlns:rdf="http://www.w3.org/1999/02/22-rdf-syntax-ns#">
   <cc:Work>
    <dc:type rdf:resource="http://purl.org/dc/dcmitype/StillImage"/>
    <dc:date>2025-11-13T13:30:55.076827</dc:date>
    <dc:format>image/svg+xml</dc:format>
    <dc:creator>
     <cc:Agent>
      <dc:title>Matplotlib v3.9.1, https://matplotlib.org/</dc:title>
     </cc:Agent>
    </dc:creator>
   </cc:Work>
  </rdf:RDF>
 </metadata>
 <defs>
  <style type="text/css">*{stroke-linejoin: round; stroke-linecap: butt}</style>
 </defs>
 <g id="figure_1">
  <g id="patch_1">
   <path d="M 0 426.63625 
L 712.595312 426.63625 
L 712.595312 0 
L 0 0 
L 0 426.63625 
z
" style="fill: none"/>
  </g>
  <g id="axes_1">
   <g id="patch_2">
    <path d="M 55.345313 140.373333 
L 232.535313 140.373333 
L 232.535313 60.48 
L 55.345313 60.48 
L 55.345313 140.373333 
z
" style="fill: none"/>
   </g>
   <g id="matplotlib.axis_1">
    <g id="xtick_1">
     <g id="line2d_1">
      <path d="M 63.399403 140.373333 
L 63.399403 60.48 
" clip-path="url(#p1971d6f836)" style="fill: none; stroke: #b0b0b0; stroke-width: 0.8; stroke-linecap: square"/>
     </g>
     <g id="line2d_2">
      <defs>
       <path id="mab9e1f0622" d="M 0 0 
L 0 3.5 
" style="stroke: #000000; stroke-width: 0.8"/>
      </defs>
      <g>
       <use xlink:href="#mab9e1f0622" x="63.399403" y="140.373333" style="stroke: #000000; stroke-width: 0.8"/>
      </g>
     </g>
    </g>
    <g id="xtick_2">
     <g id="line2d_3">
      <path d="M 120.928624 140.373333 
L 120.928624 60.48 
" clip-path="url(#p1971d6f836)" style="fill: none; stroke: #b0b0b0; stroke-width: 0.8; stroke-linecap: square"/>
     </g>
     <g id="line2d_4">
      <g>
       <use xlink:href="#mab9e1f0622" x="120.928624" y="140.373333" style="stroke: #000000; stroke-width: 0.8"/>
      </g>
     </g>
    </g>
    <g id="xtick_3">
     <g id="line2d_5">
      <path d="M 178.457845 140.373333 
L 178.457845 60.48 
" clip-path="url(#p1971d6f836)" style="fill: none; stroke: #b0b0b0; stroke-width: 0.8; stroke-linecap: square"/>
     </g>
     <g id="line2d_6">
      <g>
       <use xlink:href="#mab9e1f0622" x="178.457845" y="140.373333" style="stroke: #000000; stroke-width: 0.8"/>
      </g>
     </g>
    </g>
    <g id="text_1">
     <!-- time -->
     <g transform="translate(132.644219 155.471771) scale(0.1 -0.1)">
      <defs>
       <path id="DejaVuSans-74" d="M 1172 4494 
L 1172 3500 
L 2356 3500 
L 2356 3053 
L 1172 3053 
L 1172 1153 
Q 1172 725 1289 603 
Q 1406 481 1766 481 
L 2356 481 
L 2356 0 
L 1766 0 
Q 1100 0 847 248 
Q 594 497 594 1153 
L 594 3053 
L 172 3053 
L 172 3500 
L 594 3500 
L 594 4494 
L 1172 4494 
z
" transform="scale(0.015625)"/>
       <path id="DejaVuSans-69" d="M 603 3500 
L 1178 3500 
L 1178 0 
L 603 0 
L 603 3500 
z
M 603 4863 
L 1178 4863 
L 1178 4134 
L 603 4134 
L 603 4863 
z
" transform="scale(0.015625)"/>
       <path id="DejaVuSans-6d" d="M 3328 2828 
Q 3544 3216 3844 3400 
Q 4144 3584 4550 3584 
Q 5097 3584 5394 3201 
Q 5691 2819 5691 2113 
L 5691 0 
L 5113 0 
L 5113 2094 
Q 5113 2597 4934 2840 
Q 4756 3084 4391 3084 
Q 3944 3084 3684 2787 
Q 3425 2491 3425 1978 
L 3425 0 
L 2847 0 
L 2847 2094 
Q 2847 2600 2669 2842 
Q 2491 3084 2119 3084 
Q 1678 3084 1418 2786 
Q 1159 2488 1159 1978 
L 1159 0 
L 581 0 
L 581 3500 
L 1159 3500 
L 1159 2956 
Q 1356 3278 1631 3431 
Q 1906 3584 2284 3584 
Q 2666 3584 2933 3390 
Q 3200 3197 3328 2828 
z
" transform="scale(0.015625)"/>
       <path id="DejaVuSans-65" d="M 3597 1894 
L 3597 1613 
L 953 1613 
Q 991 1019 1311 708 
Q 1631 397 2203 397 
Q 2534 397 2845 478 
Q 3156 559 3463 722 
L 3463 178 
Q 3153 47 2828 -22 
Q 2503 -91 2169 -91 
Q 1331 -91 842 396 
Q 353 884 353 1716 
Q 353 2575 817 3079 
Q 1281 3584 2069 3584 
Q 2775 3584 3186 3129 
Q 3597 2675 3597 1894 
z
M 3022 2063 
Q 3016 2534 2758 2815 
Q 2500 3097 2075 3097 
Q 1594 3097 1305 2825 
Q 1016 2553 972 2059 
L 3022 2063 
z
" transform="scale(0.015625)"/>
      </defs>
      <use xlink:href="#DejaVuSans-74"/>
      <use xlink:href="#DejaVuSans-69" x="39.208984"/>
      <use xlink:href="#DejaVuSans-6d" x="66.992188"/>
      <use xlink:href="#DejaVuSans-65" x="164.404297"/>
     </g>
    </g>
   </g>
   <g id="matplotlib.axis_2">
    <g id="ytick_1">
     <g id="line2d_7">
      <path d="M 55.345313 121.862182 
L 232.535313 121.862182 
" clip-path="url(#p1971d6f836)" style="fill: none; stroke: #b0b0b0; stroke-width: 0.8; stroke-linecap: square"/>
     </g>
     <g id="line2d_8">
      <defs>
       <path id="md041bc6256" d="M 0 0 
L -3.5 0 
" style="stroke: #000000; stroke-width: 0.8"/>
      </defs>
      <g>
       <use xlink:href="#md041bc6256" x="55.345313" y="121.862182" style="stroke: #000000; stroke-width: 0.8"/>
      </g>
     </g>
     <g id="text_2">
      <!-- 2 -->
      <g transform="translate(41.982813 125.661401) scale(0.1 -0.1)">
       <defs>
        <path id="DejaVuSans-32" d="M 1228 531 
L 3431 531 
L 3431 0 
L 469 0 
L 469 531 
Q 828 903 1448 1529 
Q 2069 2156 2228 2338 
Q 2531 2678 2651 2914 
Q 2772 3150 2772 3378 
Q 2772 3750 2511 3984 
Q 2250 4219 1831 4219 
Q 1534 4219 1204 4116 
Q 875 4013 500 3803 
L 500 4441 
Q 881 4594 1212 4672 
Q 1544 4750 1819 4750 
Q 2544 4750 2975 4387 
Q 3406 4025 3406 3419 
Q 3406 3131 3298 2873 
Q 3191 2616 2906 2266 
Q 2828 2175 2409 1742 
Q 1991 1309 1228 531 
z
" transform="scale(0.015625)"/>
       </defs>
       <use xlink:href="#DejaVuSans-32"/>
      </g>
     </g>
    </g>
    <g id="ytick_2">
     <g id="line2d_9">
      <path d="M 55.345313 92.397556 
L 232.535313 92.397556 
" clip-path="url(#p1971d6f836)" style="fill: none; stroke: #b0b0b0; stroke-width: 0.8; stroke-linecap: square"/>
     </g>
     <g id="line2d_10">
      <g>
       <use xlink:href="#md041bc6256" x="55.345313" y="92.397556" style="stroke: #000000; stroke-width: 0.8"/>
      </g>
     </g>
     <g id="text_3">
      <!-- 4 -->
      <g transform="translate(41.982813 96.196775) scale(0.1 -0.1)">
       <defs>
        <path id="DejaVuSans-34" d="M 2419 4116 
L 825 1625 
L 2419 1625 
L 2419 4116 
z
M 2253 4666 
L 3047 4666 
L 3047 1625 
L 3713 1625 
L 3713 1100 
L 3047 1100 
L 3047 0 
L 2419 0 
L 2419 1100 
L 313 1100 
L 313 1709 
L 2253 4666 
z
" transform="scale(0.015625)"/>
       </defs>
       <use xlink:href="#DejaVuSans-34"/>
      </g>
     </g>
    </g>
    <g id="ytick_3">
     <g id="line2d_11">
      <path d="M 55.345313 62.93293 
L 232.535313 62.93293 
" clip-path="url(#p1971d6f836)" style="fill: none; stroke: #b0b0b0; stroke-width: 0.8; stroke-linecap: square"/>
     </g>
     <g id="line2d_12">
      <g>
       <use xlink:href="#md041bc6256" x="55.345313" y="62.93293" style="stroke: #000000; stroke-width: 0.8"/>
      </g>
     </g>
     <g id="text_4">
      <!-- 6 -->
      <g transform="translate(41.982813 66.732149) scale(0.1 -0.1)">
       <defs>
        <path id="DejaVuSans-36" d="M 2113 2584 
Q 1688 2584 1439 2293 
Q 1191 2003 1191 1497 
Q 1191 994 1439 701 
Q 1688 409 2113 409 
Q 2538 409 2786 701 
Q 3034 994 3034 1497 
Q 3034 2003 2786 2293 
Q 2538 2584 2113 2584 
z
M 3366 4563 
L 3366 3988 
Q 3128 4100 2886 4159 
Q 2644 4219 2406 4219 
Q 1781 4219 1451 3797 
Q 1122 3375 1075 2522 
Q 1259 2794 1537 2939 
Q 1816 3084 2150 3084 
Q 2853 3084 3261 2657 
Q 3669 2231 3669 1497 
Q 3669 778 3244 343 
Q 2819 -91 2113 -91 
Q 1303 -91 875 529 
Q 447 1150 447 2328 
Q 447 3434 972 4092 
Q 1497 4750 2381 4750 
Q 2619 4750 2861 4703 
Q 3103 4656 3366 4563 
z
" transform="scale(0.015625)"/>
       </defs>
       <use xlink:href="#DejaVuSans-36"/>
      </g>
     </g>
    </g>
    <g id="text_5">
     <!-- $P$ -->
     <g transform="translate(35.903125 103.476667) rotate(-90) scale(0.1 -0.1)">
      <defs>
       <path id="DejaVuSans-Oblique-50" d="M 1081 4666 
L 2541 4666 
Q 3178 4666 3512 4369 
Q 3847 4072 3847 3500 
Q 3847 2731 3353 2303 
Q 2859 1875 1966 1875 
L 1172 1875 
L 806 0 
L 172 0 
L 1081 4666 
z
M 1613 4147 
L 1275 2394 
L 2069 2394 
Q 2606 2394 2893 2669 
Q 3181 2944 3181 3456 
Q 3181 3784 2986 3965 
Q 2791 4147 2438 4147 
L 1613 4147 
z
" transform="scale(0.015625)"/>
      </defs>
      <use xlink:href="#DejaVuSans-Oblique-50" transform="translate(0 0.09375)"/>
     </g>
    </g>
   </g>
   <g id="line2d_13">
    <path d="M 63.399403 103.299468 
L 74.905248 103.299468 
L 86.411092 86.357308 
L 97.916936 76.928627 
L 109.42278 71.624995 
L 120.928624 68.531209 
L 132.434468 66.763331 
L 143.940313 65.584746 
L 155.446157 64.995454 
L 166.952001 64.700808 
L 178.457845 64.406161 
L 189.963689 64.258838 
L 201.469533 64.258838 
L 212.975377 64.111515 
L 224.481222 64.111515 
" clip-path="url(#p1971d6f836)" style="fill: none; stroke: #1f77b4; stroke-width: 2; stroke-linecap: square"/>
   </g>
   <g id="line2d_14">
    <path d="M 63.399403 103.299468 
L 74.905248 103.299468 
L 86.411092 119.063043 
L 97.916936 130.70157 
L 109.42278 134.531971 
L 120.928624 136.005203 
L 132.434468 136.447172 
L 143.940313 136.594495 
L 155.446157 136.594495 
L 166.952001 136.741818 
L 178.457845 136.741818 
L 189.963689 136.741818 
L 201.469533 136.741818 
L 212.975377 136.741818 
L 224.481222 136.741818 
" clip-path="url(#p1971d6f836)" style="fill: none; stroke-dasharray: 6.475,2.8; stroke-dashoffset: 0; stroke: #ffa500; stroke-width: 1.75"/>
   </g>
   <g id="patch_3">
    <path d="M 55.345313 140.373333 
L 55.345313 60.48 
" style="fill: none; stroke: #000000; stroke-width: 0.8; stroke-linejoin: miter; stroke-linecap: square"/>
   </g>
   <g id="patch_4">
    <path d="M 232.535313 140.373333 
L 232.535313 60.48 
" style="fill: none; stroke: #000000; stroke-width: 0.8; stroke-linejoin: miter; stroke-linecap: square"/>
   </g>
   <g id="patch_5">
    <path d="M 55.345313 140.373333 
L 232.535313 140.373333 
" style="fill: none; stroke: #000000; stroke-width: 0.8; stroke-linejoin: miter; stroke-linecap: square"/>
   </g>
   <g id="patch_6">
    <path d="M 55.345313 60.48 
L 232.535313 60.48 
" style="fill: none; stroke: #000000; stroke-width: 0.8; stroke-linejoin: miter; stroke-linecap: square"/>
   </g>
   <g id="text_6">
    <!-- $P$ -->
    <g transform="translate(140.280313 54.48) scale(0.12 -0.12)">
     <use xlink:href="#DejaVuSans-Oblique-50" transform="translate(0 0.09375)"/>
    </g>
   </g>
  </g>
  <g id="axes_2">
   <g id="patch_7">
    <path d="M 291.775312 140.373333 
L 468.965312 140.373333 
L 468.965312 60.48 
L 291.775312 60.48 
L 291.775312 140.373333 
z
" style="fill: none"/>
   </g>
   <g id="matplotlib.axis_3">
    <g id="xtick_4">
     <g id="line2d_15">
      <path d="M 299.829403 140.373333 
L 299.829403 60.48 
" clip-path="url(#pc60de57c8a)" style="fill: none; stroke: #b0b0b0; stroke-width: 0.8; stroke-linecap: square"/>
     </g>
     <g id="line2d_16">
      <g>
       <use xlink:href="#mab9e1f0622" x="299.829403" y="140.373333" style="stroke: #000000; stroke-width: 0.8"/>
      </g>
     </g>
    </g>
    <g id="xtick_5">
     <g id="line2d_17">
      <path d="M 357.358624 140.373333 
L 357.358624 60.48 
" clip-path="url(#pc60de57c8a)" style="fill: none; stroke: #b0b0b0; stroke-width: 0.8; stroke-linecap: square"/>
     </g>
     <g id="line2d_18">
      <g>
       <use xlink:href="#mab9e1f0622" x="357.358624" y="140.373333" style="stroke: #000000; stroke-width: 0.8"/>
      </g>
     </g>
    </g>
    <g id="xtick_6">
     <g id="line2d_19">
      <path d="M 414.887845 140.373333 
L 414.887845 60.48 
" clip-path="url(#pc60de57c8a)" style="fill: none; stroke: #b0b0b0; stroke-width: 0.8; stroke-linecap: square"/>
     </g>
     <g id="line2d_20">
      <g>
       <use xlink:href="#mab9e1f0622" x="414.887845" y="140.373333" style="stroke: #000000; stroke-width: 0.8"/>
      </g>
     </g>
    </g>
    <g id="text_7">
     <!-- time -->
     <g transform="translate(369.074219 155.471771) scale(0.1 -0.1)">
      <use xlink:href="#DejaVuSans-74"/>
      <use xlink:href="#DejaVuSans-69" x="39.208984"/>
      <use xlink:href="#DejaVuSans-6d" x="66.992188"/>
      <use xlink:href="#DejaVuSans-65" x="164.404297"/>
     </g>
    </g>
   </g>
   <g id="matplotlib.axis_4">
    <g id="ytick_4">
     <g id="line2d_21">
      <path d="M 291.775312 129.433245 
L 468.965312 129.433245 
" clip-path="url(#pc60de57c8a)" style="fill: none; stroke: #b0b0b0; stroke-width: 0.8; stroke-linecap: square"/>
     </g>
     <g id="line2d_22">
      <g>
       <use xlink:href="#md041bc6256" x="291.775312" y="129.433245" style="stroke: #000000; stroke-width: 0.8"/>
      </g>
     </g>
     <g id="text_8">
      <!-- 200 -->
      <g transform="translate(265.687813 133.232464) scale(0.1 -0.1)">
       <defs>
        <path id="DejaVuSans-30" d="M 2034 4250 
Q 1547 4250 1301 3770 
Q 1056 3291 1056 2328 
Q 1056 1369 1301 889 
Q 1547 409 2034 409 
Q 2525 409 2770 889 
Q 3016 1369 3016 2328 
Q 3016 3291 2770 3770 
Q 2525 4250 2034 4250 
z
M 2034 4750 
Q 2819 4750 3233 4129 
Q 3647 3509 3647 2328 
Q 3647 1150 3233 529 
Q 2819 -91 2034 -91 
Q 1250 -91 836 529 
Q 422 1150 422 2328 
Q 422 3509 836 4129 
Q 1250 4750 2034 4750 
z
" transform="scale(0.015625)"/>
       </defs>
       <use xlink:href="#DejaVuSans-32"/>
       <use xlink:href="#DejaVuSans-30" x="63.623047"/>
       <use xlink:href="#DejaVuSans-30" x="127.246094"/>
      </g>
     </g>
    </g>
    <g id="ytick_5">
     <g id="line2d_23">
      <path d="M 291.775312 93.287976 
L 468.965312 93.287976 
" clip-path="url(#pc60de57c8a)" style="fill: none; stroke: #b0b0b0; stroke-width: 0.8; stroke-linecap: square"/>
     </g>
     <g id="line2d_24">
      <g>
       <use xlink:href="#md041bc6256" x="291.775312" y="93.287976" style="stroke: #000000; stroke-width: 0.8"/>
      </g>
     </g>
     <g id="text_9">
      <!-- 300 -->
      <g transform="translate(265.687813 97.087195) scale(0.1 -0.1)">
       <defs>
        <path id="DejaVuSans-33" d="M 2597 2516 
Q 3050 2419 3304 2112 
Q 3559 1806 3559 1356 
Q 3559 666 3084 287 
Q 2609 -91 1734 -91 
Q 1441 -91 1130 -33 
Q 819 25 488 141 
L 488 750 
Q 750 597 1062 519 
Q 1375 441 1716 441 
Q 2309 441 2620 675 
Q 2931 909 2931 1356 
Q 2931 1769 2642 2001 
Q 2353 2234 1838 2234 
L 1294 2234 
L 1294 2753 
L 1863 2753 
Q 2328 2753 2575 2939 
Q 2822 3125 2822 3475 
Q 2822 3834 2567 4026 
Q 2313 4219 1838 4219 
Q 1578 4219 1281 4162 
Q 984 4106 628 3988 
L 628 4550 
Q 988 4650 1302 4700 
Q 1616 4750 1894 4750 
Q 2613 4750 3031 4423 
Q 3450 4097 3450 3541 
Q 3450 3153 3228 2886 
Q 3006 2619 2597 2516 
z
" transform="scale(0.015625)"/>
       </defs>
       <use xlink:href="#DejaVuSans-33"/>
       <use xlink:href="#DejaVuSans-30" x="63.623047"/>
       <use xlink:href="#DejaVuSans-30" x="127.246094"/>
      </g>
     </g>
    </g>
    <g id="text_10">
     <!-- $Y$ -->
     <g transform="translate(259.608125 103.526667) rotate(-90) scale(0.1 -0.1)">
      <defs>
       <path id="DejaVuSans-Oblique-59" d="M 403 4666 
L 1081 4666 
L 1953 2747 
L 3616 4666 
L 4325 4666 
L 2209 2222 
L 1778 0 
L 1147 0 
L 1575 2222 
L 403 4666 
z
" transform="scale(0.015625)"/>
      </defs>
      <use xlink:href="#DejaVuSans-Oblique-59" transform="translate(0 0.09375)"/>
     </g>
    </g>
   </g>
   <g id="line2d_25">
    <path d="M 299.829403 65.998298 
L 311.335248 64.111515 
L 322.841092 78.739505 
L 334.346936 85.350475 
L 345.85278 88.780661 
L 357.358624 90.674673 
L 368.864468 91.755417 
L 380.370313 92.384344 
L 391.876157 92.753026 
L 403.382001 92.969898 
L 414.887845 93.100021 
L 426.393689 93.175926 
L 437.899533 93.222915 
L 449.405377 93.248216 
L 460.911222 93.262674 
" clip-path="url(#pc60de57c8a)" style="fill: none; stroke: #1f77b4; stroke-width: 2; stroke-linecap: square"/>
   </g>
   <g id="line2d_26">
    <path d="M 299.829403 65.998298 
L 311.335248 132.700777 
L 322.841092 136.741818 
L 334.346936 114.805255 
L 345.85278 103.282143 
L 357.358624 97.122989 
L 368.864468 94.67234 
L 380.370313 93.768708 
L 391.876157 93.454244 
L 403.382001 93.345809 
L 414.887845 93.306049 
L 426.393689 93.295205 
L 437.899533 93.291591 
L 449.405377 93.287976 
L 460.911222 93.287976 
" clip-path="url(#pc60de57c8a)" style="fill: none; stroke-dasharray: 6.475,2.8; stroke-dashoffset: 0; stroke: #ffa500; stroke-width: 1.75"/>
   </g>
   <g id="patch_8">
    <path d="M 291.775312 140.373333 
L 291.775312 60.48 
" style="fill: none; stroke: #000000; stroke-width: 0.8; stroke-linejoin: miter; stroke-linecap: square"/>
   </g>
   <g id="patch_9">
    <path d="M 468.965312 140.373333 
L 468.965312 60.48 
" style="fill: none; stroke: #000000; stroke-width: 0.8; stroke-linejoin: miter; stroke-linecap: square"/>
   </g>
   <g id="patch_10">
    <path d="M 291.775312 140.373333 
L 468.965312 140.373333 
" style="fill: none; stroke: #000000; stroke-width: 0.8; stroke-linejoin: miter; stroke-linecap: square"/>
   </g>
   <g id="patch_11">
    <path d="M 291.775312 60.48 
L 468.965312 60.48 
" style="fill: none; stroke: #000000; stroke-width: 0.8; stroke-linejoin: miter; stroke-linecap: square"/>
   </g>
   <g id="text_11">
    <!-- $Y$ -->
    <g transform="translate(376.650312 54.48) scale(0.12 -0.12)">
     <use xlink:href="#DejaVuSans-Oblique-59" transform="translate(0 0.09375)"/>
    </g>
   </g>
  </g>
  <g id="axes_3">
   <g id="patch_12">
    <path d="M 528.205312 140.373333 
L 705.395313 140.373333 
L 705.395313 60.48 
L 528.205312 60.48 
L 528.205312 140.373333 
z
" style="fill: none"/>
   </g>
   <g id="matplotlib.axis_5">
    <g id="xtick_7">
     <g id="line2d_27">
      <path d="M 536.259403 140.373333 
L 536.259403 60.48 
" clip-path="url(#p266a128aa3)" style="fill: none; stroke: #b0b0b0; stroke-width: 0.8; stroke-linecap: square"/>
     </g>
     <g id="line2d_28">
      <g>
       <use xlink:href="#mab9e1f0622" x="536.259403" y="140.373333" style="stroke: #000000; stroke-width: 0.8"/>
      </g>
     </g>
    </g>
    <g id="xtick_8">
     <g id="line2d_29">
      <path d="M 593.788624 140.373333 
L 593.788624 60.48 
" clip-path="url(#p266a128aa3)" style="fill: none; stroke: #b0b0b0; stroke-width: 0.8; stroke-linecap: square"/>
     </g>
     <g id="line2d_30">
      <g>
       <use xlink:href="#mab9e1f0622" x="593.788624" y="140.373333" style="stroke: #000000; stroke-width: 0.8"/>
      </g>
     </g>
    </g>
    <g id="xtick_9">
     <g id="line2d_31">
      <path d="M 651.317845 140.373333 
L 651.317845 60.48 
" clip-path="url(#p266a128aa3)" style="fill: none; stroke: #b0b0b0; stroke-width: 0.8; stroke-linecap: square"/>
     </g>
     <g id="line2d_32">
      <g>
       <use xlink:href="#mab9e1f0622" x="651.317845" y="140.373333" style="stroke: #000000; stroke-width: 0.8"/>
      </g>
     </g>
    </g>
    <g id="text_12">
     <!-- time -->
     <g transform="translate(605.504219 155.471771) scale(0.1 -0.1)">
      <use xlink:href="#DejaVuSans-74"/>
      <use xlink:href="#DejaVuSans-69" x="39.208984"/>
      <use xlink:href="#DejaVuSans-6d" x="66.992188"/>
      <use xlink:href="#DejaVuSans-65" x="164.404297"/>
     </g>
    </g>
   </g>
   <g id="matplotlib.axis_6">
    <g id="ytick_6">
     <g id="line2d_33">
      <path d="M 528.205312 111.167768 
L 705.395313 111.167768 
" clip-path="url(#p266a128aa3)" style="fill: none; stroke: #b0b0b0; stroke-width: 0.8; stroke-linecap: square"/>
     </g>
     <g id="line2d_34">
      <g>
       <use xlink:href="#md041bc6256" x="528.205312" y="111.167768" style="stroke: #000000; stroke-width: 0.8"/>
      </g>
     </g>
     <g id="text_13">
      <!-- 5 -->
      <g transform="translate(514.842813 114.966987) scale(0.1 -0.1)">
       <defs>
        <path id="DejaVuSans-35" d="M 691 4666 
L 3169 4666 
L 3169 4134 
L 1269 4134 
L 1269 2991 
Q 1406 3038 1543 3061 
Q 1681 3084 1819 3084 
Q 2600 3084 3056 2656 
Q 3513 2228 3513 1497 
Q 3513 744 3044 326 
Q 2575 -91 1722 -91 
Q 1428 -91 1123 -41 
Q 819 9 494 109 
L 494 744 
Q 775 591 1075 516 
Q 1375 441 1709 441 
Q 2250 441 2565 725 
Q 2881 1009 2881 1497 
Q 2881 1984 2565 2268 
Q 2250 2553 1709 2553 
Q 1456 2553 1204 2497 
Q 953 2441 691 2322 
L 691 4666 
z
" transform="scale(0.015625)"/>
       </defs>
       <use xlink:href="#DejaVuSans-35"/>
      </g>
     </g>
    </g>
    <g id="ytick_7">
     <g id="line2d_35">
      <path d="M 528.205312 79.200205 
L 705.395313 79.200205 
" clip-path="url(#p266a128aa3)" style="fill: none; stroke: #b0b0b0; stroke-width: 0.8; stroke-linecap: square"/>
     </g>
     <g id="line2d_36">
      <g>
       <use xlink:href="#md041bc6256" x="528.205312" y="79.200205" style="stroke: #000000; stroke-width: 0.8"/>
      </g>
     </g>
     <g id="text_14">
      <!-- 10 -->
      <g transform="translate(508.480312 82.999424) scale(0.1 -0.1)">
       <defs>
        <path id="DejaVuSans-31" d="M 794 531 
L 1825 531 
L 1825 4091 
L 703 3866 
L 703 4441 
L 1819 4666 
L 2450 4666 
L 2450 531 
L 3481 531 
L 3481 0 
L 794 0 
L 794 531 
z
" transform="scale(0.015625)"/>
       </defs>
       <use xlink:href="#DejaVuSans-31"/>
       <use xlink:href="#DejaVuSans-30" x="63.623047"/>
      </g>
     </g>
    </g>
    <g id="text_15">
     <!-- $i$ -->
     <g transform="translate(502.400625 101.826667) rotate(-90) scale(0.1 -0.1)">
      <defs>
       <path id="DejaVuSans-Oblique-69" d="M 1172 4863 
L 1747 4863 
L 1606 4134 
L 1031 4134 
L 1172 4863 
z
M 909 3500 
L 1484 3500 
L 800 0 
L 225 0 
L 909 3500 
z
" transform="scale(0.015625)"/>
      </defs>
      <use xlink:href="#DejaVuSans-Oblique-69" transform="translate(0 0.015625)"/>
     </g>
    </g>
   </g>
   <g id="line2d_37">
    <path d="M 536.259403 65.518088 
L 547.765248 64.111515 
L 559.271092 69.03452 
L 570.776936 71.847665 
L 582.28278 73.382108 
L 593.788624 74.2772 
L 605.294468 74.788681 
L 616.800313 75.108357 
L 628.306157 75.300162 
L 639.812001 75.364097 
L 651.317845 75.428032 
L 662.823689 75.491968 
L 674.329533 75.491968 
L 685.835377 75.555903 
L 697.341222 75.555903 
" clip-path="url(#p266a128aa3)" style="fill: none; stroke: #1f77b4; stroke-width: 2; stroke-linecap: square"/>
   </g>
   <g id="line2d_38">
    <path d="M 536.259403 65.518088 
L 547.765248 114.620265 
L 559.271092 128.622057 
L 570.776936 131.307332 
L 582.28278 134.568024 
L 593.788624 135.910662 
L 605.294468 136.486078 
L 616.800313 136.613948 
L 628.306157 136.677883 
L 639.812001 136.741818 
L 651.317845 136.741818 
L 662.823689 136.741818 
L 674.329533 136.741818 
L 685.835377 136.741818 
L 697.341222 136.741818 
" clip-path="url(#p266a128aa3)" style="fill: none; stroke-dasharray: 6.475,2.8; stroke-dashoffset: 0; stroke: #ffa500; stroke-width: 1.75"/>
   </g>
   <g id="patch_13">
    <path d="M 528.205312 140.373333 
L 528.205312 60.48 
" style="fill: none; stroke: #000000; stroke-width: 0.8; stroke-linejoin: miter; stroke-linecap: square"/>
   </g>
   <g id="patch_14">
    <path d="M 705.395313 140.373333 
L 705.395313 60.48 
" style="fill: none; stroke: #000000; stroke-width: 0.8; stroke-linejoin: miter; stroke-linecap: square"/>
   </g>
   <g id="patch_15">
    <path d="M 528.205312 140.373333 
L 705.395313 140.373333 
" style="fill: none; stroke: #000000; stroke-width: 0.8; stroke-linejoin: miter; stroke-linecap: square"/>
   </g>
   <g id="patch_16">
    <path d="M 528.205312 60.48 
L 705.395313 60.48 
" style="fill: none; stroke: #000000; stroke-width: 0.8; stroke-linejoin: miter; stroke-linecap: square"/>
   </g>
   <g id="text_16">
    <!-- $i$ -->
    <g transform="translate(615.120313 54.48) scale(0.12 -0.12)">
     <use xlink:href="#DejaVuSans-Oblique-69" transform="translate(0 0.015625)"/>
    </g>
   </g>
  </g>
  <g id="axes_4">
   <g id="patch_17">
    <path d="M 55.345313 264.726667 
L 232.535313 264.726667 
L 232.535313 184.833333 
L 55.345313 184.833333 
L 55.345313 264.726667 
z
" style="fill: none"/>
   </g>
   <g id="matplotlib.axis_7">
    <g id="xtick_10">
     <g id="line2d_39">
      <path d="M 63.399403 264.726667 
L 63.399403 184.833333 
" clip-path="url(#pffe5461725)" style="fill: none; stroke: #b0b0b0; stroke-width: 0.8; stroke-linecap: square"/>
     </g>
     <g id="line2d_40">
      <g>
       <use xlink:href="#mab9e1f0622" x="63.399403" y="264.726667" style="stroke: #000000; stroke-width: 0.8"/>
      </g>
     </g>
    </g>
    <g id="xtick_11">
     <g id="line2d_41">
      <path d="M 120.928624 264.726667 
L 120.928624 184.833333 
" clip-path="url(#pffe5461725)" style="fill: none; stroke: #b0b0b0; stroke-width: 0.8; stroke-linecap: square"/>
     </g>
     <g id="line2d_42">
      <g>
       <use xlink:href="#mab9e1f0622" x="120.928624" y="264.726667" style="stroke: #000000; stroke-width: 0.8"/>
      </g>
     </g>
    </g>
    <g id="xtick_12">
     <g id="line2d_43">
      <path d="M 178.457845 264.726667 
L 178.457845 184.833333 
" clip-path="url(#pffe5461725)" style="fill: none; stroke: #b0b0b0; stroke-width: 0.8; stroke-linecap: square"/>
     </g>
     <g id="line2d_44">
      <g>
       <use xlink:href="#mab9e1f0622" x="178.457845" y="264.726667" style="stroke: #000000; stroke-width: 0.8"/>
      </g>
     </g>
    </g>
    <g id="text_17">
     <!-- time -->
     <g transform="translate(132.644219 279.825104) scale(0.1 -0.1)">
      <use xlink:href="#DejaVuSans-74"/>
      <use xlink:href="#DejaVuSans-69" x="39.208984"/>
      <use xlink:href="#DejaVuSans-6d" x="66.992188"/>
      <use xlink:href="#DejaVuSans-65" x="164.404297"/>
     </g>
    </g>
   </g>
   <g id="matplotlib.axis_8">
    <g id="ytick_8">
     <g id="line2d_45">
      <path d="M 55.345313 236.557887 
L 232.535313 236.557887 
" clip-path="url(#pffe5461725)" style="fill: none; stroke: #b0b0b0; stroke-width: 0.8; stroke-linecap: square"/>
     </g>
     <g id="line2d_46">
      <g>
       <use xlink:href="#md041bc6256" x="55.345313" y="236.557887" style="stroke: #000000; stroke-width: 0.8"/>
      </g>
     </g>
     <g id="text_18">
      <!-- 5 -->
      <g transform="translate(41.982813 240.357106) scale(0.1 -0.1)">
       <use xlink:href="#DejaVuSans-35"/>
      </g>
     </g>
    </g>
    <g id="ytick_9">
     <g id="line2d_47">
      <path d="M 55.345313 205.886306 
L 232.535313 205.886306 
" clip-path="url(#pffe5461725)" style="fill: none; stroke: #b0b0b0; stroke-width: 0.8; stroke-linecap: square"/>
     </g>
     <g id="line2d_48">
      <g>
       <use xlink:href="#md041bc6256" x="55.345313" y="205.886306" style="stroke: #000000; stroke-width: 0.8"/>
      </g>
     </g>
     <g id="text_19">
      <!-- 10 -->
      <g transform="translate(35.620313 209.685525) scale(0.1 -0.1)">
       <use xlink:href="#DejaVuSans-31"/>
       <use xlink:href="#DejaVuSans-30" x="63.623047"/>
      </g>
     </g>
    </g>
    <g id="text_20">
     <!-- $r$ -->
     <g transform="translate(29.540625 226.88) rotate(-90) scale(0.1 -0.1)">
      <defs>
       <path id="DejaVuSans-Oblique-72" d="M 2853 2969 
Q 2766 3016 2653 3041 
Q 2541 3066 2413 3066 
Q 1953 3066 1609 2717 
Q 1266 2369 1153 1784 
L 800 0 
L 225 0 
L 909 3500 
L 1484 3500 
L 1375 2956 
Q 1603 3259 1920 3421 
Q 2238 3584 2597 3584 
Q 2691 3584 2781 3573 
Q 2872 3563 2963 3538 
L 2853 2969 
z
" transform="scale(0.015625)"/>
      </defs>
      <use xlink:href="#DejaVuSans-Oblique-72"/>
     </g>
    </g>
   </g>
   <g id="line2d_49">
    <path d="M 63.399403 188.464848 
L 74.905248 191.40932 
L 86.411092 196.132744 
L 97.916936 198.831843 
L 109.42278 200.304079 
L 120.928624 201.162883 
L 132.434468 201.653628 
L 143.940313 201.960344 
L 155.446157 202.144373 
L 166.952001 202.205717 
L 178.457845 202.26706 
L 189.963689 202.328403 
L 201.469533 202.328403 
L 212.975377 202.389746 
L 224.481222 202.389746 
" clip-path="url(#pffe5461725)" style="fill: none; stroke: #1f77b4; stroke-width: 2; stroke-linecap: square"/>
   </g>
   <g id="line2d_50">
    <path d="M 63.399403 188.464848 
L 74.905248 239.870418 
L 86.411092 253.30457 
L 97.916936 255.880983 
L 109.42278 259.009484 
L 120.928624 260.29769 
L 132.434468 260.849779 
L 143.940313 260.972465 
L 155.446157 261.033808 
L 166.952001 261.095152 
L 178.457845 261.095152 
L 189.963689 261.095152 
L 201.469533 261.095152 
L 212.975377 261.095152 
L 224.481222 261.095152 
" clip-path="url(#pffe5461725)" style="fill: none; stroke-dasharray: 6.475,2.8; stroke-dashoffset: 0; stroke: #ffa500; stroke-width: 1.75"/>
   </g>
   <g id="patch_18">
    <path d="M 55.345313 264.726667 
L 55.345313 184.833333 
" style="fill: none; stroke: #000000; stroke-width: 0.8; stroke-linejoin: miter; stroke-linecap: square"/>
   </g>
   <g id="patch_19">
    <path d="M 232.535313 264.726667 
L 232.535313 184.833333 
" style="fill: none; stroke: #000000; stroke-width: 0.8; stroke-linejoin: miter; stroke-linecap: square"/>
   </g>
   <g id="patch_20">
    <path d="M 55.345313 264.726667 
L 232.535313 264.726667 
" style="fill: none; stroke: #000000; stroke-width: 0.8; stroke-linejoin: miter; stroke-linecap: square"/>
   </g>
   <g id="patch_21">
    <path d="M 55.345313 184.833333 
L 232.535313 184.833333 
" style="fill: none; stroke: #000000; stroke-width: 0.8; stroke-linejoin: miter; stroke-linecap: square"/>
   </g>
   <g id="text_21">
    <!-- $r$ -->
    <g transform="translate(141.420313 178.833333) scale(0.12 -0.12)">
     <use xlink:href="#DejaVuSans-Oblique-72"/>
    </g>
   </g>
  </g>
  <g id="axes_5">
   <g id="patch_22">
    <path d="M 291.775312 264.726667 
L 468.965312 264.726667 
L 468.965312 184.833333 
L 291.775312 184.833333 
L 291.775312 264.726667 
z
" style="fill: none"/>
   </g>
   <g id="matplotlib.axis_9">
    <g id="xtick_13">
     <g id="line2d_51">
      <path d="M 299.829403 264.726667 
L 299.829403 184.833333 
" clip-path="url(#p7618db26ca)" style="fill: none; stroke: #b0b0b0; stroke-width: 0.8; stroke-linecap: square"/>
     </g>
     <g id="line2d_52">
      <g>
       <use xlink:href="#mab9e1f0622" x="299.829403" y="264.726667" style="stroke: #000000; stroke-width: 0.8"/>
      </g>
     </g>
    </g>
    <g id="xtick_14">
     <g id="line2d_53">
      <path d="M 357.358624 264.726667 
L 357.358624 184.833333 
" clip-path="url(#p7618db26ca)" style="fill: none; stroke: #b0b0b0; stroke-width: 0.8; stroke-linecap: square"/>
     </g>
     <g id="line2d_54">
      <g>
       <use xlink:href="#mab9e1f0622" x="357.358624" y="264.726667" style="stroke: #000000; stroke-width: 0.8"/>
      </g>
     </g>
    </g>
    <g id="xtick_15">
     <g id="line2d_55">
      <path d="M 414.887845 264.726667 
L 414.887845 184.833333 
" clip-path="url(#p7618db26ca)" style="fill: none; stroke: #b0b0b0; stroke-width: 0.8; stroke-linecap: square"/>
     </g>
     <g id="line2d_56">
      <g>
       <use xlink:href="#mab9e1f0622" x="414.887845" y="264.726667" style="stroke: #000000; stroke-width: 0.8"/>
      </g>
     </g>
    </g>
    <g id="text_22">
     <!-- time -->
     <g transform="translate(369.074219 279.825104) scale(0.1 -0.1)">
      <use xlink:href="#DejaVuSans-74"/>
      <use xlink:href="#DejaVuSans-69" x="39.208984"/>
      <use xlink:href="#DejaVuSans-6d" x="66.992188"/>
      <use xlink:href="#DejaVuSans-65" x="164.404297"/>
     </g>
    </g>
   </g>
   <g id="matplotlib.axis_10">
    <g id="ytick_10">
     <g id="line2d_57">
      <path d="M 291.775312 256.37018 
L 468.965312 256.37018 
" clip-path="url(#p7618db26ca)" style="fill: none; stroke: #b0b0b0; stroke-width: 0.8; stroke-linecap: square"/>
     </g>
     <g id="line2d_58">
      <g>
       <use xlink:href="#md041bc6256" x="291.775312" y="256.37018" style="stroke: #000000; stroke-width: 0.8"/>
      </g>
     </g>
     <g id="text_23">
      <!-- 150 -->
      <g transform="translate(265.687813 260.169399) scale(0.1 -0.1)">
       <use xlink:href="#DejaVuSans-31"/>
       <use xlink:href="#DejaVuSans-35" x="63.623047"/>
       <use xlink:href="#DejaVuSans-30" x="127.246094"/>
      </g>
     </g>
    </g>
    <g id="ytick_11">
     <g id="line2d_59">
      <path d="M 291.775312 230.550662 
L 468.965312 230.550662 
" clip-path="url(#p7618db26ca)" style="fill: none; stroke: #b0b0b0; stroke-width: 0.8; stroke-linecap: square"/>
     </g>
     <g id="line2d_60">
      <g>
       <use xlink:href="#md041bc6256" x="291.775312" y="230.550662" style="stroke: #000000; stroke-width: 0.8"/>
      </g>
     </g>
     <g id="text_24">
      <!-- 200 -->
      <g transform="translate(265.687813 234.349881) scale(0.1 -0.1)">
       <use xlink:href="#DejaVuSans-32"/>
       <use xlink:href="#DejaVuSans-30" x="63.623047"/>
       <use xlink:href="#DejaVuSans-30" x="127.246094"/>
      </g>
     </g>
    </g>
    <g id="ytick_12">
     <g id="line2d_61">
      <path d="M 291.775312 204.731145 
L 468.965312 204.731145 
" clip-path="url(#p7618db26ca)" style="fill: none; stroke: #b0b0b0; stroke-width: 0.8; stroke-linecap: square"/>
     </g>
     <g id="line2d_62">
      <g>
       <use xlink:href="#md041bc6256" x="291.775312" y="204.731145" style="stroke: #000000; stroke-width: 0.8"/>
      </g>
     </g>
     <g id="text_25">
      <!-- 250 -->
      <g transform="translate(265.687813 208.530363) scale(0.1 -0.1)">
       <use xlink:href="#DejaVuSans-32"/>
       <use xlink:href="#DejaVuSans-35" x="63.623047"/>
       <use xlink:href="#DejaVuSans-30" x="127.246094"/>
      </g>
     </g>
    </g>
    <g id="text_26">
     <!-- $C$ -->
     <g transform="translate(259.608125 228.28) rotate(-90) scale(0.1 -0.1)">
      <defs>
       <path id="DejaVuSans-Oblique-43" d="M 4447 4306 
L 4319 3641 
Q 4019 3944 3683 4091 
Q 3347 4238 2956 4238 
Q 2422 4238 2017 3981 
Q 1613 3725 1319 3200 
Q 1131 2863 1032 2486 
Q 934 2109 934 1728 
Q 934 1091 1264 756 
Q 1594 422 2222 422 
Q 2656 422 3056 561 
Q 3456 700 3834 978 
L 3688 231 
Q 3316 72 2936 -9 
Q 2556 -91 2175 -91 
Q 1278 -91 773 396 
Q 269 884 269 1753 
Q 269 2309 461 2846 
Q 653 3384 1013 3828 
Q 1394 4300 1883 4525 
Q 2372 4750 3022 4750 
Q 3422 4750 3780 4639 
Q 4138 4528 4447 4306 
z
" transform="scale(0.015625)"/>
      </defs>
      <use xlink:href="#DejaVuSans-Oblique-43" transform="translate(0 0.78125)"/>
     </g>
    </g>
   </g>
   <g id="line2d_63">
    <path d="M 299.829403 190.349673 
L 311.335248 188.464848 
L 322.841092 203.094187 
L 334.346936 209.703984 
L 345.85278 213.132816 
L 357.358624 215.027968 
L 368.864468 216.107224 
L 380.370313 216.73722 
L 391.876157 217.103857 
L 403.382001 217.320741 
L 414.887845 217.449839 
L 426.393689 217.527298 
L 437.899533 217.573773 
L 449.405377 217.599592 
L 460.911222 217.615084 
" clip-path="url(#p7618db26ca)" style="fill: none; stroke: #1f77b4; stroke-width: 2; stroke-linecap: square"/>
   </g>
   <g id="line2d_64">
    <path d="M 299.829403 190.349673 
L 311.335248 257.056979 
L 322.841092 261.095152 
L 334.346936 239.158889 
L 345.85278 227.633057 
L 357.358624 221.477684 
L 368.864468 219.02483 
L 380.370313 218.121146 
L 391.876157 217.806148 
L 403.382001 217.697706 
L 414.887845 217.661559 
L 426.393689 217.646067 
L 437.899533 217.640903 
L 449.405377 217.640903 
L 460.911222 217.640903 
" clip-path="url(#p7618db26ca)" style="fill: none; stroke-dasharray: 6.475,2.8; stroke-dashoffset: 0; stroke: #ffa500; stroke-width: 1.75"/>
   </g>
   <g id="patch_23">
    <path d="M 291.775312 264.726667 
L 291.775312 184.833333 
" style="fill: none; stroke: #000000; stroke-width: 0.8; stroke-linejoin: miter; stroke-linecap: square"/>
   </g>
   <g id="patch_24">
    <path d="M 468.965312 264.726667 
L 468.965312 184.833333 
" style="fill: none; stroke: #000000; stroke-width: 0.8; stroke-linejoin: miter; stroke-linecap: square"/>
   </g>
   <g id="patch_25">
    <path d="M 291.775312 264.726667 
L 468.965312 264.726667 
" style="fill: none; stroke: #000000; stroke-width: 0.8; stroke-linejoin: miter; stroke-linecap: square"/>
   </g>
   <g id="patch_26">
    <path d="M 291.775312 184.833333 
L 468.965312 184.833333 
" style="fill: none; stroke: #000000; stroke-width: 0.8; stroke-linejoin: miter; stroke-linecap: square"/>
   </g>
   <g id="text_27">
    <!-- $C$ -->
    <g transform="translate(376.170312 178.833333) scale(0.12 -0.12)">
     <use xlink:href="#DejaVuSans-Oblique-43" transform="translate(0 0.78125)"/>
    </g>
   </g>
  </g>
  <g id="axes_6">
   <g id="patch_27">
    <path d="M 528.205312 264.726667 
L 705.395313 264.726667 
L 705.395313 184.833333 
L 528.205312 184.833333 
L 528.205312 264.726667 
z
" style="fill: none"/>
   </g>
   <g id="matplotlib.axis_11">
    <g id="xtick_16">
     <g id="line2d_65">
      <path d="M 536.259403 264.726667 
L 536.259403 184.833333 
" clip-path="url(#p83b0c41cb3)" style="fill: none; stroke: #b0b0b0; stroke-width: 0.8; stroke-linecap: square"/>
     </g>
     <g id="line2d_66">
      <g>
       <use xlink:href="#mab9e1f0622" x="536.259403" y="264.726667" style="stroke: #000000; stroke-width: 0.8"/>
      </g>
     </g>
    </g>
    <g id="xtick_17">
     <g id="line2d_67">
      <path d="M 593.788624 264.726667 
L 593.788624 184.833333 
" clip-path="url(#p83b0c41cb3)" style="fill: none; stroke: #b0b0b0; stroke-width: 0.8; stroke-linecap: square"/>
     </g>
     <g id="line2d_68">
      <g>
       <use xlink:href="#mab9e1f0622" x="593.788624" y="264.726667" style="stroke: #000000; stroke-width: 0.8"/>
      </g>
     </g>
    </g>
    <g id="xtick_18">
     <g id="line2d_69">
      <path d="M 651.317845 264.726667 
L 651.317845 184.833333 
" clip-path="url(#p83b0c41cb3)" style="fill: none; stroke: #b0b0b0; stroke-width: 0.8; stroke-linecap: square"/>
     </g>
     <g id="line2d_70">
      <g>
       <use xlink:href="#mab9e1f0622" x="651.317845" y="264.726667" style="stroke: #000000; stroke-width: 0.8"/>
      </g>
     </g>
    </g>
    <g id="text_28">
     <!-- time -->
     <g transform="translate(605.504219 279.825104) scale(0.1 -0.1)">
      <use xlink:href="#DejaVuSans-74"/>
      <use xlink:href="#DejaVuSans-69" x="39.208984"/>
      <use xlink:href="#DejaVuSans-6d" x="66.992188"/>
      <use xlink:href="#DejaVuSans-65" x="164.404297"/>
     </g>
    </g>
   </g>
   <g id="matplotlib.axis_12">
    <g id="ytick_13">
     <g id="line2d_71">
      <path d="M 528.205312 262.101519 
L 705.395313 262.101519 
" clip-path="url(#p83b0c41cb3)" style="fill: none; stroke: #b0b0b0; stroke-width: 0.8; stroke-linecap: square"/>
     </g>
     <g id="line2d_72">
      <g>
       <use xlink:href="#md041bc6256" x="528.205312" y="262.101519" style="stroke: #000000; stroke-width: 0.8"/>
      </g>
     </g>
     <g id="text_29">
      <!-- −100 -->
      <g transform="translate(493.738125 265.900738) scale(0.1 -0.1)">
       <defs>
        <path id="DejaVuSans-2212" d="M 678 2272 
L 4684 2272 
L 4684 1741 
L 678 1741 
L 678 2272 
z
" transform="scale(0.015625)"/>
       </defs>
       <use xlink:href="#DejaVuSans-2212"/>
       <use xlink:href="#DejaVuSans-31" x="83.789062"/>
       <use xlink:href="#DejaVuSans-30" x="147.412109"/>
       <use xlink:href="#DejaVuSans-30" x="211.035156"/>
      </g>
     </g>
    </g>
    <g id="ytick_14">
     <g id="line2d_73">
      <path d="M 528.205312 231.419573 
L 705.395313 231.419573 
" clip-path="url(#p83b0c41cb3)" style="fill: none; stroke: #b0b0b0; stroke-width: 0.8; stroke-linecap: square"/>
     </g>
     <g id="line2d_74">
      <g>
       <use xlink:href="#md041bc6256" x="528.205312" y="231.419573" style="stroke: #000000; stroke-width: 0.8"/>
      </g>
     </g>
     <g id="text_30">
      <!-- −50 -->
      <g transform="translate(500.100625 235.218792) scale(0.1 -0.1)">
       <use xlink:href="#DejaVuSans-2212"/>
       <use xlink:href="#DejaVuSans-35" x="83.789062"/>
       <use xlink:href="#DejaVuSans-30" x="147.412109"/>
      </g>
     </g>
    </g>
    <g id="ytick_15">
     <g id="line2d_75">
      <path d="M 528.205312 200.737627 
L 705.395313 200.737627 
" clip-path="url(#p83b0c41cb3)" style="fill: none; stroke: #b0b0b0; stroke-width: 0.8; stroke-linecap: square"/>
     </g>
     <g id="line2d_76">
      <g>
       <use xlink:href="#md041bc6256" x="528.205312" y="200.737627" style="stroke: #000000; stroke-width: 0.8"/>
      </g>
     </g>
     <g id="text_31">
      <!-- 0 -->
      <g transform="translate(514.842813 204.536846) scale(0.1 -0.1)">
       <use xlink:href="#DejaVuSans-30"/>
      </g>
     </g>
    </g>
    <g id="text_32">
     <!-- $I$ -->
     <g transform="translate(487.658437 226.28) rotate(-90) scale(0.1 -0.1)">
      <defs>
       <path id="DejaVuSans-Oblique-49" d="M 1081 4666 
L 1716 4666 
L 806 0 
L 172 0 
L 1081 4666 
z
" transform="scale(0.015625)"/>
      </defs>
      <use xlink:href="#DejaVuSans-Oblique-49" transform="translate(0 0.09375)"/>
     </g>
    </g>
   </g>
   <g id="line2d_77">
    <path d="M 536.259403 261.095152 
L 547.765248 258.192639 
L 559.271092 253.449211 
L 570.776936 250.767608 
L 582.28278 249.270329 
L 593.788624 248.411235 
L 605.294468 247.914187 
L 616.800313 247.619641 
L 628.306157 247.447822 
L 639.812001 247.34964 
L 651.317845 247.288276 
L 662.823689 247.251457 
L 674.329533 247.226912 
L 685.835377 247.214639 
L 697.341222 247.208503 
" clip-path="url(#p83b0c41cb3)" style="fill: none; stroke: #1f77b4; stroke-width: 2; stroke-linecap: square"/>
   </g>
   <g id="line2d_78">
    <path d="M 536.259403 261.095152 
L 547.765248 209.67221 
L 559.271092 196.251926 
L 570.776936 193.656234 
L 582.28278 190.56963 
L 593.788624 189.250306 
L 605.294468 188.740986 
L 616.800313 188.556894 
L 628.306157 188.49553 
L 639.812001 188.477121 
L 651.317845 188.470985 
L 662.823689 188.464848 
L 674.329533 188.464848 
L 685.835377 188.464848 
L 697.341222 188.464848 
" clip-path="url(#p83b0c41cb3)" style="fill: none; stroke-dasharray: 6.475,2.8; stroke-dashoffset: 0; stroke: #ffa500; stroke-width: 1.75"/>
   </g>
   <g id="patch_28">
    <path d="M 528.205312 264.726667 
L 528.205312 184.833333 
" style="fill: none; stroke: #000000; stroke-width: 0.8; stroke-linejoin: miter; stroke-linecap: square"/>
   </g>
   <g id="patch_29">
    <path d="M 705.395313 264.726667 
L 705.395313 184.833333 
" style="fill: none; stroke: #000000; stroke-width: 0.8; stroke-linejoin: miter; stroke-linecap: square"/>
   </g>
   <g id="patch_30">
    <path d="M 528.205312 264.726667 
L 705.395313 264.726667 
" style="fill: none; stroke: #000000; stroke-width: 0.8; stroke-linejoin: miter; stroke-linecap: square"/>
   </g>
   <g id="patch_31">
    <path d="M 528.205312 184.833333 
L 705.395313 184.833333 
" style="fill: none; stroke: #000000; stroke-width: 0.8; stroke-linejoin: miter; stroke-linecap: square"/>
   </g>
   <g id="text_33">
    <!-- $I$ -->
    <g transform="translate(615.000313 178.833333) scale(0.12 -0.12)">
     <use xlink:href="#DejaVuSans-Oblique-49" transform="translate(0 0.09375)"/>
    </g>
   </g>
  </g>
  <g id="axes_7">
   <g id="patch_32">
    <path d="M 55.345313 389.08 
L 232.535313 389.08 
L 232.535313 309.186667 
L 55.345313 309.186667 
L 55.345313 389.08 
z
" style="fill: none"/>
   </g>
   <g id="matplotlib.axis_13">
    <g id="xtick_19">
     <g id="line2d_79">
      <path d="M 63.399403 389.08 
L 63.399403 309.186667 
" clip-path="url(#p8a47fb26df)" style="fill: none; stroke: #b0b0b0; stroke-width: 0.8; stroke-linecap: square"/>
     </g>
     <g id="line2d_80">
      <g>
       <use xlink:href="#mab9e1f0622" x="63.399403" y="389.08" style="stroke: #000000; stroke-width: 0.8"/>
      </g>
     </g>
     <g id="text_34">
      <!-- 0 -->
      <g transform="translate(60.218153 403.678437) scale(0.1 -0.1)">
       <use xlink:href="#DejaVuSans-30"/>
      </g>
     </g>
    </g>
    <g id="xtick_20">
     <g id="line2d_81">
      <path d="M 120.928624 389.08 
L 120.928624 309.186667 
" clip-path="url(#p8a47fb26df)" style="fill: none; stroke: #b0b0b0; stroke-width: 0.8; stroke-linecap: square"/>
     </g>
     <g id="line2d_82">
      <g>
       <use xlink:href="#mab9e1f0622" x="120.928624" y="389.08" style="stroke: #000000; stroke-width: 0.8"/>
      </g>
     </g>
     <g id="text_35">
      <!-- 5 -->
      <g transform="translate(117.747374 403.678437) scale(0.1 -0.1)">
       <use xlink:href="#DejaVuSans-35"/>
      </g>
     </g>
    </g>
    <g id="xtick_21">
     <g id="line2d_83">
      <path d="M 178.457845 389.08 
L 178.457845 309.186667 
" clip-path="url(#p8a47fb26df)" style="fill: none; stroke: #b0b0b0; stroke-width: 0.8; stroke-linecap: square"/>
     </g>
     <g id="line2d_84">
      <g>
       <use xlink:href="#mab9e1f0622" x="178.457845" y="389.08" style="stroke: #000000; stroke-width: 0.8"/>
      </g>
     </g>
     <g id="text_36">
      <!-- 10 -->
      <g transform="translate(172.095345 403.678437) scale(0.1 -0.1)">
       <use xlink:href="#DejaVuSans-31"/>
       <use xlink:href="#DejaVuSans-30" x="63.623047"/>
      </g>
     </g>
    </g>
    <g id="text_37">
     <!-- time -->
     <g transform="translate(132.644219 417.356562) scale(0.1 -0.1)">
      <use xlink:href="#DejaVuSans-74"/>
      <use xlink:href="#DejaVuSans-69" x="39.208984"/>
      <use xlink:href="#DejaVuSans-6d" x="66.992188"/>
      <use xlink:href="#DejaVuSans-65" x="164.404297"/>
     </g>
    </g>
   </g>
   <g id="matplotlib.axis_14">
    <g id="ytick_16">
     <g id="line2d_85">
      <path d="M 55.345313 372.913373 
L 232.535313 372.913373 
" clip-path="url(#p8a47fb26df)" style="fill: none; stroke: #b0b0b0; stroke-width: 0.8; stroke-linecap: square"/>
     </g>
     <g id="line2d_86">
      <g>
       <use xlink:href="#md041bc6256" x="55.345313" y="372.913373" style="stroke: #000000; stroke-width: 0.8"/>
      </g>
     </g>
     <g id="text_38">
      <!-- −300 -->
      <g transform="translate(20.878125 376.712592) scale(0.1 -0.1)">
       <use xlink:href="#DejaVuSans-2212"/>
       <use xlink:href="#DejaVuSans-33" x="83.789062"/>
       <use xlink:href="#DejaVuSans-30" x="147.412109"/>
       <use xlink:href="#DejaVuSans-30" x="211.035156"/>
      </g>
     </g>
    </g>
    <g id="ytick_17">
     <g id="line2d_87">
      <path d="M 55.345313 328.728981 
L 232.535313 328.728981 
" clip-path="url(#p8a47fb26df)" style="fill: none; stroke: #b0b0b0; stroke-width: 0.8; stroke-linecap: square"/>
     </g>
     <g id="line2d_88">
      <g>
       <use xlink:href="#md041bc6256" x="55.345313" y="328.728981" style="stroke: #000000; stroke-width: 0.8"/>
      </g>
     </g>
     <g id="text_39">
      <!-- −200 -->
      <g transform="translate(20.878125 332.5282) scale(0.1 -0.1)">
       <use xlink:href="#DejaVuSans-2212"/>
       <use xlink:href="#DejaVuSans-32" x="83.789062"/>
       <use xlink:href="#DejaVuSans-30" x="147.412109"/>
       <use xlink:href="#DejaVuSans-30" x="211.035156"/>
      </g>
     </g>
    </g>
    <g id="text_40">
     <!-- $NX$ -->
     <g transform="translate(14.798438 356.333333) rotate(-90) scale(0.1 -0.1)">
      <defs>
       <path id="DejaVuSans-Oblique-4e" d="M 1081 4666 
L 1931 4666 
L 3219 666 
L 4000 4666 
L 4616 4666 
L 3706 0 
L 2853 0 
L 1569 4025 
L 788 0 
L 172 0 
L 1081 4666 
z
" transform="scale(0.015625)"/>
       <path id="DejaVuSans-Oblique-58" d="M 878 4666 
L 1516 4666 
L 2316 2981 
L 3763 4666 
L 4500 4666 
L 2578 2438 
L 3738 0 
L 3103 0 
L 2163 1966 
L 459 0 
L -275 0 
L 1906 2509 
L 878 4666 
z
" transform="scale(0.015625)"/>
      </defs>
      <use xlink:href="#DejaVuSans-Oblique-4e" transform="translate(0 0.09375)"/>
      <use xlink:href="#DejaVuSans-Oblique-58" transform="translate(74.804688 0.09375)"/>
     </g>
    </g>
   </g>
   <g id="line2d_89">
    <path d="M 63.399403 312.818182 
L 74.905248 314.218827 
L 86.411092 322.993847 
L 97.916936 327.350428 
L 109.42278 329.687783 
L 120.928624 331.000059 
L 132.434468 331.755612 
L 143.940313 332.197456 
L 155.446157 332.453725 
L 166.952001 332.608371 
L 178.457845 332.701158 
L 189.963689 332.754179 
L 201.469533 332.785108 
L 212.975377 332.802782 
L 224.481222 332.816037 
" clip-path="url(#p8a47fb26df)" style="fill: none; stroke: #1f77b4; stroke-width: 2; stroke-linecap: square"/>
   </g>
   <g id="line2d_90">
    <path d="M 63.399403 312.818182 
L 74.905248 374.305181 
L 86.411092 385.448485 
L 97.916936 379.275925 
L 109.42278 377.269954 
L 120.928624 375.962096 
L 132.434468 375.431883 
L 143.940313 375.228635 
L 155.446157 375.15794 
L 166.952001 375.135848 
L 178.457845 375.127011 
L 189.963689 375.122593 
L 201.469533 375.122593 
L 212.975377 375.122593 
L 224.481222 375.122593 
" clip-path="url(#p8a47fb26df)" style="fill: none; stroke-dasharray: 6.475,2.8; stroke-dashoffset: 0; stroke: #ffa500; stroke-width: 1.75"/>
   </g>
   <g id="patch_33">
    <path d="M 55.345313 389.08 
L 55.345313 309.186667 
" style="fill: none; stroke: #000000; stroke-width: 0.8; stroke-linejoin: miter; stroke-linecap: square"/>
   </g>
   <g id="patch_34">
    <path d="M 232.535313 389.08 
L 232.535313 309.186667 
" style="fill: none; stroke: #000000; stroke-width: 0.8; stroke-linejoin: miter; stroke-linecap: square"/>
   </g>
   <g id="patch_35">
    <path d="M 55.345313 389.08 
L 232.535313 389.08 
" style="fill: none; stroke: #000000; stroke-width: 0.8; stroke-linejoin: miter; stroke-linecap: square"/>
   </g>
   <g id="patch_36">
    <path d="M 55.345313 309.186667 
L 232.535313 309.186667 
" style="fill: none; stroke: #000000; stroke-width: 0.8; stroke-linejoin: miter; stroke-linecap: square"/>
   </g>
   <g id="text_41">
    <!-- $NX$ -->
    <g transform="translate(135.300313 303.186667) scale(0.12 -0.12)">
     <use xlink:href="#DejaVuSans-Oblique-4e" transform="translate(0 0.09375)"/>
     <use xlink:href="#DejaVuSans-Oblique-58" transform="translate(74.804688 0.09375)"/>
    </g>
   </g>
  </g>
  <g id="axes_8">
   <g id="patch_37">
    <path d="M 291.775312 389.08 
L 468.965312 389.08 
L 468.965312 309.186667 
L 291.775312 309.186667 
L 291.775312 389.08 
z
" style="fill: none"/>
   </g>
   <g id="matplotlib.axis_15">
    <g id="xtick_22">
     <g id="line2d_91">
      <path d="M 299.829403 389.08 
L 299.829403 309.186667 
" clip-path="url(#pa537d5bf97)" style="fill: none; stroke: #b0b0b0; stroke-width: 0.8; stroke-linecap: square"/>
     </g>
     <g id="line2d_92">
      <g>
       <use xlink:href="#mab9e1f0622" x="299.829403" y="389.08" style="stroke: #000000; stroke-width: 0.8"/>
      </g>
     </g>
     <g id="text_42">
      <!-- 0 -->
      <g transform="translate(296.648153 403.678437) scale(0.1 -0.1)">
       <use xlink:href="#DejaVuSans-30"/>
      </g>
     </g>
    </g>
    <g id="xtick_23">
     <g id="line2d_93">
      <path d="M 357.358624 389.08 
L 357.358624 309.186667 
" clip-path="url(#pa537d5bf97)" style="fill: none; stroke: #b0b0b0; stroke-width: 0.8; stroke-linecap: square"/>
     </g>
     <g id="line2d_94">
      <g>
       <use xlink:href="#mab9e1f0622" x="357.358624" y="389.08" style="stroke: #000000; stroke-width: 0.8"/>
      </g>
     </g>
     <g id="text_43">
      <!-- 5 -->
      <g transform="translate(354.177374 403.678437) scale(0.1 -0.1)">
       <use xlink:href="#DejaVuSans-35"/>
      </g>
     </g>
    </g>
    <g id="xtick_24">
     <g id="line2d_95">
      <path d="M 414.887845 389.08 
L 414.887845 309.186667 
" clip-path="url(#pa537d5bf97)" style="fill: none; stroke: #b0b0b0; stroke-width: 0.8; stroke-linecap: square"/>
     </g>
     <g id="line2d_96">
      <g>
       <use xlink:href="#mab9e1f0622" x="414.887845" y="389.08" style="stroke: #000000; stroke-width: 0.8"/>
      </g>
     </g>
     <g id="text_44">
      <!-- 10 -->
      <g transform="translate(408.525345 403.678437) scale(0.1 -0.1)">
       <use xlink:href="#DejaVuSans-31"/>
       <use xlink:href="#DejaVuSans-30" x="63.623047"/>
      </g>
     </g>
    </g>
    <g id="text_45">
     <!-- time -->
     <g transform="translate(369.074219 417.356562) scale(0.1 -0.1)">
      <use xlink:href="#DejaVuSans-74"/>
      <use xlink:href="#DejaVuSans-69" x="39.208984"/>
      <use xlink:href="#DejaVuSans-6d" x="66.992188"/>
      <use xlink:href="#DejaVuSans-65" x="164.404297"/>
     </g>
    </g>
   </g>
   <g id="matplotlib.axis_16">
    <g id="ytick_18">
     <g id="line2d_97">
      <path d="M 291.775312 363.937926 
L 468.965312 363.937926 
" clip-path="url(#pa537d5bf97)" style="fill: none; stroke: #b0b0b0; stroke-width: 0.8; stroke-linecap: square"/>
     </g>
     <g id="line2d_98">
      <g>
       <use xlink:href="#md041bc6256" x="291.775312" y="363.937926" style="stroke: #000000; stroke-width: 0.8"/>
      </g>
     </g>
     <g id="text_46">
      <!-- 20 -->
      <g transform="translate(272.050312 367.737145) scale(0.1 -0.1)">
       <use xlink:href="#DejaVuSans-32"/>
       <use xlink:href="#DejaVuSans-30" x="63.623047"/>
      </g>
     </g>
    </g>
    <g id="ytick_19">
     <g id="line2d_99">
      <path d="M 291.775312 333.662685 
L 468.965312 333.662685 
" clip-path="url(#pa537d5bf97)" style="fill: none; stroke: #b0b0b0; stroke-width: 0.8; stroke-linecap: square"/>
     </g>
     <g id="line2d_100">
      <g>
       <use xlink:href="#md041bc6256" x="291.775312" y="333.662685" style="stroke: #000000; stroke-width: 0.8"/>
      </g>
     </g>
     <g id="text_47">
      <!-- 40 -->
      <g transform="translate(272.050312 337.461904) scale(0.1 -0.1)">
       <use xlink:href="#DejaVuSans-34"/>
       <use xlink:href="#DejaVuSans-30" x="63.623047"/>
      </g>
     </g>
    </g>
    <g id="text_48">
     <!-- $E$ -->
     <g transform="translate(265.970625 352.333333) rotate(-90) scale(0.1 -0.1)">
      <defs>
       <path id="DejaVuSans-Oblique-45" d="M 1081 4666 
L 4031 4666 
L 3928 4134 
L 1606 4134 
L 1338 2753 
L 3566 2753 
L 3463 2222 
L 1234 2222 
L 909 531 
L 3284 531 
L 3181 0 
L 172 0 
L 1081 4666 
z
" transform="scale(0.015625)"/>
      </defs>
      <use xlink:href="#DejaVuSans-Oblique-45" transform="translate(0 0.09375)"/>
     </g>
    </g>
   </g>
   <g id="line2d_101">
    <path d="M 299.829403 384.26775 
L 311.335248 384.101237 
L 322.841092 384.676466 
L 334.346936 385.009494 
L 345.85278 385.206283 
L 357.358624 385.312246 
L 368.864468 385.372797 
L 380.370313 385.403072 
L 391.876157 385.41821 
L 403.382001 385.433347 
L 414.887845 385.448485 
L 426.393689 385.448485 
L 437.899533 385.448485 
L 449.405377 385.448485 
L 460.911222 385.448485 
" clip-path="url(#pa537d5bf97)" style="fill: none; stroke: #1f77b4; stroke-width: 2; stroke-linecap: square"/>
   </g>
   <g id="line2d_102">
    <path d="M 299.829403 384.26775 
L 311.335248 367.071414 
L 322.841092 349.859939 
L 334.346936 331.08929 
L 345.85278 320.265891 
L 357.358624 315.527816 
L 368.864468 313.756714 
L 380.370313 313.136072 
L 391.876157 312.924145 
L 403.382001 312.848457 
L 414.887845 312.818182 
L 426.393689 312.818182 
L 437.899533 312.818182 
L 449.405377 312.818182 
L 460.911222 312.818182 
" clip-path="url(#pa537d5bf97)" style="fill: none; stroke-dasharray: 6.475,2.8; stroke-dashoffset: 0; stroke: #ffa500; stroke-width: 1.75"/>
   </g>
   <g id="patch_38">
    <path d="M 291.775312 389.08 
L 291.775312 309.186667 
" style="fill: none; stroke: #000000; stroke-width: 0.8; stroke-linejoin: miter; stroke-linecap: square"/>
   </g>
   <g id="patch_39">
    <path d="M 468.965312 389.08 
L 468.965312 309.186667 
" style="fill: none; stroke: #000000; stroke-width: 0.8; stroke-linejoin: miter; stroke-linecap: square"/>
   </g>
   <g id="patch_40">
    <path d="M 291.775312 389.08 
L 468.965312 389.08 
" style="fill: none; stroke: #000000; stroke-width: 0.8; stroke-linejoin: miter; stroke-linecap: square"/>
   </g>
   <g id="patch_41">
    <path d="M 291.775312 309.186667 
L 468.965312 309.186667 
" style="fill: none; stroke: #000000; stroke-width: 0.8; stroke-linejoin: miter; stroke-linecap: square"/>
   </g>
   <g id="text_49">
    <!-- $E$ -->
    <g transform="translate(376.530312 303.186667) scale(0.12 -0.12)">
     <use xlink:href="#DejaVuSans-Oblique-45" transform="translate(0 0.09375)"/>
    </g>
   </g>
  </g>
  <g id="axes_9">
   <g id="patch_42">
    <path d="M 528.205312 389.08 
L 705.395313 389.08 
L 705.395313 309.186667 
L 528.205312 309.186667 
L 528.205312 389.08 
z
" style="fill: none"/>
   </g>
   <g id="matplotlib.axis_17">
    <g id="xtick_25">
     <g id="line2d_103">
      <path d="M 536.259403 389.08 
L 536.259403 309.186667 
" clip-path="url(#pbf3dc16e5f)" style="fill: none; stroke: #b0b0b0; stroke-width: 0.8; stroke-linecap: square"/>
     </g>
     <g id="line2d_104">
      <g>
       <use xlink:href="#mab9e1f0622" x="536.259403" y="389.08" style="stroke: #000000; stroke-width: 0.8"/>
      </g>
     </g>
     <g id="text_50">
      <!-- 0 -->
      <g transform="translate(533.078153 403.678437) scale(0.1 -0.1)">
       <use xlink:href="#DejaVuSans-30"/>
      </g>
     </g>
    </g>
    <g id="xtick_26">
     <g id="line2d_105">
      <path d="M 593.788624 389.08 
L 593.788624 309.186667 
" clip-path="url(#pbf3dc16e5f)" style="fill: none; stroke: #b0b0b0; stroke-width: 0.8; stroke-linecap: square"/>
     </g>
     <g id="line2d_106">
      <g>
       <use xlink:href="#mab9e1f0622" x="593.788624" y="389.08" style="stroke: #000000; stroke-width: 0.8"/>
      </g>
     </g>
     <g id="text_51">
      <!-- 5 -->
      <g transform="translate(590.607374 403.678437) scale(0.1 -0.1)">
       <use xlink:href="#DejaVuSans-35"/>
      </g>
     </g>
    </g>
    <g id="xtick_27">
     <g id="line2d_107">
      <path d="M 651.317845 389.08 
L 651.317845 309.186667 
" clip-path="url(#pbf3dc16e5f)" style="fill: none; stroke: #b0b0b0; stroke-width: 0.8; stroke-linecap: square"/>
     </g>
     <g id="line2d_108">
      <g>
       <use xlink:href="#mab9e1f0622" x="651.317845" y="389.08" style="stroke: #000000; stroke-width: 0.8"/>
      </g>
     </g>
     <g id="text_52">
      <!-- 10 -->
      <g transform="translate(644.955345 403.678437) scale(0.1 -0.1)">
       <use xlink:href="#DejaVuSans-31"/>
       <use xlink:href="#DejaVuSans-30" x="63.623047"/>
      </g>
     </g>
    </g>
    <g id="text_53">
     <!-- time -->
     <g transform="translate(605.504219 417.356562) scale(0.1 -0.1)">
      <use xlink:href="#DejaVuSans-74"/>
      <use xlink:href="#DejaVuSans-69" x="39.208984"/>
      <use xlink:href="#DejaVuSans-6d" x="66.992188"/>
      <use xlink:href="#DejaVuSans-65" x="164.404297"/>
     </g>
    </g>
   </g>
   <g id="matplotlib.axis_18">
    <g id="ytick_20">
     <g id="line2d_109">
      <path d="M 528.205312 387.865523 
L 705.395313 387.865523 
" clip-path="url(#pbf3dc16e5f)" style="fill: none; stroke: #b0b0b0; stroke-width: 0.8; stroke-linecap: square"/>
     </g>
     <g id="line2d_110">
      <g>
       <use xlink:href="#md041bc6256" x="528.205312" y="387.865523" style="stroke: #000000; stroke-width: 0.8"/>
      </g>
     </g>
     <g id="text_54">
      <!-- 20 -->
      <g transform="translate(508.480312 391.664742) scale(0.1 -0.1)">
       <use xlink:href="#DejaVuSans-32"/>
       <use xlink:href="#DejaVuSans-30" x="63.623047"/>
      </g>
     </g>
    </g>
    <g id="ytick_21">
     <g id="line2d_111">
      <path d="M 528.205312 353.822728 
L 705.395313 353.822728 
" clip-path="url(#pbf3dc16e5f)" style="fill: none; stroke: #b0b0b0; stroke-width: 0.8; stroke-linecap: square"/>
     </g>
     <g id="line2d_112">
      <g>
       <use xlink:href="#md041bc6256" x="528.205312" y="353.822728" style="stroke: #000000; stroke-width: 0.8"/>
      </g>
     </g>
     <g id="text_55">
      <!-- 40 -->
      <g transform="translate(508.480312 357.621947) scale(0.1 -0.1)">
       <use xlink:href="#DejaVuSans-34"/>
       <use xlink:href="#DejaVuSans-30" x="63.623047"/>
      </g>
     </g>
    </g>
    <g id="ytick_22">
     <g id="line2d_113">
      <path d="M 528.205312 319.779933 
L 705.395313 319.779933 
" clip-path="url(#pbf3dc16e5f)" style="fill: none; stroke: #b0b0b0; stroke-width: 0.8; stroke-linecap: square"/>
     </g>
     <g id="line2d_114">
      <g>
       <use xlink:href="#md041bc6256" x="528.205312" y="319.779933" style="stroke: #000000; stroke-width: 0.8"/>
      </g>
     </g>
     <g id="text_56">
      <!-- 60 -->
      <g transform="translate(508.480312 323.579152) scale(0.1 -0.1)">
       <use xlink:href="#DejaVuSans-36"/>
       <use xlink:href="#DejaVuSans-30" x="63.623047"/>
      </g>
     </g>
    </g>
    <g id="text_57">
     <!-- $\epsilon$ -->
     <g transform="translate(502.400625 351.883333) rotate(-90) scale(0.1 -0.1)">
      <defs>
       <path id="DejaVuSans-Oblique-3b5" d="M 1263 1888 
Q 925 1963 778 2166 
Q 669 2309 669 2503 
Q 669 3034 1175 3344 
Q 1575 3588 2188 3588 
Q 2425 3588 2684 3550 
Q 2944 3513 3234 3438 
L 3134 2916 
Q 2847 3006 2606 3047 
Q 2359 3088 2138 3088 
Q 1766 3088 1522 2944 
Q 1228 2772 1228 2522 
Q 1228 2356 1381 2241 
Q 1563 2103 1925 2103 
L 2409 2103 
L 2319 1628 
L 1856 1628 
Q 1425 1628 1172 1469 
Q 828 1253 828 916 
Q 828 703 1013 563 
Q 1244 388 1716 388 
Q 2006 388 2284 444 
Q 2563 503 2806 619 
L 2700 84 
Q 2403 -3 2131 -47 
Q 1859 -91 1609 -91 
Q 866 -91 516 194 
Q 250 413 250 781 
Q 250 1278 600 1584 
Q 859 1813 1263 1888 
z
" transform="scale(0.015625)"/>
      </defs>
      <use xlink:href="#DejaVuSans-Oblique-3b5" transform="translate(0 0.9375)"/>
     </g>
    </g>
   </g>
   <g id="line2d_115">
    <path d="M 536.259403 385.448485 
L 547.765248 384.801672 
L 559.271092 374.605855 
L 570.776936 369.686671 
L 582.28278 367.082397 
L 593.788624 365.618557 
L 605.294468 364.784508 
L 616.800313 364.307909 
L 628.306157 364.018545 
L 639.812001 363.848331 
L 651.317845 363.746203 
L 662.823689 363.678117 
L 674.329533 363.644075 
L 685.835377 363.627053 
L 697.341222 363.610032 
" clip-path="url(#pbf3dc16e5f)" style="fill: none; stroke: #1f77b4; stroke-width: 2; stroke-linecap: square"/>
   </g>
   <g id="line2d_116">
    <path d="M 536.259403 385.448485 
L 547.765248 322.367186 
L 559.271092 312.818182 
L 570.776936 322.741657 
L 582.28278 326.997006 
L 593.788624 329.465109 
L 605.294468 330.45235 
L 616.800313 330.809799 
L 628.306157 330.94597 
L 639.812001 330.997034 
L 651.317845 331.014056 
L 662.823689 331.014056 
L 674.329533 331.014056 
L 685.835377 331.014056 
L 697.341222 331.014056 
" clip-path="url(#pbf3dc16e5f)" style="fill: none; stroke-dasharray: 6.475,2.8; stroke-dashoffset: 0; stroke: #ffa500; stroke-width: 1.75"/>
   </g>
   <g id="patch_43">
    <path d="M 528.205312 389.08 
L 528.205312 309.186667 
" style="fill: none; stroke: #000000; stroke-width: 0.8; stroke-linejoin: miter; stroke-linecap: square"/>
   </g>
   <g id="patch_44">
    <path d="M 705.395313 389.08 
L 705.395313 309.186667 
" style="fill: none; stroke: #000000; stroke-width: 0.8; stroke-linejoin: miter; stroke-linecap: square"/>
   </g>
   <g id="patch_45">
    <path d="M 528.205312 389.08 
L 705.395313 389.08 
" style="fill: none; stroke: #000000; stroke-width: 0.8; stroke-linejoin: miter; stroke-linecap: square"/>
   </g>
   <g id="patch_46">
    <path d="M 528.205312 309.186667 
L 705.395313 309.186667 
" style="fill: none; stroke: #000000; stroke-width: 0.8; stroke-linejoin: miter; stroke-linecap: square"/>
   </g>
   <g id="text_58">
    <!-- $\epsilon$ -->
    <g transform="translate(613.500313 303.186667) scale(0.12 -0.12)">
     <use xlink:href="#DejaVuSans-Oblique-3b5" transform="translate(0 0.9375)"/>
    </g>
   </g>
  </g>
  <g id="legend_1">
   <g id="patch_47">
    <path d="M 465.91875 39.55625 
L 700.995312 39.55625 
Q 702.995312 39.55625 702.995312 37.55625 
L 702.995312 9.2 
Q 702.995312 7.2 700.995312 7.2 
L 465.91875 7.2 
Q 463.91875 7.2 463.91875 9.2 
L 463.91875 37.55625 
Q 463.91875 39.55625 465.91875 39.55625 
z
" style="fill: #ffffff; opacity: 0.8; stroke: #cccccc; stroke-linejoin: miter"/>
   </g>
   <g id="line2d_117">
    <path d="M 467.91875 15.298437 
L 477.91875 15.298437 
L 487.91875 15.298437 
" style="fill: none; stroke: #1f77b4; stroke-width: 2; stroke-linecap: square"/>
   </g>
   <g id="text_59">
    <!-- Adaptive price expectations -->
    <g transform="translate(495.91875 18.798437) scale(0.1 -0.1)">
     <defs>
      <path id="DejaVuSans-41" d="M 2188 4044 
L 1331 1722 
L 3047 1722 
L 2188 4044 
z
M 1831 4666 
L 2547 4666 
L 4325 0 
L 3669 0 
L 3244 1197 
L 1141 1197 
L 716 0 
L 50 0 
L 1831 4666 
z
" transform="scale(0.015625)"/>
      <path id="DejaVuSans-64" d="M 2906 2969 
L 2906 4863 
L 3481 4863 
L 3481 0 
L 2906 0 
L 2906 525 
Q 2725 213 2448 61 
Q 2172 -91 1784 -91 
Q 1150 -91 751 415 
Q 353 922 353 1747 
Q 353 2572 751 3078 
Q 1150 3584 1784 3584 
Q 2172 3584 2448 3432 
Q 2725 3281 2906 2969 
z
M 947 1747 
Q 947 1113 1208 752 
Q 1469 391 1925 391 
Q 2381 391 2643 752 
Q 2906 1113 2906 1747 
Q 2906 2381 2643 2742 
Q 2381 3103 1925 3103 
Q 1469 3103 1208 2742 
Q 947 2381 947 1747 
z
" transform="scale(0.015625)"/>
      <path id="DejaVuSans-61" d="M 2194 1759 
Q 1497 1759 1228 1600 
Q 959 1441 959 1056 
Q 959 750 1161 570 
Q 1363 391 1709 391 
Q 2188 391 2477 730 
Q 2766 1069 2766 1631 
L 2766 1759 
L 2194 1759 
z
M 3341 1997 
L 3341 0 
L 2766 0 
L 2766 531 
Q 2569 213 2275 61 
Q 1981 -91 1556 -91 
Q 1019 -91 701 211 
Q 384 513 384 1019 
Q 384 1609 779 1909 
Q 1175 2209 1959 2209 
L 2766 2209 
L 2766 2266 
Q 2766 2663 2505 2880 
Q 2244 3097 1772 3097 
Q 1472 3097 1187 3025 
Q 903 2953 641 2809 
L 641 3341 
Q 956 3463 1253 3523 
Q 1550 3584 1831 3584 
Q 2591 3584 2966 3190 
Q 3341 2797 3341 1997 
z
" transform="scale(0.015625)"/>
      <path id="DejaVuSans-70" d="M 1159 525 
L 1159 -1331 
L 581 -1331 
L 581 3500 
L 1159 3500 
L 1159 2969 
Q 1341 3281 1617 3432 
Q 1894 3584 2278 3584 
Q 2916 3584 3314 3078 
Q 3713 2572 3713 1747 
Q 3713 922 3314 415 
Q 2916 -91 2278 -91 
Q 1894 -91 1617 61 
Q 1341 213 1159 525 
z
M 3116 1747 
Q 3116 2381 2855 2742 
Q 2594 3103 2138 3103 
Q 1681 3103 1420 2742 
Q 1159 2381 1159 1747 
Q 1159 1113 1420 752 
Q 1681 391 2138 391 
Q 2594 391 2855 752 
Q 3116 1113 3116 1747 
z
" transform="scale(0.015625)"/>
      <path id="DejaVuSans-76" d="M 191 3500 
L 800 3500 
L 1894 563 
L 2988 3500 
L 3597 3500 
L 2284 0 
L 1503 0 
L 191 3500 
z
" transform="scale(0.015625)"/>
      <path id="DejaVuSans-20" transform="scale(0.015625)"/>
      <path id="DejaVuSans-72" d="M 2631 2963 
Q 2534 3019 2420 3045 
Q 2306 3072 2169 3072 
Q 1681 3072 1420 2755 
Q 1159 2438 1159 1844 
L 1159 0 
L 581 0 
L 581 3500 
L 1159 3500 
L 1159 2956 
Q 1341 3275 1631 3429 
Q 1922 3584 2338 3584 
Q 2397 3584 2469 3576 
Q 2541 3569 2628 3553 
L 2631 2963 
z
" transform="scale(0.015625)"/>
      <path id="DejaVuSans-63" d="M 3122 3366 
L 3122 2828 
Q 2878 2963 2633 3030 
Q 2388 3097 2138 3097 
Q 1578 3097 1268 2742 
Q 959 2388 959 1747 
Q 959 1106 1268 751 
Q 1578 397 2138 397 
Q 2388 397 2633 464 
Q 2878 531 3122 666 
L 3122 134 
Q 2881 22 2623 -34 
Q 2366 -91 2075 -91 
Q 1284 -91 818 406 
Q 353 903 353 1747 
Q 353 2603 823 3093 
Q 1294 3584 2113 3584 
Q 2378 3584 2631 3529 
Q 2884 3475 3122 3366 
z
" transform="scale(0.015625)"/>
      <path id="DejaVuSans-78" d="M 3513 3500 
L 2247 1797 
L 3578 0 
L 2900 0 
L 1881 1375 
L 863 0 
L 184 0 
L 1544 1831 
L 300 3500 
L 978 3500 
L 1906 2253 
L 2834 3500 
L 3513 3500 
z
" transform="scale(0.015625)"/>
      <path id="DejaVuSans-6f" d="M 1959 3097 
Q 1497 3097 1228 2736 
Q 959 2375 959 1747 
Q 959 1119 1226 758 
Q 1494 397 1959 397 
Q 2419 397 2687 759 
Q 2956 1122 2956 1747 
Q 2956 2369 2687 2733 
Q 2419 3097 1959 3097 
z
M 1959 3584 
Q 2709 3584 3137 3096 
Q 3566 2609 3566 1747 
Q 3566 888 3137 398 
Q 2709 -91 1959 -91 
Q 1206 -91 779 398 
Q 353 888 353 1747 
Q 353 2609 779 3096 
Q 1206 3584 1959 3584 
z
" transform="scale(0.015625)"/>
      <path id="DejaVuSans-6e" d="M 3513 2113 
L 3513 0 
L 2938 0 
L 2938 2094 
Q 2938 2591 2744 2837 
Q 2550 3084 2163 3084 
Q 1697 3084 1428 2787 
Q 1159 2491 1159 1978 
L 1159 0 
L 581 0 
L 581 3500 
L 1159 3500 
L 1159 2956 
Q 1366 3272 1645 3428 
Q 1925 3584 2291 3584 
Q 2894 3584 3203 3211 
Q 3513 2838 3513 2113 
z
" transform="scale(0.015625)"/>
      <path id="DejaVuSans-73" d="M 2834 3397 
L 2834 2853 
Q 2591 2978 2328 3040 
Q 2066 3103 1784 3103 
Q 1356 3103 1142 2972 
Q 928 2841 928 2578 
Q 928 2378 1081 2264 
Q 1234 2150 1697 2047 
L 1894 2003 
Q 2506 1872 2764 1633 
Q 3022 1394 3022 966 
Q 3022 478 2636 193 
Q 2250 -91 1575 -91 
Q 1294 -91 989 -36 
Q 684 19 347 128 
L 347 722 
Q 666 556 975 473 
Q 1284 391 1588 391 
Q 1994 391 2212 530 
Q 2431 669 2431 922 
Q 2431 1156 2273 1281 
Q 2116 1406 1581 1522 
L 1381 1569 
Q 847 1681 609 1914 
Q 372 2147 372 2553 
Q 372 3047 722 3315 
Q 1072 3584 1716 3584 
Q 2034 3584 2315 3537 
Q 2597 3491 2834 3397 
z
" transform="scale(0.015625)"/>
     </defs>
     <use xlink:href="#DejaVuSans-41"/>
     <use xlink:href="#DejaVuSans-64" x="66.658203"/>
     <use xlink:href="#DejaVuSans-61" x="130.134766"/>
     <use xlink:href="#DejaVuSans-70" x="191.414062"/>
     <use xlink:href="#DejaVuSans-74" x="254.890625"/>
     <use xlink:href="#DejaVuSans-69" x="294.099609"/>
     <use xlink:href="#DejaVuSans-76" x="321.882812"/>
     <use xlink:href="#DejaVuSans-65" x="381.0625"/>
     <use xlink:href="#DejaVuSans-20" x="442.585938"/>
     <use xlink:href="#DejaVuSans-70" x="474.373047"/>
     <use xlink:href="#DejaVuSans-72" x="537.849609"/>
     <use xlink:href="#DejaVuSans-69" x="578.962891"/>
     <use xlink:href="#DejaVuSans-63" x="606.746094"/>
     <use xlink:href="#DejaVuSans-65" x="661.726562"/>
     <use xlink:href="#DejaVuSans-20" x="723.25"/>
     <use xlink:href="#DejaVuSans-65" x="755.037109"/>
     <use xlink:href="#DejaVuSans-78" x="814.810547"/>
     <use xlink:href="#DejaVuSans-70" x="873.990234"/>
     <use xlink:href="#DejaVuSans-65" x="937.466797"/>
     <use xlink:href="#DejaVuSans-63" x="998.990234"/>
     <use xlink:href="#DejaVuSans-74" x="1053.970703"/>
     <use xlink:href="#DejaVuSans-61" x="1093.179688"/>
     <use xlink:href="#DejaVuSans-74" x="1154.458984"/>
     <use xlink:href="#DejaVuSans-69" x="1193.667969"/>
     <use xlink:href="#DejaVuSans-6f" x="1221.451172"/>
     <use xlink:href="#DejaVuSans-6e" x="1282.632812"/>
     <use xlink:href="#DejaVuSans-73" x="1346.011719"/>
    </g>
   </g>
   <g id="line2d_118">
    <path d="M 467.91875 29.976562 
L 477.91875 29.976562 
L 487.91875 29.976562 
" style="fill: none; stroke-dasharray: 6.475,2.8; stroke-dashoffset: 0; stroke: #ffa500; stroke-width: 1.75"/>
   </g>
   <g id="text_60">
    <!-- Adaptive price + exchange expectations -->
    <g transform="translate(495.91875 33.476562) scale(0.1 -0.1)">
     <defs>
      <path id="DejaVuSans-2b" d="M 2944 4013 
L 2944 2272 
L 4684 2272 
L 4684 1741 
L 2944 1741 
L 2944 0 
L 2419 0 
L 2419 1741 
L 678 1741 
L 678 2272 
L 2419 2272 
L 2419 4013 
L 2944 4013 
z
" transform="scale(0.015625)"/>
      <path id="DejaVuSans-68" d="M 3513 2113 
L 3513 0 
L 2938 0 
L 2938 2094 
Q 2938 2591 2744 2837 
Q 2550 3084 2163 3084 
Q 1697 3084 1428 2787 
Q 1159 2491 1159 1978 
L 1159 0 
L 581 0 
L 581 4863 
L 1159 4863 
L 1159 2956 
Q 1366 3272 1645 3428 
Q 1925 3584 2291 3584 
Q 2894 3584 3203 3211 
Q 3513 2838 3513 2113 
z
" transform="scale(0.015625)"/>
      <path id="DejaVuSans-67" d="M 2906 1791 
Q 2906 2416 2648 2759 
Q 2391 3103 1925 3103 
Q 1463 3103 1205 2759 
Q 947 2416 947 1791 
Q 947 1169 1205 825 
Q 1463 481 1925 481 
Q 2391 481 2648 825 
Q 2906 1169 2906 1791 
z
M 3481 434 
Q 3481 -459 3084 -895 
Q 2688 -1331 1869 -1331 
Q 1566 -1331 1297 -1286 
Q 1028 -1241 775 -1147 
L 775 -588 
Q 1028 -725 1275 -790 
Q 1522 -856 1778 -856 
Q 2344 -856 2625 -561 
Q 2906 -266 2906 331 
L 2906 616 
Q 2728 306 2450 153 
Q 2172 0 1784 0 
Q 1141 0 747 490 
Q 353 981 353 1791 
Q 353 2603 747 3093 
Q 1141 3584 1784 3584 
Q 2172 3584 2450 3431 
Q 2728 3278 2906 2969 
L 2906 3500 
L 3481 3500 
L 3481 434 
z
" transform="scale(0.015625)"/>
     </defs>
     <use xlink:href="#DejaVuSans-41"/>
     <use xlink:href="#DejaVuSans-64" x="66.658203"/>
     <use xlink:href="#DejaVuSans-61" x="130.134766"/>
     <use xlink:href="#DejaVuSans-70" x="191.414062"/>
     <use xlink:href="#DejaVuSans-74" x="254.890625"/>
     <use xlink:href="#DejaVuSans-69" x="294.099609"/>
     <use xlink:href="#DejaVuSans-76" x="321.882812"/>
     <use xlink:href="#DejaVuSans-65" x="381.0625"/>
     <use xlink:href="#DejaVuSans-20" x="442.585938"/>
     <use xlink:href="#DejaVuSans-70" x="474.373047"/>
     <use xlink:href="#DejaVuSans-72" x="537.849609"/>
     <use xlink:href="#DejaVuSans-69" x="578.962891"/>
     <use xlink:href="#DejaVuSans-63" x="606.746094"/>
     <use xlink:href="#DejaVuSans-65" x="661.726562"/>
     <use xlink:href="#DejaVuSans-20" x="723.25"/>
     <use xlink:href="#DejaVuSans-2b" x="755.037109"/>
     <use xlink:href="#DejaVuSans-20" x="838.826172"/>
     <use xlink:href="#DejaVuSans-65" x="870.613281"/>
     <use xlink:href="#DejaVuSans-78" x="930.386719"/>
     <use xlink:href="#DejaVuSans-63" x="987.816406"/>
     <use xlink:href="#DejaVuSans-68" x="1042.796875"/>
     <use xlink:href="#DejaVuSans-61" x="1106.175781"/>
     <use xlink:href="#DejaVuSans-6e" x="1167.455078"/>
     <use xlink:href="#DejaVuSans-67" x="1230.833984"/>
     <use xlink:href="#DejaVuSans-65" x="1294.310547"/>
     <use xlink:href="#DejaVuSans-20" x="1355.833984"/>
     <use xlink:href="#DejaVuSans-65" x="1387.621094"/>
     <use xlink:href="#DejaVuSans-78" x="1447.394531"/>
     <use xlink:href="#DejaVuSans-70" x="1506.574219"/>
     <use xlink:href="#DejaVuSans-65" x="1570.050781"/>
     <use xlink:href="#DejaVuSans-63" x="1631.574219"/>
     <use xlink:href="#DejaVuSans-74" x="1686.554688"/>
     <use xlink:href="#DejaVuSans-61" x="1725.763672"/>
     <use xlink:href="#DejaVuSans-74" x="1787.042969"/>
     <use xlink:href="#DejaVuSans-69" x="1826.251953"/>
     <use xlink:href="#DejaVuSans-6f" x="1854.035156"/>
     <use xlink:href="#DejaVuSans-6e" x="1915.216797"/>
     <use xlink:href="#DejaVuSans-73" x="1978.595703"/>
    </g>
   </g>
  </g>
 </g>
 <defs>
  <clipPath id="p1971d6f836">
   <rect x="55.345313" y="60.48" width="177.19" height="79.893333"/>
  </clipPath>
  <clipPath id="pc60de57c8a">
   <rect x="291.775312" y="60.48" width="177.19" height="79.893333"/>
  </clipPath>
  <clipPath id="p266a128aa3">
   <rect x="528.205312" y="60.48" width="177.19" height="79.893333"/>
  </clipPath>
  <clipPath id="pffe5461725">
   <rect x="55.345313" y="184.833333" width="177.19" height="79.893333"/>
  </clipPath>
  <clipPath id="p7618db26ca">
   <rect x="291.775312" y="184.833333" width="177.19" height="79.893333"/>
  </clipPath>
  <clipPath id="p83b0c41cb3">
   <rect x="528.205312" y="184.833333" width="177.19" height="79.893333"/>
  </clipPath>
  <clipPath id="p8a47fb26df">
   <rect x="55.345313" y="309.186667" width="177.19" height="79.893333"/>
  </clipPath>
  <clipPath id="pa537d5bf97">
   <rect x="291.775312" y="309.186667" width="177.19" height="79.893333"/>
  </clipPath>
  <clipPath id="pbf3dc16e5f">
   <rect x="528.205312" y="309.186667" width="177.19" height="79.893333"/>
  </clipPath>
 </defs>
</svg>
