<?xml version="1.0" encoding="utf-8" standalone="no"?>
<!DOCTYPE svg PUBLIC "-//W3C//DTD SVG 1.1//EN"
  "http://www.w3.org/Graphics/SVG/1.1/DTD/svg11.dtd">
<svg height="576pt" version="1.1" viewBox="0 0 864 576" width="864pt" xmlns="http://www.w3.org/2000/svg" xmlns:xlink="http://www.w3.org/1999/xlink">
 <metadata>
  <rdf:RDF xmlns:cc="http://creativecommons.org/ns#" xmlns:dc="http://purl.org/dc/elements/1.1/" xmlns:rdf="http://www.w3.org/1999/02/22-rdf-syntax-ns#">
   <cc:Work>
    <dc:type rdf:resource="http://purl.org/dc/dcmitype/StillImage"/>
    <dc:date>2022-04-25T23:18:07.213289</dc:date>
    <dc:format>image/svg+xml</dc:format>
    <dc:creator>
     <cc:Agent>
      <dc:title>Matplotlib v3.4.3, https://matplotlib.org/</dc:title>
     </cc:Agent>
    </dc:creator>
   </cc:Work>
  </rdf:RDF>
 </metadata>
 <defs>
  <style type="text/css">*{stroke-linecap:butt;stroke-linejoin:round;}</style>
 </defs>
 <g id="figure_1">
  <g id="patch_1">
   <path d="M 0 576 
L 864 576 
L 864 0 
L 0 0 
z
" style="fill:none;"/>
  </g>
  <g id="axes_1">
   <g id="LineCollection_1">
    <path clip-path="url(#pcc0063b383)" d="M 75.039367 299.383419 
L 75.039367 299.383419 
" style="fill:none;stroke:#4c4c4c;"/>
    <path clip-path="url(#pcc0063b383)" d="M 75.039367 299.383419 
L 75.039367 299.383419 
" style="fill:none;stroke:#4c4c4c;"/>
    <path clip-path="url(#pcc0063b383)" d="M 75.039367 299.383419 
L 86.298352 356.114111 
" style="fill:none;stroke:#4c4c4c;"/>
    <path clip-path="url(#pcc0063b383)" d="M 75.039367 299.383419 
L 119.367794 409.280151 
" style="fill:none;stroke:#4c4c4c;"/>
    <path clip-path="url(#pcc0063b383)" d="M 75.039367 299.383419 
L 723.343334 433.467798 
" style="fill:none;stroke:#4c4c4c;"/>
    <path clip-path="url(#pcc0063b383)" d="M 75.039367 299.383419 
L 119.367815 189.486614 
" style="fill:none;stroke:#4c4c4c;"/>
    <path clip-path="url(#pcc0063b383)" d="M 86.298352 356.114111 
L 86.298352 356.114111 
" style="fill:none;stroke:#4c4c4c;"/>
    <path clip-path="url(#pcc0063b383)" d="M 86.298352 356.114111 
L 788.960633 270.792675 
" style="fill:none;stroke:#4c4c4c;"/>
    <path clip-path="url(#pcc0063b383)" d="M 86.298352 356.114111 
L 766.620279 215.407546 
" style="fill:none;stroke:#4c4c4c;"/>
    <path clip-path="url(#pcc0063b383)" d="M 86.298352 356.114111 
L 766.620279 215.407546 
" style="fill:none;stroke:#4c4c4c;"/>
    <path clip-path="url(#pcc0063b383)" d="M 86.298352 356.114111 
L 586.001043 505.790836 
" style="fill:none;stroke:#4c4c4c;"/>
    <path clip-path="url(#pcc0063b383)" d="M 86.298352 356.114111 
L 586.001043 505.790836 
" style="fill:none;stroke:#4c4c4c;"/>
    <path clip-path="url(#pcc0063b383)" d="M 119.367794 409.280151 
L 172.169893 455.541018 
" style="fill:none;stroke:#4c4c4c;"/>
    <path clip-path="url(#pcc0063b383)" d="M 119.367794 409.280151 
L 172.169893 455.541018 
" style="fill:none;stroke:#4c4c4c;"/>
    <path clip-path="url(#pcc0063b383)" d="M 119.367794 409.280151 
L 241.386859 491.989928 
" style="fill:none;stroke:#4c4c4c;"/>
    <path clip-path="url(#pcc0063b383)" d="M 119.367794 409.280151 
L 241.386859 491.989928 
" style="fill:none;stroke:#4c4c4c;"/>
    <path clip-path="url(#pcc0063b383)" d="M 119.367794 409.280151 
L 119.367794 409.280151 
" style="fill:none;stroke:#4c4c4c;"/>
    <path clip-path="url(#pcc0063b383)" d="M 119.367794 409.280151 
L 322.669368 516.336619 
" style="fill:none;stroke:#4c4c4c;"/>
    <path clip-path="url(#pcc0063b383)" d="M 172.169893 455.541018 
L 661.848828 123.615352 
" style="fill:none;stroke:#4c4c4c;"/>
    <path clip-path="url(#pcc0063b383)" d="M 172.169893 455.541018 
L 661.848828 123.615352 
" style="fill:none;stroke:#4c4c4c;"/>
    <path clip-path="url(#pcc0063b383)" d="M 172.169893 455.541018 
L 788.960633 270.792675 
" style="fill:none;stroke:#4c4c4c;"/>
    <path clip-path="url(#pcc0063b383)" d="M 172.169893 455.541018 
L 172.169893 455.541018 
" style="fill:none;stroke:#4c4c4c;"/>
    <path clip-path="url(#pcc0063b383)" d="M 172.169893 455.541018 
L 241.38688 106.776856 
" style="fill:none;stroke:#4c4c4c;"/>
    <path clip-path="url(#pcc0063b383)" d="M 241.386859 491.989928 
L 723.343249 165.298933 
" style="fill:none;stroke:#4c4c4c;"/>
    <path clip-path="url(#pcc0063b383)" d="M 241.386859 491.989928 
L 723.343249 165.298933 
" style="fill:none;stroke:#4c4c4c;"/>
    <path clip-path="url(#pcc0063b383)" d="M 241.386859 491.989928 
L 410.910346 71.715415 
" style="fill:none;stroke:#4c4c4c;"/>
    <path clip-path="url(#pcc0063b383)" d="M 241.386859 491.989928 
L 86.29833 242.652711 
" style="fill:none;stroke:#4c4c4c;"/>
    <path clip-path="url(#pcc0063b383)" d="M 241.386859 491.989928 
L 500.565357 75.305867 
" style="fill:none;stroke:#4c4c4c;"/>
    <path clip-path="url(#pcc0063b383)" d="M 241.386859 491.989928 
L 766.620257 383.359273 
" style="fill:none;stroke:#4c4c4c;"/>
    <path clip-path="url(#pcc0063b383)" d="M 322.669368 516.336619 
L 410.910472 527.051383 
" style="fill:none;stroke:#4c4c4c;"/>
    <path clip-path="url(#pcc0063b383)" d="M 322.669368 516.336619 
L 322.669368 516.336619 
" style="fill:none;stroke:#4c4c4c;"/>
    <path clip-path="url(#pcc0063b383)" d="M 322.669368 516.336619 
L 322.669368 516.336619 
" style="fill:none;stroke:#4c4c4c;"/>
    <path clip-path="url(#pcc0063b383)" d="M 322.669368 516.336619 
L 500.565479 523.460918 
" style="fill:none;stroke:#4c4c4c;"/>
    <path clip-path="url(#pcc0063b383)" d="M 322.669368 516.336619 
L 766.620279 215.407546 
" style="fill:none;stroke:#4c4c4c;"/>
    <path clip-path="url(#pcc0063b383)" d="M 410.910472 527.051383 
L 86.29833 242.652711 
" style="fill:none;stroke:#4c4c4c;"/>
    <path clip-path="url(#pcc0063b383)" d="M 410.910472 527.051383 
L 410.910472 527.051383 
" style="fill:none;stroke:#4c4c4c;"/>
    <path clip-path="url(#pcc0063b383)" d="M 410.910472 527.051383 
L 119.367815 189.486614 
" style="fill:none;stroke:#4c4c4c;"/>
    <path clip-path="url(#pcc0063b383)" d="M 410.910472 527.051383 
L 661.848828 123.615352 
" style="fill:none;stroke:#4c4c4c;"/>
    <path clip-path="url(#pcc0063b383)" d="M 410.910472 527.051383 
L 172.169915 143.225753 
" style="fill:none;stroke:#4c4c4c;"/>
    <path clip-path="url(#pcc0063b383)" d="M 410.910472 527.051383 
L 788.960633 327.974151 
" style="fill:none;stroke:#4c4c4c;"/>
    <path clip-path="url(#pcc0063b383)" d="M 500.565479 523.460918 
L 586.001043 505.790836 
" style="fill:none;stroke:#4c4c4c;"/>
    <path clip-path="url(#pcc0063b383)" d="M 500.565479 523.460918 
L 661.848935 475.151392 
" style="fill:none;stroke:#4c4c4c;"/>
    <path clip-path="url(#pcc0063b383)" d="M 500.565479 523.460918 
L 500.565479 523.460918 
" style="fill:none;stroke:#4c4c4c;"/>
    <path clip-path="url(#pcc0063b383)" d="M 500.565479 523.460918 
L 723.343334 433.467798 
" style="fill:none;stroke:#4c4c4c;"/>
    <path clip-path="url(#pcc0063b383)" d="M 500.565479 523.460918 
L 500.565357 75.305867 
" style="fill:none;stroke:#4c4c4c;"/>
    <path clip-path="url(#pcc0063b383)" d="M 500.565479 523.460918 
L 172.169915 143.225753 
" style="fill:none;stroke:#4c4c4c;"/>
    <path clip-path="url(#pcc0063b383)" d="M 586.001043 505.790836 
L 723.343249 165.298933 
" style="fill:none;stroke:#4c4c4c;"/>
    <path clip-path="url(#pcc0063b383)" d="M 586.001043 505.790836 
L 723.343249 165.298933 
" style="fill:none;stroke:#4c4c4c;"/>
    <path clip-path="url(#pcc0063b383)" d="M 586.001043 505.790836 
L 661.848935 475.151392 
" style="fill:none;stroke:#4c4c4c;"/>
    <path clip-path="url(#pcc0063b383)" d="M 586.001043 505.790836 
L 500.565357 75.305867 
" style="fill:none;stroke:#4c4c4c;"/>
    <path clip-path="url(#pcc0063b383)" d="M 586.001043 505.790836 
L 172.169915 143.225753 
" style="fill:none;stroke:#4c4c4c;"/>
    <path clip-path="url(#pcc0063b383)" d="M 661.848935 475.151392 
L 500.565357 75.305867 
" style="fill:none;stroke:#4c4c4c;"/>
    <path clip-path="url(#pcc0063b383)" d="M 661.848935 475.151392 
L 172.169915 143.225753 
" style="fill:none;stroke:#4c4c4c;"/>
    <path clip-path="url(#pcc0063b383)" d="M 661.848935 475.151392 
L 241.38688 106.776856 
" style="fill:none;stroke:#4c4c4c;"/>
    <path clip-path="url(#pcc0063b383)" d="M 661.848935 475.151392 
L 661.848935 475.151392 
" style="fill:none;stroke:#4c4c4c;"/>
    <path clip-path="url(#pcc0063b383)" d="M 661.848935 475.151392 
L 322.669262 82.430207 
" style="fill:none;stroke:#4c4c4c;"/>
    <path clip-path="url(#pcc0063b383)" d="M 723.343334 433.467798 
L 766.620257 383.359273 
" style="fill:none;stroke:#4c4c4c;"/>
    <path clip-path="url(#pcc0063b383)" d="M 723.343334 433.467798 
L 788.960633 327.974151 
" style="fill:none;stroke:#4c4c4c;"/>
    <path clip-path="url(#pcc0063b383)" d="M 723.343334 433.467798 
L 723.343334 433.467798 
" style="fill:none;stroke:#4c4c4c;"/>
    <path clip-path="url(#pcc0063b383)" d="M 723.343334 433.467798 
L 586.000936 92.975935 
" style="fill:none;stroke:#4c4c4c;"/>
    <path clip-path="url(#pcc0063b383)" d="M 723.343334 433.467798 
L 322.669262 82.430207 
" style="fill:none;stroke:#4c4c4c;"/>
    <path clip-path="url(#pcc0063b383)" d="M 766.620257 383.359273 
L 86.29833 242.652711 
" style="fill:none;stroke:#4c4c4c;"/>
    <path clip-path="url(#pcc0063b383)" d="M 766.620257 383.359273 
L 500.565357 75.305867 
" style="fill:none;stroke:#4c4c4c;"/>
    <path clip-path="url(#pcc0063b383)" d="M 766.620257 383.359273 
L 586.000936 92.975935 
" style="fill:none;stroke:#4c4c4c;"/>
    <path clip-path="url(#pcc0063b383)" d="M 766.620257 383.359273 
L 322.669262 82.430207 
" style="fill:none;stroke:#4c4c4c;"/>
    <path clip-path="url(#pcc0063b383)" d="M 766.620257 383.359273 
L 410.910346 71.715415 
" style="fill:none;stroke:#4c4c4c;"/>
    <path clip-path="url(#pcc0063b383)" d="M 766.620257 383.359273 
L 788.960633 327.974151 
" style="fill:none;stroke:#4c4c4c;"/>
    <path clip-path="url(#pcc0063b383)" d="M 788.960633 327.974151 
L 586.000936 92.975935 
" style="fill:none;stroke:#4c4c4c;"/>
    <path clip-path="url(#pcc0063b383)" d="M 788.960633 327.974151 
L 119.367815 189.486614 
" style="fill:none;stroke:#4c4c4c;"/>
    <path clip-path="url(#pcc0063b383)" d="M 788.960633 327.974151 
L 661.848828 123.615352 
" style="fill:none;stroke:#4c4c4c;"/>
    <path clip-path="url(#pcc0063b383)" d="M 788.960633 327.974151 
L 322.669262 82.430207 
" style="fill:none;stroke:#4c4c4c;"/>
    <path clip-path="url(#pcc0063b383)" d="M 788.960633 327.974151 
L 172.169915 143.225753 
" style="fill:none;stroke:#4c4c4c;"/>
    <path clip-path="url(#pcc0063b383)" d="M 788.960633 270.792675 
L 788.960633 270.792675 
" style="fill:none;stroke:#4c4c4c;"/>
    <path clip-path="url(#pcc0063b383)" d="M 788.960633 270.792675 
L 788.960633 270.792675 
" style="fill:none;stroke:#4c4c4c;"/>
    <path clip-path="url(#pcc0063b383)" d="M 788.960633 270.792675 
L 410.910346 71.715415 
" style="fill:none;stroke:#4c4c4c;"/>
    <path clip-path="url(#pcc0063b383)" d="M 788.960633 270.792675 
L 322.669262 82.430207 
" style="fill:none;stroke:#4c4c4c;"/>
    <path clip-path="url(#pcc0063b383)" d="M 766.620279 215.407546 
L 766.620279 215.407546 
" style="fill:none;stroke:#4c4c4c;"/>
    <path clip-path="url(#pcc0063b383)" d="M 766.620279 215.407546 
L 586.000936 92.975935 
" style="fill:none;stroke:#4c4c4c;"/>
    <path clip-path="url(#pcc0063b383)" d="M 766.620279 215.407546 
L 586.000936 92.975935 
" style="fill:none;stroke:#4c4c4c;"/>
    <path clip-path="url(#pcc0063b383)" d="M 766.620279 215.407546 
L 241.38688 106.776856 
" style="fill:none;stroke:#4c4c4c;"/>
    <path clip-path="url(#pcc0063b383)" d="M 723.343249 165.298933 
L 661.848828 123.615352 
" style="fill:none;stroke:#4c4c4c;"/>
    <path clip-path="url(#pcc0063b383)" d="M 723.343249 165.298933 
L 661.848828 123.615352 
" style="fill:none;stroke:#4c4c4c;"/>
    <path clip-path="url(#pcc0063b383)" d="M 723.343249 165.298933 
L 586.000936 92.975935 
" style="fill:none;stroke:#4c4c4c;"/>
    <path clip-path="url(#pcc0063b383)" d="M 723.343249 165.298933 
L 586.000936 92.975935 
" style="fill:none;stroke:#4c4c4c;"/>
    <path clip-path="url(#pcc0063b383)" d="M 661.848828 123.615352 
L 119.367815 189.486614 
" style="fill:none;stroke:#4c4c4c;"/>
    <path clip-path="url(#pcc0063b383)" d="M 661.848828 123.615352 
L 172.169915 143.225753 
" style="fill:none;stroke:#4c4c4c;"/>
    <path clip-path="url(#pcc0063b383)" d="M 586.000936 92.975935 
L 322.669262 82.430207 
" style="fill:none;stroke:#4c4c4c;"/>
    <path clip-path="url(#pcc0063b383)" d="M 500.565357 75.305867 
L 86.29833 242.652711 
" style="fill:none;stroke:#4c4c4c;"/>
    <path clip-path="url(#pcc0063b383)" d="M 500.565357 75.305867 
L 172.169915 143.225753 
" style="fill:none;stroke:#4c4c4c;"/>
    <path clip-path="url(#pcc0063b383)" d="M 500.565357 75.305867 
L 410.910346 71.715415 
" style="fill:none;stroke:#4c4c4c;"/>
    <path clip-path="url(#pcc0063b383)" d="M 410.910346 71.715415 
L 410.910346 71.715415 
" style="fill:none;stroke:#4c4c4c;"/>
    <path clip-path="url(#pcc0063b383)" d="M 410.910346 71.715415 
L 119.367815 189.486614 
" style="fill:none;stroke:#4c4c4c;"/>
    <path clip-path="url(#pcc0063b383)" d="M 410.910346 71.715415 
L 86.29833 242.652711 
" style="fill:none;stroke:#4c4c4c;"/>
    <path clip-path="url(#pcc0063b383)" d="M 322.669262 82.430207 
L 322.669262 82.430207 
" style="fill:none;stroke:#4c4c4c;"/>
    <path clip-path="url(#pcc0063b383)" d="M 241.38688 106.776856 
L 241.38688 106.776856 
" style="fill:none;stroke:#4c4c4c;"/>
    <path clip-path="url(#pcc0063b383)" d="M 241.38688 106.776856 
L 241.38688 106.776856 
" style="fill:none;stroke:#4c4c4c;"/>
    <path clip-path="url(#pcc0063b383)" d="M 241.38688 106.776856 
L 86.29833 242.652711 
" style="fill:none;stroke:#4c4c4c;"/>
    <path clip-path="url(#pcc0063b383)" d="M 172.169915 143.225753 
L 119.367815 189.486614 
" style="fill:none;stroke:#4c4c4c;"/>
    <path clip-path="url(#pcc0063b383)" d="M 119.367815 189.486614 
L 119.367815 189.486614 
" style="fill:none;stroke:#4c4c4c;"/>
    <path clip-path="url(#pcc0063b383)" d="M 86.29833 242.652711 
L 86.29833 242.652711 
" style="fill:none;stroke:#4c4c4c;"/>
   </g>
   <g id="patch_2">
    <path clip-path="url(#pcc0063b383)" d="M 75.039367 253.849822 
C 110.806008 253.849822 110.806008 299.383419 75.039367 299.383419 
C 39.272727 299.383419 39.272727 253.849822 75.039367 253.849822 
" style="fill:none;stroke:#4c4c4c;stroke-linecap:round;"/>
   </g>
   <g id="patch_3">
    <path clip-path="url(#pcc0063b383)" d="M 75.039367 253.849822 
C 110.806008 253.849822 110.806008 299.383419 75.039367 299.383419 
C 39.272727 299.383419 39.272727 253.849822 75.039367 253.849822 
" style="fill:none;stroke:#4c4c4c;stroke-linecap:round;"/>
   </g>
   <g id="patch_4">
    <path clip-path="url(#pcc0063b383)" d="M 86.298352 310.580514 
C 122.064992 310.580514 122.064992 356.114111 86.298352 356.114111 
C 50.531711 356.114111 50.531711 310.580514 86.298352 310.580514 
" style="fill:none;stroke:#4c4c4c;stroke-linecap:round;"/>
   </g>
   <g id="patch_5">
    <path clip-path="url(#pcc0063b383)" d="M 119.367794 363.746554 
C 155.134434 363.746554 155.134434 409.280151 119.367794 409.280151 
C 83.601154 409.280151 83.601154 363.746554 119.367794 363.746554 
" style="fill:none;stroke:#4c4c4c;stroke-linecap:round;"/>
   </g>
   <g id="patch_6">
    <path clip-path="url(#pcc0063b383)" d="M 172.169893 410.007422 
C 207.936533 410.007422 207.936533 455.541018 172.169893 455.541018 
C 136.403253 455.541018 136.403253 410.007422 172.169893 410.007422 
" style="fill:none;stroke:#4c4c4c;stroke-linecap:round;"/>
   </g>
   <g id="patch_7">
    <path clip-path="url(#pcc0063b383)" d="M 322.669368 470.803022 
C 358.436009 470.803022 358.436009 516.336619 322.669368 516.336619 
C 286.902728 516.336619 286.902728 470.803022 322.669368 470.803022 
" style="fill:none;stroke:#4c4c4c;stroke-linecap:round;"/>
   </g>
   <g id="patch_8">
    <path clip-path="url(#pcc0063b383)" d="M 322.669368 470.803022 
C 358.436009 470.803022 358.436009 516.336619 322.669368 516.336619 
C 286.902728 516.336619 286.902728 470.803022 322.669368 470.803022 
" style="fill:none;stroke:#4c4c4c;stroke-linecap:round;"/>
   </g>
   <g id="patch_9">
    <path clip-path="url(#pcc0063b383)" d="M 410.910472 481.517787 
C 446.677112 481.517787 446.677112 527.051383 410.910472 527.051383 
C 375.143832 527.051383 375.143832 481.517787 410.910472 481.517787 
" style="fill:none;stroke:#4c4c4c;stroke-linecap:round;"/>
   </g>
   <g id="patch_10">
    <path clip-path="url(#pcc0063b383)" d="M 500.565479 477.927321 
C 536.33212 477.927321 536.33212 523.460918 500.565479 523.460918 
C 464.798839 523.460918 464.798839 477.927321 500.565479 477.927321 
" style="fill:none;stroke:#4c4c4c;stroke-linecap:round;"/>
   </g>
   <g id="patch_11">
    <path clip-path="url(#pcc0063b383)" d="M 661.848935 429.617795 
C 697.615575 429.617795 697.615575 475.151392 661.848935 475.151392 
C 626.082294 475.151392 626.082294 429.617795 661.848935 429.617795 
" style="fill:none;stroke:#4c4c4c;stroke-linecap:round;"/>
   </g>
   <g id="patch_12">
    <path clip-path="url(#pcc0063b383)" d="M 723.343334 387.934201 
C 759.109975 387.934201 759.109975 433.467798 723.343334 433.467798 
C 687.576694 433.467798 687.576694 387.934201 723.343334 387.934201 
" style="fill:none;stroke:#4c4c4c;stroke-linecap:round;"/>
   </g>
   <g id="patch_13">
    <path clip-path="url(#pcc0063b383)" d="M 788.960633 225.259078 
C 824.727273 225.259078 824.727273 270.792675 788.960633 270.792675 
C 753.193992 270.792675 753.193992 225.259078 788.960633 225.259078 
" style="fill:none;stroke:#4c4c4c;stroke-linecap:round;"/>
   </g>
   <g id="patch_14">
    <path clip-path="url(#pcc0063b383)" d="M 788.960633 225.259078 
C 824.727273 225.259078 824.727273 270.792675 788.960633 270.792675 
C 753.193992 270.792675 753.193992 225.259078 788.960633 225.259078 
" style="fill:none;stroke:#4c4c4c;stroke-linecap:round;"/>
   </g>
   <g id="patch_15">
    <path clip-path="url(#pcc0063b383)" d="M 766.620279 169.873949 
C 802.386919 169.873949 802.386919 215.407546 766.620279 215.407546 
C 730.853639 215.407546 730.853639 169.873949 766.620279 169.873949 
" style="fill:none;stroke:#4c4c4c;stroke-linecap:round;"/>
   </g>
   <g id="patch_16">
    <path clip-path="url(#pcc0063b383)" d="M 410.910346 26.181818 
C 446.676986 26.181818 446.676986 71.715415 410.910346 71.715415 
C 375.143706 71.715415 375.143706 26.181818 410.910346 26.181818 
" style="fill:none;stroke:#4c4c4c;stroke-linecap:round;"/>
   </g>
   <g id="patch_17">
    <path clip-path="url(#pcc0063b383)" d="M 322.669262 36.89661 
C 358.435902 36.89661 358.435902 82.430207 322.669262 82.430207 
C 286.902621 82.430207 286.902621 36.89661 322.669262 36.89661 
" style="fill:none;stroke:#4c4c4c;stroke-linecap:round;"/>
   </g>
   <g id="patch_18">
    <path clip-path="url(#pcc0063b383)" d="M 241.38688 61.24326 
C 277.15352 61.24326 277.15352 106.776856 241.38688 106.776856 
C 205.62024 106.776856 205.62024 61.24326 241.38688 61.24326 
" style="fill:none;stroke:#4c4c4c;stroke-linecap:round;"/>
   </g>
   <g id="patch_19">
    <path clip-path="url(#pcc0063b383)" d="M 241.38688 61.24326 
C 277.15352 61.24326 277.15352 106.776856 241.38688 106.776856 
C 205.62024 106.776856 205.62024 61.24326 241.38688 61.24326 
" style="fill:none;stroke:#4c4c4c;stroke-linecap:round;"/>
   </g>
   <g id="patch_20">
    <path clip-path="url(#pcc0063b383)" d="M 119.367815 143.953017 
C 155.134455 143.953017 155.134455 189.486614 119.367815 189.486614 
C 83.601175 189.486614 83.601175 143.953017 119.367815 143.953017 
" style="fill:none;stroke:#4c4c4c;stroke-linecap:round;"/>
   </g>
   <g id="patch_21">
    <path clip-path="url(#pcc0063b383)" d="M 86.29833 197.119114 
C 122.06497 197.119114 122.06497 242.652711 86.29833 242.652711 
C 50.53169 242.652711 50.53169 197.119114 86.29833 197.119114 
" style="fill:none;stroke:#4c4c4c;stroke-linecap:round;"/>
   </g>
   <g id="PathCollection_1">
    <defs>
     <path d="M 0 7.071068 
C 1.875269 7.071068 3.673985 6.326016 5 5 
C 6.326016 3.673985 7.071068 1.875269 7.071068 0 
C 7.071068 -1.875269 6.326016 -3.673985 5 -5 
C 3.673985 -6.326016 1.875269 -7.071068 0 -7.071068 
C -1.875269 -7.071068 -3.673985 -6.326016 -5 -5 
C -6.326016 -3.673985 -7.071068 -1.875269 -7.071068 0 
C -7.071068 1.875269 -6.326016 3.673985 -5 5 
C -3.673985 6.326016 -1.875269 7.071068 0 7.071068 
z
" id="m7d9ef41789" style="stroke:#000000;stroke-width:1.5;"/>
    </defs>
    <g clip-path="url(#pcc0063b383)">
     <use style="fill:#fc3333;stroke:#000000;stroke-width:1.5;" x="75.039367" xlink:href="#m7d9ef41789" y="299.383419"/>
     <use style="fill:#fc3333;stroke:#000000;stroke-width:1.5;" x="86.298352" xlink:href="#m7d9ef41789" y="356.114111"/>
     <use style="fill:#fc3333;stroke:#000000;stroke-width:1.5;" x="119.367794" xlink:href="#m7d9ef41789" y="409.280151"/>
     <use style="fill:#fc3333;stroke:#000000;stroke-width:1.5;" x="172.169893" xlink:href="#m7d9ef41789" y="455.541018"/>
     <use style="fill:#fc3333;stroke:#000000;stroke-width:1.5;" x="241.386859" xlink:href="#m7d9ef41789" y="491.989928"/>
     <use style="fill:#fc3333;stroke:#000000;stroke-width:1.5;" x="322.669368" xlink:href="#m7d9ef41789" y="516.336619"/>
     <use style="fill:#fc3333;stroke:#000000;stroke-width:1.5;" x="410.910472" xlink:href="#m7d9ef41789" y="527.051383"/>
     <use style="fill:#fc3333;stroke:#000000;stroke-width:1.5;" x="500.565479" xlink:href="#m7d9ef41789" y="523.460918"/>
     <use style="fill:#fc3333;stroke:#000000;stroke-width:1.5;" x="586.001043" xlink:href="#m7d9ef41789" y="505.790836"/>
     <use style="fill:#fc3333;stroke:#000000;stroke-width:1.5;" x="661.848935" xlink:href="#m7d9ef41789" y="475.151392"/>
     <use style="fill:#fc3333;stroke:#000000;stroke-width:1.5;" x="723.343334" xlink:href="#m7d9ef41789" y="433.467798"/>
     <use style="fill:#fc3333;stroke:#000000;stroke-width:1.5;" x="766.620257" xlink:href="#m7d9ef41789" y="383.359273"/>
     <use style="fill:#fc3333;stroke:#000000;stroke-width:1.5;" x="788.960633" xlink:href="#m7d9ef41789" y="327.974151"/>
     <use style="fill:#fc3333;stroke:#000000;stroke-width:1.5;" x="788.960633" xlink:href="#m7d9ef41789" y="270.792675"/>
     <use style="fill:#fc3333;stroke:#000000;stroke-width:1.5;" x="766.620279" xlink:href="#m7d9ef41789" y="215.407546"/>
     <use style="fill:#fc3333;stroke:#000000;stroke-width:1.5;" x="723.343249" xlink:href="#m7d9ef41789" y="165.298933"/>
     <use style="fill:#fc3333;stroke:#000000;stroke-width:1.5;" x="661.848828" xlink:href="#m7d9ef41789" y="123.615352"/>
     <use style="fill:#fc3333;stroke:#000000;stroke-width:1.5;" x="586.000936" xlink:href="#m7d9ef41789" y="92.975935"/>
     <use style="fill:#fc3333;stroke:#000000;stroke-width:1.5;" x="500.565357" xlink:href="#m7d9ef41789" y="75.305867"/>
     <use style="fill:#fc3333;stroke:#000000;stroke-width:1.5;" x="410.910346" xlink:href="#m7d9ef41789" y="71.715415"/>
     <use style="fill:#fc3333;stroke:#000000;stroke-width:1.5;" x="322.669262" xlink:href="#m7d9ef41789" y="82.430207"/>
     <use style="fill:#fc3333;stroke:#000000;stroke-width:1.5;" x="241.38688" xlink:href="#m7d9ef41789" y="106.776856"/>
     <use style="fill:#fc3333;stroke:#000000;stroke-width:1.5;" x="172.169915" xlink:href="#m7d9ef41789" y="143.225753"/>
     <use style="fill:#fc3333;stroke:#000000;stroke-width:1.5;" x="119.367815" xlink:href="#m7d9ef41789" y="189.486614"/>
     <use style="fill:#fc3333;stroke:#000000;stroke-width:1.5;" x="86.29833" xlink:href="#m7d9ef41789" y="242.652711"/>
    </g>
   </g>
  </g>
 </g>
 <defs>
  <clipPath id="pcc0063b383">
   <rect height="576" width="864" x="0" y="0"/>
  </clipPath>
 </defs>
</svg>
