<?xml version="1.0" encoding="utf-8" standalone="no"?>
<!DOCTYPE svg PUBLIC "-//W3C//DTD SVG 1.1//EN"
  "http://www.w3.org/Graphics/SVG/1.1/DTD/svg11.dtd">
<svg xmlns:xlink="http://www.w3.org/1999/xlink" width="728.960937pt" height="494.754375pt" viewBox="0 0 728.960937 494.754375" xmlns="http://www.w3.org/2000/svg" version="1.1">
 <metadata>
  <rdf:RDF xmlns:dc="http://purl.org/dc/elements/1.1/" xmlns:cc="http://creativecommons.org/ns#" xmlns:rdf="http://www.w3.org/1999/02/22-rdf-syntax-ns#">
   <cc:Work>
    <dc:type rdf:resource="http://purl.org/dc/dcmitype/StillImage"/>
    <dc:date>2022-09-17T13:52:02.591220</dc:date>
    <dc:format>image/svg+xml</dc:format>
    <dc:creator>
     <cc:Agent>
      <dc:title>Matplotlib v3.5.1, https://matplotlib.org/</dc:title>
     </cc:Agent>
    </dc:creator>
   </cc:Work>
  </rdf:RDF>
 </metadata>
 <defs>
  <style type="text/css">*{stroke-linejoin: round; stroke-linecap: butt}</style>
 </defs>
 <g id="figure_1">
  <g id="patch_1">
   <path d="M 0 494.754375 
L 728.960937 494.754375 
L 728.960937 0 
L 0 0 
z
" style="fill: #ffffff"/>
  </g>
  <g id="axes_1">
   <g id="patch_2">
    <path d="M 52.160938 457.198125 
L 721.760938 457.198125 
L 721.760938 22.318125 
L 52.160938 22.318125 
z
" style="fill: #ffffff"/>
   </g>
   <g id="PolyCollection_1">
    <defs>
     <path id="mfb2d1b3b46" d="M 82.597301 -183.158896 
L 82.597301 -174.366088 
L 87.136745 -171.481994 
L 88.956137 -170.278915 
L 90.792884 -169.018679 
L 96.252925 -165.248221 
L 99.476424 -162.895112 
L 100.455933 -162.150393 
L 116.452497 -148.786064 
L 125.594416 -139.802641 
L 129.64191 -135.729412 
L 130.461012 -134.863822 
L 140.61098 -124.75669 
L 141.543199 -123.812639 
L 147.120723 -118.517668 
L 148.730465 -116.993955 
L 156.078514 -110.167516 
L 157.650873 -108.782734 
L 159.862179 -106.752642 
L 162.955391 -104.229399 
L 167.031526 -100.918999 
L 168.428117 -99.814804 
L 201.475447 -82.166889 
L 204.723855 -80.966254 
L 205.120552 -80.723329 
L 210.414257 -79.007581 
L 216.405583 -77.205002 
L 216.79667 -77.121443 
L 246.506236 -63.386016 
L 262.743711 -72.719517 
L 265.014827 -76.026012 
L 267.870578 -80.030179 
L 283.88961 -99.477469 
L 284.042519 -99.718642 
L 296.976707 -120.568232 
L 304.45609 -134.795472 
L 305.092873 -135.524351 
L 305.730207 -136.170345 
L 309.389469 -139.512501 
L 321.099226 -145.843518 
L 327.766518 -146.604038 
L 328.965197 -146.529166 
L 330.773146 -146.32931 
L 339.234299 -143.977342 
L 339.54881 -143.837486 
L 339.968155 -143.715014 
L 342.490886 -142.772522 
L 353.891782 -140.216522 
L 355.19452 -140.392415 
L 358.797497 -141.612502 
L 363.4434 -145.49842 
L 366.908727 -150.449908 
L 387.658846 -210.232974 
L 388.011621 -210.873277 
L 397.939355 -236.602957 
L 398.99378 -239.953024 
L 400.896966 -246.187947 
L 411.478544 -264.301992 
L 411.848799 -264.005068 
L 416.750594 -259.901591 
L 417.49497 -259.278988 
L 430.716833 -253.51054 
L 433.56741 -253.941492 
L 443.538604 -259.933515 
L 449.080816 -265.545297 
L 451.800563 -268.709521 
L 454.487099 -272.002851 
L 456.73029 -274.851424 
L 459.11748 -277.969866 
L 462.933362 -283.024981 
L 463.791167 -284.164554 
L 472.102203 -295.050335 
L 473.895505 -297.308017 
L 475.880359 -299.752987 
L 489.930436 -315.112252 
L 490.007001 -315.185634 
L 497.750445 -322.087002 
L 500.601009 -324.380673 
L 501.22973 -324.87772 
L 501.55047 -325.134344 
L 508.36536 -330.238107 
L 527.901133 -344.302586 
L 537.653506 -351.016836 
L 549.611996 -357.897512 
L 554.595374 -360.192193 
L 556.886147 -361.114175 
L 567.333078 -364.342834 
L 586.994532 -367.163162 
L 618.782575 -352.702021 
L 621.670446 -350.230159 
L 626.315525 -346.367502 
L 633.54355 -340.601036 
L 644.717276 -332.157925 
L 645.857915 -331.332778 
L 646.470738 -330.887044 
L 653.511939 -325.954738 
L 655.956684 -324.267022 
L 658.788719 -322.364145 
L 677.231566 -310.719254 
L 679.479666 -309.364621 
L 691.324574 -302.551521 
L 691.324574 -358.507498 
L 691.324574 -358.507498 
L 679.479666 -360.611183 
L 677.231566 -360.998446 
L 658.788719 -363.709789 
L 655.956684 -364.073753 
L 653.511939 -364.390771 
L 646.470738 -365.175658 
L 645.857915 -365.247135 
L 644.717276 -365.365422 
L 633.54355 -366.421844 
L 626.315525 -366.94271 
L 621.670446 -367.236861 
L 618.782575 -367.405462 
L 586.994532 -382.723726 
L 567.333078 -401.811372 
L 556.886147 -411.213473 
L 554.595374 -413.145845 
L 549.611996 -417.153543 
L 537.653506 -425.873912 
L 527.901133 -432.252423 
L 508.36536 -444.592418 
L 501.55047 -448.422934 
L 501.22973 -448.579567 
L 500.601009 -448.889062 
L 497.750445 -450.209101 
L 490.007001 -452.654182 
L 489.930436 -452.668977 
L 475.880359 -451.302397 
L 473.895505 -450.371179 
L 472.102203 -449.351323 
L 463.791167 -442.271686 
L 462.933362 -441.313321 
L 459.11748 -436.490039 
L 456.73029 -432.990913 
L 454.487099 -429.371364 
L 451.800563 -424.573844 
L 449.080816 -419.174515 
L 443.538604 -406.465862 
L 433.56741 -377.265658 
L 430.716833 -367.368646 
L 417.49497 -313.614455 
L 416.750594 -310.355848 
L 411.848799 -288.895032 
L 411.478544 -287.304646 
L 400.896966 -268.617669 
L 398.99378 -268.259372 
L 397.939355 -267.961055 
L 388.011621 -264.517733 
L 387.658846 -264.569161 
L 366.908727 -304.596298 
L 363.4434 -303.252777 
L 358.797497 -297.287979 
L 355.19452 -290.087072 
L 353.891782 -286.999668 
L 342.490886 -253.600814 
L 339.968155 -245.274238 
L 339.54881 -243.844184 
L 339.234299 -242.817849 
L 330.773146 -214.336251 
L 328.965197 -208.296975 
L 327.766518 -204.340194 
L 321.099226 -182.972441 
L 309.389469 -149.379653 
L 305.730207 -140.249731 
L 305.092873 -138.822765 
L 304.45609 -137.441687 
L 296.976707 -126.842982 
L 284.042519 -107.083994 
L 283.88961 -106.802205 
L 267.870578 -81.497577 
L 265.014827 -77.905127 
L 262.743711 -74.95921 
L 246.506236 -65.336763 
L 216.79667 -81.186168 
L 216.405583 -81.283657 
L 210.414257 -82.983282 
L 205.120552 -84.25322 
L 204.723855 -84.440368 
L 201.475447 -85.220686 
L 168.428117 -102.698326 
L 167.031526 -103.769236 
L 162.955391 -106.873922 
L 159.862179 -109.26235 
L 157.650873 -111.075722 
L 156.078514 -112.403881 
L 148.730465 -118.981815 
L 147.120723 -120.5412 
L 141.543199 -125.986801 
L 140.61098 -126.968254 
L 130.461012 -137.123409 
L 129.64191 -137.943669 
L 125.594416 -141.931761 
L 116.452497 -150.793328 
L 100.455933 -166.498716 
L 99.476424 -167.419886 
L 96.252925 -170.543336 
L 90.792884 -175.657739 
L 88.956137 -177.39455 
L 87.136745 -179.072868 
L 82.597301 -183.158896 
z
" style="stroke: #1f77b4; stroke-opacity: 0.3"/>
    </defs>
    <g clip-path="url(#p3931c95a90)">
     <use xlink:href="#mfb2d1b3b46" x="0" y="494.754375" style="fill: #1f77b4; fill-opacity: 0.3; stroke: #1f77b4; stroke-opacity: 0.3"/>
    </g>
   </g>
   <g id="PolyCollection_2">
    <defs>
     <path id="m5655216d18" d="M 82.597301 -171.105346 
L 82.597301 -162.312539 
L 87.136745 -161.007781 
L 88.956137 -160.461504 
L 90.792884 -159.898613 
L 96.252925 -158.123971 
L 99.476424 -157.021142 
L 100.455933 -156.642373 
L 116.452497 -149.15452 
L 125.594416 -140.207836 
L 129.64191 -136.145891 
L 130.461012 -135.294212 
L 140.61098 -125.014265 
L 141.543199 -124.071014 
L 147.120723 -118.377072 
L 148.730465 -116.71127 
L 156.078514 -110.99097 
L 157.650873 -109.859714 
L 159.862179 -108.202619 
L 162.955391 -105.966572 
L 167.031526 -102.987677 
L 168.428117 -101.981548 
L 201.475447 -81.470805 
L 204.723855 -79.930284 
L 205.120552 -79.738702 
L 210.414257 -77.492323 
L 216.405583 -75.376776 
L 216.79667 -75.263481 
L 246.506236 -62.823149 
L 262.743711 -77.8919 
L 265.014827 -81.772305 
L 267.870578 -86.657983 
L 283.88961 -95.395014 
L 284.042519 -95.631782 
L 296.976707 -119.129251 
L 304.45609 -134.747016 
L 305.092873 -135.490941 
L 305.730207 -136.168709 
L 309.389469 -139.417128 
L 321.099226 -144.929001 
L 327.766518 -144.804038 
L 328.965197 -144.541228 
L 330.773146 -144.015023 
L 339.234299 -139.867672 
L 339.54881 -139.673848 
L 339.968155 -139.414338 
L 342.490886 -137.801399 
L 353.891782 -131.641493 
L 355.19452 -131.337481 
L 358.797497 -131.312873 
L 363.4434 -133.635895 
L 366.908727 -137.645362 
L 387.658846 -201.169925 
L 388.011621 -202.050229 
L 397.939355 -234.884573 
L 398.99378 -238.678641 
L 400.896966 -245.559216 
L 411.478544 -261.518831 
L 411.848799 -260.932113 
L 416.750594 -252.001299 
L 417.49497 -250.517162 
L 430.716833 -225.246508 
L 433.56741 -220.968762 
L 443.538604 -210.639614 
L 449.080816 -207.831518 
L 451.800563 -207.115976 
L 454.487099 -206.788862 
L 456.73029 -206.779627 
L 459.11748 -207.010526 
L 462.933362 -207.841816 
L 463.791167 -208.099921 
L 472.102203 -211.763227 
L 473.895505 -212.798364 
L 475.880359 -214.035483 
L 489.930436 -225.26987 
L 490.007001 -225.34163 
L 497.750445 -233.240763 
L 500.601009 -236.422279 
L 501.22973 -237.14088 
L 501.55047 -237.509831 
L 508.36536 -245.726799 
L 527.901133 -272.222437 
L 537.653506 -286.346979 
L 549.611996 -303.610886 
L 554.595374 -310.624535 
L 556.886147 -313.798755 
L 567.333078 -327.782146 
L 586.994532 -351.574546 
L 618.782575 -361.475753 
L 621.670446 -360.348383 
L 626.315525 -358.507863 
L 633.54355 -355.570892 
L 644.717276 -350.869496 
L 645.857915 -350.379192 
L 646.470738 -350.116672 
L 653.511939 -347.052197 
L 655.956684 -345.970273 
L 658.788719 -344.712023 
L 677.231566 -336.311991 
L 679.479666 -335.26972 
L 691.324574 -329.733114 
L 691.324574 -385.689095 
L 691.324574 -385.689095 
L 679.479666 -386.516282 
L 677.231566 -386.591183 
L 658.788719 -386.057667 
L 655.956684 -385.777003 
L 653.511939 -385.48823 
L 646.470738 -384.405285 
L 645.857915 -384.293549 
L 644.717276 -384.076993 
L 633.54355 -381.391701 
L 626.315525 -379.08309 
L 621.670446 -377.355085 
L 618.782575 -376.179193 
L 586.994532 -367.13511 
L 567.333078 -365.250694 
L 556.886147 -363.898053 
L 554.595374 -363.578168 
L 549.611996 -362.866922 
L 537.653506 -361.204055 
L 527.901133 -360.172279 
L 508.36536 -360.08111 
L 501.55047 -360.798427 
L 501.22973 -360.842727 
L 500.601009 -360.930663 
L 497.750445 -361.362871 
L 490.007001 -362.810164 
L 489.930436 -362.826595 
L 475.880359 -365.584884 
L 473.895505 -365.861517 
L 472.102203 -366.06421 
L 463.791167 -366.207048 
L 462.933362 -366.130165 
L 459.11748 -365.530694 
L 456.73029 -364.919111 
L 454.487099 -364.157379 
L 451.800563 -362.980304 
L 449.080816 -361.460745 
L 443.538604 -357.171951 
L 433.56741 -344.292927 
L 430.716833 -339.104604 
L 417.49497 -304.852623 
L 416.750594 -302.455556 
L 411.848799 -285.822072 
L 411.478544 -284.521485 
L 400.896966 -267.988944 
L 398.99378 -266.984992 
L 397.939355 -266.242671 
L 388.011621 -255.694684 
L 387.658846 -255.506113 
L 366.908727 -291.791748 
L 363.4434 -291.390252 
L 358.797497 -286.988345 
L 355.19452 -281.032128 
L 353.891782 -278.424638 
L 342.490886 -248.629694 
L 339.968155 -240.973558 
L 339.54881 -239.680542 
L 339.234299 -238.708184 
L 330.773146 -212.021964 
L 328.965197 -206.309042 
L 327.766518 -202.540193 
L 321.099226 -182.057924 
L 309.389469 -149.28428 
L 305.730207 -140.248095 
L 305.092873 -138.789355 
L 304.45609 -137.393231 
L 296.976707 -125.404001 
L 284.042519 -102.997133 
L 283.88961 -102.71975 
L 267.870578 -88.125381 
L 265.014827 -83.651421 
L 262.743711 -80.131593 
L 246.506236 -64.773896 
L 216.79667 -79.328206 
L 216.405583 -79.455431 
L 210.414257 -81.468024 
L 205.120552 -83.268593 
L 204.723855 -83.404398 
L 201.475447 -84.524601 
L 168.428117 -104.865071 
L 167.031526 -105.837914 
L 162.955391 -108.611094 
L 159.862179 -110.712326 
L 157.650873 -112.152702 
L 156.078514 -113.227334 
L 148.730465 -118.699131 
L 147.120723 -120.400603 
L 141.543199 -126.245175 
L 140.61098 -127.22583 
L 130.461012 -137.553799 
L 129.64191 -138.360149 
L 125.594416 -142.336956 
L 116.452497 -151.161784 
L 100.455933 -160.990696 
L 99.476424 -161.545915 
L 96.252925 -163.419086 
L 90.792884 -166.537673 
L 88.956137 -167.577139 
L 87.136745 -168.598655 
L 82.597301 -171.105346 
z
" style="stroke: #2ca02c; stroke-opacity: 0.3"/>
    </defs>
    <g clip-path="url(#p3931c95a90)">
     <use xlink:href="#m5655216d18" x="0" y="494.754375" style="fill: #2ca02c; fill-opacity: 0.3; stroke: #2ca02c; stroke-opacity: 0.3"/>
    </g>
   </g>
   <g id="PathCollection_1">
    <defs>
     <path id="m117399c492" d="M 0 3 
C 0.795609 3 1.55874 2.683901 2.12132 2.12132 
C 2.683901 1.55874 3 0.795609 3 0 
C 3 -0.795609 2.683901 -1.55874 2.12132 -2.12132 
C 1.55874 -2.683901 0.795609 -3 0 -3 
C -0.795609 -3 -1.55874 -2.683901 -2.12132 -2.12132 
C -2.683901 -1.55874 -3 -0.795609 -3 0 
C -3 0.795609 -2.683901 1.55874 -2.12132 2.12132 
C -1.55874 2.683901 -0.795609 3 0 3 
z
" style="stroke: #000000"/>
    </defs>
    <g clip-path="url(#p3931c95a90)">
     <use xlink:href="#m117399c492" x="114.938462" y="343.138469" style="stroke: #000000"/>
     <use xlink:href="#m117399c492" x="150.138149" y="378.519062" style="stroke: #000000"/>
     <use xlink:href="#m117399c492" x="191.335473" y="407.285465" style="stroke: #000000"/>
     <use xlink:href="#m117399c492" x="234.893697" y="421.50005" style="stroke: #000000"/>
     <use xlink:href="#m117399c492" x="250.538342" y="433.639181" style="stroke: #000000"/>
     <use xlink:href="#m117399c492" x="268.374003" y="406.257508" style="stroke: #000000"/>
     <use xlink:href="#m117399c492" x="269.260194" y="418.013946" style="stroke: #000000"/>
     <use xlink:href="#m117399c492" x="303.381076" y="360.483931" style="stroke: #000000"/>
     <use xlink:href="#m117399c492" x="406.727226" y="227.230898" style="stroke: #000000"/>
     <use xlink:href="#m117399c492" x="602.311998" y="126.993119" style="stroke: #000000"/>
    </g>
   </g>
   <g id="PathCollection_2">
    <defs>
     <path id="m7a726870b4" d="M 0 3 
C 0.795609 3 1.55874 2.683901 2.12132 2.12132 
C 2.683901 1.55874 3 0.795609 3 0 
C 3 -0.795609 2.683901 -1.55874 2.12132 -2.12132 
C 1.55874 -2.683901 0.795609 -3 0 -3 
C -0.795609 -3 -1.55874 -2.683901 -2.12132 -2.12132 
C -2.683901 -1.55874 -3 -0.795609 -3 0 
C -3 0.795609 -2.683901 1.55874 -2.12132 2.12132 
C -1.55874 2.683901 -0.795609 3 0 3 
z
" style="stroke: #000000"/>
    </defs>
    <g clip-path="url(#p3931c95a90)">
     <use xlink:href="#m7a726870b4" x="82.597301" y="308.393208" style="fill: #ff7f0e; stroke: #000000"/>
     <use xlink:href="#m7a726870b4" x="87.136745" y="301.545808" style="fill: #ff7f0e; stroke: #000000"/>
     <use xlink:href="#m7a726870b4" x="88.956137" y="293.318109" style="fill: #ff7f0e; stroke: #000000"/>
     <use xlink:href="#m7a726870b4" x="90.792884" y="310.704812" style="fill: #ff7f0e; stroke: #000000"/>
     <use xlink:href="#m7a726870b4" x="96.252925" y="333.233239" style="fill: #ff7f0e; stroke: #000000"/>
     <use xlink:href="#m7a726870b4" x="99.476424" y="327.281854" style="fill: #ff7f0e; stroke: #000000"/>
     <use xlink:href="#m7a726870b4" x="100.455933" y="320.575947" style="fill: #ff7f0e; stroke: #000000"/>
     <use xlink:href="#m7a726870b4" x="116.452497" y="323.729747" style="fill: #ff7f0e; stroke: #000000"/>
     <use xlink:href="#m7a726870b4" x="125.594416" y="371.21742" style="fill: #ff7f0e; stroke: #000000"/>
     <use xlink:href="#m7a726870b4" x="129.64191" y="335.402119" style="fill: #ff7f0e; stroke: #000000"/>
     <use xlink:href="#m7a726870b4" x="130.461012" y="374.864297" style="fill: #ff7f0e; stroke: #000000"/>
     <use xlink:href="#m7a726870b4" x="140.61098" y="350.941417" style="fill: #ff7f0e; stroke: #000000"/>
     <use xlink:href="#m7a726870b4" x="141.543199" y="339.409232" style="fill: #ff7f0e; stroke: #000000"/>
     <use xlink:href="#m7a726870b4" x="147.120723" y="359.95838" style="fill: #ff7f0e; stroke: #000000"/>
     <use xlink:href="#m7a726870b4" x="148.730465" y="385.747527" style="fill: #ff7f0e; stroke: #000000"/>
     <use xlink:href="#m7a726870b4" x="156.078514" y="363.564641" style="fill: #ff7f0e; stroke: #000000"/>
     <use xlink:href="#m7a726870b4" x="157.650873" y="373.453253" style="fill: #ff7f0e; stroke: #000000"/>
     <use xlink:href="#m7a726870b4" x="159.862179" y="386.491369" style="fill: #ff7f0e; stroke: #000000"/>
     <use xlink:href="#m7a726870b4" x="162.955391" y="400.090102" style="fill: #ff7f0e; stroke: #000000"/>
     <use xlink:href="#m7a726870b4" x="167.031526" y="407.153531" style="fill: #ff7f0e; stroke: #000000"/>
     <use xlink:href="#m7a726870b4" x="168.428117" y="404.240486" style="fill: #ff7f0e; stroke: #000000"/>
     <use xlink:href="#m7a726870b4" x="201.475447" y="385.154004" style="fill: #ff7f0e; stroke: #000000"/>
     <use xlink:href="#m7a726870b4" x="204.723855" y="416.116061" style="fill: #ff7f0e; stroke: #000000"/>
     <use xlink:href="#m7a726870b4" x="205.120552" y="417.475403" style="fill: #ff7f0e; stroke: #000000"/>
     <use xlink:href="#m7a726870b4" x="210.414257" y="433.896736" style="fill: #ff7f0e; stroke: #000000"/>
     <use xlink:href="#m7a726870b4" x="216.405583" y="422.237567" style="fill: #ff7f0e; stroke: #000000"/>
     <use xlink:href="#m7a726870b4" x="216.79667" y="432.168954" style="fill: #ff7f0e; stroke: #000000"/>
     <use xlink:href="#m7a726870b4" x="246.506236" y="437.430852" style="fill: #ff7f0e; stroke: #000000"/>
     <use xlink:href="#m7a726870b4" x="262.743711" y="417.71819" style="fill: #ff7f0e; stroke: #000000"/>
     <use xlink:href="#m7a726870b4" x="265.014827" y="425.530487" style="fill: #ff7f0e; stroke: #000000"/>
     <use xlink:href="#m7a726870b4" x="267.870578" y="414.139716" style="fill: #ff7f0e; stroke: #000000"/>
     <use xlink:href="#m7a726870b4" x="283.88961" y="406.497691" style="fill: #ff7f0e; stroke: #000000"/>
     <use xlink:href="#m7a726870b4" x="284.042519" y="416.014474" style="fill: #ff7f0e; stroke: #000000"/>
     <use xlink:href="#m7a726870b4" x="296.976707" y="384.542565" style="fill: #ff7f0e; stroke: #000000"/>
     <use xlink:href="#m7a726870b4" x="304.45609" y="375.785403" style="fill: #ff7f0e; stroke: #000000"/>
     <use xlink:href="#m7a726870b4" x="305.092873" y="430.015123" style="fill: #ff7f0e; stroke: #000000"/>
     <use xlink:href="#m7a726870b4" x="305.730207" y="387.807978" style="fill: #ff7f0e; stroke: #000000"/>
     <use xlink:href="#m7a726870b4" x="309.389469" y="382.571672" style="fill: #ff7f0e; stroke: #000000"/>
     <use xlink:href="#m7a726870b4" x="321.099226" y="369.897778" style="fill: #ff7f0e; stroke: #000000"/>
     <use xlink:href="#m7a726870b4" x="327.766518" y="336.704437" style="fill: #ff7f0e; stroke: #000000"/>
     <use xlink:href="#m7a726870b4" x="328.965197" y="354.343309" style="fill: #ff7f0e; stroke: #000000"/>
     <use xlink:href="#m7a726870b4" x="330.773146" y="359.995667" style="fill: #ff7f0e; stroke: #000000"/>
     <use xlink:href="#m7a726870b4" x="339.234299" y="354.050964" style="fill: #ff7f0e; stroke: #000000"/>
     <use xlink:href="#m7a726870b4" x="339.54881" y="331.038645" style="fill: #ff7f0e; stroke: #000000"/>
     <use xlink:href="#m7a726870b4" x="339.968155" y="366.893632" style="fill: #ff7f0e; stroke: #000000"/>
     <use xlink:href="#m7a726870b4" x="342.490886" y="342.144406" style="fill: #ff7f0e; stroke: #000000"/>
     <use xlink:href="#m7a726870b4" x="353.891782" y="330.390165" style="fill: #ff7f0e; stroke: #000000"/>
     <use xlink:href="#m7a726870b4" x="355.19452" y="324.950926" style="fill: #ff7f0e; stroke: #000000"/>
     <use xlink:href="#m7a726870b4" x="358.797497" y="318.230699" style="fill: #ff7f0e; stroke: #000000"/>
     <use xlink:href="#m7a726870b4" x="363.4434" y="325.072346" style="fill: #ff7f0e; stroke: #000000"/>
     <use xlink:href="#m7a726870b4" x="366.908727" y="319.61314" style="fill: #ff7f0e; stroke: #000000"/>
     <use xlink:href="#m7a726870b4" x="387.658846" y="269.020046" style="fill: #ff7f0e; stroke: #000000"/>
     <use xlink:href="#m7a726870b4" x="388.011621" y="281.275906" style="fill: #ff7f0e; stroke: #000000"/>
     <use xlink:href="#m7a726870b4" x="397.939355" y="229.140371" style="fill: #ff7f0e; stroke: #000000"/>
     <use xlink:href="#m7a726870b4" x="398.99378" y="244.893023" style="fill: #ff7f0e; stroke: #000000"/>
     <use xlink:href="#m7a726870b4" x="400.896966" y="265.290027" style="fill: #ff7f0e; stroke: #000000"/>
     <use xlink:href="#m7a726870b4" x="411.478544" y="222.605687" style="fill: #ff7f0e; stroke: #000000"/>
     <use xlink:href="#m7a726870b4" x="411.848799" y="234.002769" style="fill: #ff7f0e; stroke: #000000"/>
     <use xlink:href="#m7a726870b4" x="416.750594" y="219.055965" style="fill: #ff7f0e; stroke: #000000"/>
     <use xlink:href="#m7a726870b4" x="417.49497" y="196.819645" style="fill: #ff7f0e; stroke: #000000"/>
     <use xlink:href="#m7a726870b4" x="430.716833" y="187.281042" style="fill: #ff7f0e; stroke: #000000"/>
     <use xlink:href="#m7a726870b4" x="433.56741" y="212.760261" style="fill: #ff7f0e; stroke: #000000"/>
     <use xlink:href="#m7a726870b4" x="443.538604" y="176.033289" style="fill: #ff7f0e; stroke: #000000"/>
     <use xlink:href="#m7a726870b4" x="449.080816" y="183.673462" style="fill: #ff7f0e; stroke: #000000"/>
     <use xlink:href="#m7a726870b4" x="451.800563" y="156.728658" style="fill: #ff7f0e; stroke: #000000"/>
     <use xlink:href="#m7a726870b4" x="454.487099" y="170.343186" style="fill: #ff7f0e; stroke: #000000"/>
     <use xlink:href="#m7a726870b4" x="456.73029" y="192.753292" style="fill: #ff7f0e; stroke: #000000"/>
     <use xlink:href="#m7a726870b4" x="459.11748" y="220.037833" style="fill: #ff7f0e; stroke: #000000"/>
     <use xlink:href="#m7a726870b4" x="462.933362" y="170.47034" style="fill: #ff7f0e; stroke: #000000"/>
     <use xlink:href="#m7a726870b4" x="463.791167" y="171.892443" style="fill: #ff7f0e; stroke: #000000"/>
     <use xlink:href="#m7a726870b4" x="472.102203" y="161.925344" style="fill: #ff7f0e; stroke: #000000"/>
     <use xlink:href="#m7a726870b4" x="473.895505" y="112.192838" style="fill: #ff7f0e; stroke: #000000"/>
     <use xlink:href="#m7a726870b4" x="475.880359" y="143.311957" style="fill: #ff7f0e; stroke: #000000"/>
     <use xlink:href="#m7a726870b4" x="489.930436" y="117.833827" style="fill: #ff7f0e; stroke: #000000"/>
     <use xlink:href="#m7a726870b4" x="490.007001" y="147.161275" style="fill: #ff7f0e; stroke: #000000"/>
     <use xlink:href="#m7a726870b4" x="497.750445" y="114.945369" style="fill: #ff7f0e; stroke: #000000"/>
     <use xlink:href="#m7a726870b4" x="500.601009" y="132.368074" style="fill: #ff7f0e; stroke: #000000"/>
     <use xlink:href="#m7a726870b4" x="501.22973" y="148.342575" style="fill: #ff7f0e; stroke: #000000"/>
     <use xlink:href="#m7a726870b4" x="501.55047" y="127.994588" style="fill: #ff7f0e; stroke: #000000"/>
     <use xlink:href="#m7a726870b4" x="508.36536" y="119.142509" style="fill: #ff7f0e; stroke: #000000"/>
     <use xlink:href="#m7a726870b4" x="527.901133" y="126.652707" style="fill: #ff7f0e; stroke: #000000"/>
     <use xlink:href="#m7a726870b4" x="537.653506" y="83.631737" style="fill: #ff7f0e; stroke: #000000"/>
     <use xlink:href="#m7a726870b4" x="549.611996" y="104.915762" style="fill: #ff7f0e; stroke: #000000"/>
     <use xlink:href="#m7a726870b4" x="554.595374" y="130.938323" style="fill: #ff7f0e; stroke: #000000"/>
     <use xlink:href="#m7a726870b4" x="556.886147" y="145.837777" style="fill: #ff7f0e; stroke: #000000"/>
     <use xlink:href="#m7a726870b4" x="567.333078" y="96.049854" style="fill: #ff7f0e; stroke: #000000"/>
     <use xlink:href="#m7a726870b4" x="586.994532" y="104.01786" style="fill: #ff7f0e; stroke: #000000"/>
     <use xlink:href="#m7a726870b4" x="618.782575" y="131.645341" style="fill: #ff7f0e; stroke: #000000"/>
     <use xlink:href="#m7a726870b4" x="621.670446" y="159.773761" style="fill: #ff7f0e; stroke: #000000"/>
     <use xlink:href="#m7a726870b4" x="626.315525" y="164.35132" style="fill: #ff7f0e; stroke: #000000"/>
     <use xlink:href="#m7a726870b4" x="633.54355" y="148.434885" style="fill: #ff7f0e; stroke: #000000"/>
     <use xlink:href="#m7a726870b4" x="644.717276" y="178.167262" style="fill: #ff7f0e; stroke: #000000"/>
     <use xlink:href="#m7a726870b4" x="645.857915" y="172.902153" style="fill: #ff7f0e; stroke: #000000"/>
     <use xlink:href="#m7a726870b4" x="646.470738" y="162.795201" style="fill: #ff7f0e; stroke: #000000"/>
     <use xlink:href="#m7a726870b4" x="653.511939" y="164.928921" style="fill: #ff7f0e; stroke: #000000"/>
     <use xlink:href="#m7a726870b4" x="655.956684" y="198.756005" style="fill: #ff7f0e; stroke: #000000"/>
     <use xlink:href="#m7a726870b4" x="658.788719" y="192.713223" style="fill: #ff7f0e; stroke: #000000"/>
     <use xlink:href="#m7a726870b4" x="677.231566" y="212.640847" style="fill: #ff7f0e; stroke: #000000"/>
     <use xlink:href="#m7a726870b4" x="679.479666" y="230.139558" style="fill: #ff7f0e; stroke: #000000"/>
     <use xlink:href="#m7a726870b4" x="691.324574" y="222.691074" style="fill: #ff7f0e; stroke: #000000"/>
    </g>
   </g>
   <g id="matplotlib.axis_1">
    <g id="xtick_1">
     <g id="line2d_1">
      <path d="M 81.588293 457.198125 
L 81.588293 22.318125 
" clip-path="url(#p3931c95a90)" style="fill: none; stroke: #b0b0b0; stroke-width: 0.8; stroke-linecap: square"/>
     </g>
     <g id="line2d_2">
      <defs>
       <path id="m355dbde583" d="M 0 0 
L 0 3.5 
" style="stroke: #000000; stroke-width: 0.8"/>
      </defs>
      <g>
       <use xlink:href="#m355dbde583" x="81.588293" y="457.198125" style="stroke: #000000; stroke-width: 0.8"/>
      </g>
     </g>
     <g id="text_1">
      <!-- −3 -->
      <g transform="translate(74.217199 471.796562)scale(0.1 -0.1)">
       <defs>
        <path id="DejaVuSans-2212" d="M 678 2272 
L 4684 2272 
L 4684 1741 
L 678 1741 
L 678 2272 
z
" transform="scale(0.015625)"/>
        <path id="DejaVuSans-33" d="M 2597 2516 
Q 3050 2419 3304 2112 
Q 3559 1806 3559 1356 
Q 3559 666 3084 287 
Q 2609 -91 1734 -91 
Q 1441 -91 1130 -33 
Q 819 25 488 141 
L 488 750 
Q 750 597 1062 519 
Q 1375 441 1716 441 
Q 2309 441 2620 675 
Q 2931 909 2931 1356 
Q 2931 1769 2642 2001 
Q 2353 2234 1838 2234 
L 1294 2234 
L 1294 2753 
L 1863 2753 
Q 2328 2753 2575 2939 
Q 2822 3125 2822 3475 
Q 2822 3834 2567 4026 
Q 2313 4219 1838 4219 
Q 1578 4219 1281 4162 
Q 984 4106 628 3988 
L 628 4550 
Q 988 4650 1302 4700 
Q 1616 4750 1894 4750 
Q 2613 4750 3031 4423 
Q 3450 4097 3450 3541 
Q 3450 3153 3228 2886 
Q 3006 2619 2597 2516 
z
" transform="scale(0.015625)"/>
       </defs>
       <use xlink:href="#DejaVuSans-2212"/>
       <use xlink:href="#DejaVuSans-33" x="83.789062"/>
      </g>
     </g>
    </g>
    <g id="xtick_2">
     <g id="line2d_3">
      <path d="M 183.833197 457.198125 
L 183.833197 22.318125 
" clip-path="url(#p3931c95a90)" style="fill: none; stroke: #b0b0b0; stroke-width: 0.8; stroke-linecap: square"/>
     </g>
     <g id="line2d_4">
      <g>
       <use xlink:href="#m355dbde583" x="183.833197" y="457.198125" style="stroke: #000000; stroke-width: 0.8"/>
      </g>
     </g>
     <g id="text_2">
      <!-- −2 -->
      <g transform="translate(176.462103 471.796562)scale(0.1 -0.1)">
       <defs>
        <path id="DejaVuSans-32" d="M 1228 531 
L 3431 531 
L 3431 0 
L 469 0 
L 469 531 
Q 828 903 1448 1529 
Q 2069 2156 2228 2338 
Q 2531 2678 2651 2914 
Q 2772 3150 2772 3378 
Q 2772 3750 2511 3984 
Q 2250 4219 1831 4219 
Q 1534 4219 1204 4116 
Q 875 4013 500 3803 
L 500 4441 
Q 881 4594 1212 4672 
Q 1544 4750 1819 4750 
Q 2544 4750 2975 4387 
Q 3406 4025 3406 3419 
Q 3406 3131 3298 2873 
Q 3191 2616 2906 2266 
Q 2828 2175 2409 1742 
Q 1991 1309 1228 531 
z
" transform="scale(0.015625)"/>
       </defs>
       <use xlink:href="#DejaVuSans-2212"/>
       <use xlink:href="#DejaVuSans-32" x="83.789062"/>
      </g>
     </g>
    </g>
    <g id="xtick_3">
     <g id="line2d_5">
      <path d="M 286.078101 457.198125 
L 286.078101 22.318125 
" clip-path="url(#p3931c95a90)" style="fill: none; stroke: #b0b0b0; stroke-width: 0.8; stroke-linecap: square"/>
     </g>
     <g id="line2d_6">
      <g>
       <use xlink:href="#m355dbde583" x="286.078101" y="457.198125" style="stroke: #000000; stroke-width: 0.8"/>
      </g>
     </g>
     <g id="text_3">
      <!-- −1 -->
      <g transform="translate(278.707007 471.796562)scale(0.1 -0.1)">
       <defs>
        <path id="DejaVuSans-31" d="M 794 531 
L 1825 531 
L 1825 4091 
L 703 3866 
L 703 4441 
L 1819 4666 
L 2450 4666 
L 2450 531 
L 3481 531 
L 3481 0 
L 794 0 
L 794 531 
z
" transform="scale(0.015625)"/>
       </defs>
       <use xlink:href="#DejaVuSans-2212"/>
       <use xlink:href="#DejaVuSans-31" x="83.789062"/>
      </g>
     </g>
    </g>
    <g id="xtick_4">
     <g id="line2d_7">
      <path d="M 388.323006 457.198125 
L 388.323006 22.318125 
" clip-path="url(#p3931c95a90)" style="fill: none; stroke: #b0b0b0; stroke-width: 0.8; stroke-linecap: square"/>
     </g>
     <g id="line2d_8">
      <g>
       <use xlink:href="#m355dbde583" x="388.323006" y="457.198125" style="stroke: #000000; stroke-width: 0.8"/>
      </g>
     </g>
     <g id="text_4">
      <!-- 0 -->
      <g transform="translate(385.141756 471.796562)scale(0.1 -0.1)">
       <defs>
        <path id="DejaVuSans-30" d="M 2034 4250 
Q 1547 4250 1301 3770 
Q 1056 3291 1056 2328 
Q 1056 1369 1301 889 
Q 1547 409 2034 409 
Q 2525 409 2770 889 
Q 3016 1369 3016 2328 
Q 3016 3291 2770 3770 
Q 2525 4250 2034 4250 
z
M 2034 4750 
Q 2819 4750 3233 4129 
Q 3647 3509 3647 2328 
Q 3647 1150 3233 529 
Q 2819 -91 2034 -91 
Q 1250 -91 836 529 
Q 422 1150 422 2328 
Q 422 3509 836 4129 
Q 1250 4750 2034 4750 
z
" transform="scale(0.015625)"/>
       </defs>
       <use xlink:href="#DejaVuSans-30"/>
      </g>
     </g>
    </g>
    <g id="xtick_5">
     <g id="line2d_9">
      <path d="M 490.56791 457.198125 
L 490.56791 22.318125 
" clip-path="url(#p3931c95a90)" style="fill: none; stroke: #b0b0b0; stroke-width: 0.8; stroke-linecap: square"/>
     </g>
     <g id="line2d_10">
      <g>
       <use xlink:href="#m355dbde583" x="490.56791" y="457.198125" style="stroke: #000000; stroke-width: 0.8"/>
      </g>
     </g>
     <g id="text_5">
      <!-- 1 -->
      <g transform="translate(487.38666 471.796562)scale(0.1 -0.1)">
       <use xlink:href="#DejaVuSans-31"/>
      </g>
     </g>
    </g>
    <g id="xtick_6">
     <g id="line2d_11">
      <path d="M 592.812814 457.198125 
L 592.812814 22.318125 
" clip-path="url(#p3931c95a90)" style="fill: none; stroke: #b0b0b0; stroke-width: 0.8; stroke-linecap: square"/>
     </g>
     <g id="line2d_12">
      <g>
       <use xlink:href="#m355dbde583" x="592.812814" y="457.198125" style="stroke: #000000; stroke-width: 0.8"/>
      </g>
     </g>
     <g id="text_6">
      <!-- 2 -->
      <g transform="translate(589.631564 471.796562)scale(0.1 -0.1)">
       <use xlink:href="#DejaVuSans-32"/>
      </g>
     </g>
    </g>
    <g id="xtick_7">
     <g id="line2d_13">
      <path d="M 695.057719 457.198125 
L 695.057719 22.318125 
" clip-path="url(#p3931c95a90)" style="fill: none; stroke: #b0b0b0; stroke-width: 0.8; stroke-linecap: square"/>
     </g>
     <g id="line2d_14">
      <g>
       <use xlink:href="#m355dbde583" x="695.057719" y="457.198125" style="stroke: #000000; stroke-width: 0.8"/>
      </g>
     </g>
     <g id="text_7">
      <!-- 3 -->
      <g transform="translate(691.876469 471.796562)scale(0.1 -0.1)">
       <use xlink:href="#DejaVuSans-33"/>
      </g>
     </g>
    </g>
    <g id="text_8">
     <!-- x -->
     <g transform="translate(384.001562 485.474687)scale(0.1 -0.1)">
      <defs>
       <path id="DejaVuSans-78" d="M 3513 3500 
L 2247 1797 
L 3578 0 
L 2900 0 
L 1881 1375 
L 863 0 
L 184 0 
L 1544 1831 
L 300 3500 
L 978 3500 
L 1906 2253 
L 2834 3500 
L 3513 3500 
z
" transform="scale(0.015625)"/>
      </defs>
      <use xlink:href="#DejaVuSans-78"/>
     </g>
    </g>
   </g>
   <g id="matplotlib.axis_2">
    <g id="ytick_1">
     <g id="line2d_15">
      <path d="M 52.160938 428.524259 
L 721.760938 428.524259 
" clip-path="url(#p3931c95a90)" style="fill: none; stroke: #b0b0b0; stroke-width: 0.8; stroke-linecap: square"/>
     </g>
     <g id="line2d_16">
      <defs>
       <path id="md88ba57570" d="M 0 0 
L -3.5 0 
" style="stroke: #000000; stroke-width: 0.8"/>
      </defs>
      <g>
       <use xlink:href="#md88ba57570" x="52.160938" y="428.524259" style="stroke: #000000; stroke-width: 0.8"/>
      </g>
     </g>
     <g id="text_9">
      <!-- −1.0 -->
      <g transform="translate(20.878125 432.323478)scale(0.1 -0.1)">
       <defs>
        <path id="DejaVuSans-2e" d="M 684 794 
L 1344 794 
L 1344 0 
L 684 0 
L 684 794 
z
" transform="scale(0.015625)"/>
       </defs>
       <use xlink:href="#DejaVuSans-2212"/>
       <use xlink:href="#DejaVuSans-31" x="83.789062"/>
       <use xlink:href="#DejaVuSans-2e" x="147.412109"/>
       <use xlink:href="#DejaVuSans-30" x="179.199219"/>
      </g>
     </g>
    </g>
    <g id="ytick_2">
     <g id="line2d_17">
      <path d="M 52.160938 347.825738 
L 721.760938 347.825738 
" clip-path="url(#p3931c95a90)" style="fill: none; stroke: #b0b0b0; stroke-width: 0.8; stroke-linecap: square"/>
     </g>
     <g id="line2d_18">
      <g>
       <use xlink:href="#md88ba57570" x="52.160938" y="347.825738" style="stroke: #000000; stroke-width: 0.8"/>
      </g>
     </g>
     <g id="text_10">
      <!-- −0.5 -->
      <g transform="translate(20.878125 351.624957)scale(0.1 -0.1)">
       <defs>
        <path id="DejaVuSans-35" d="M 691 4666 
L 3169 4666 
L 3169 4134 
L 1269 4134 
L 1269 2991 
Q 1406 3038 1543 3061 
Q 1681 3084 1819 3084 
Q 2600 3084 3056 2656 
Q 3513 2228 3513 1497 
Q 3513 744 3044 326 
Q 2575 -91 1722 -91 
Q 1428 -91 1123 -41 
Q 819 9 494 109 
L 494 744 
Q 775 591 1075 516 
Q 1375 441 1709 441 
Q 2250 441 2565 725 
Q 2881 1009 2881 1497 
Q 2881 1984 2565 2268 
Q 2250 2553 1709 2553 
Q 1456 2553 1204 2497 
Q 953 2441 691 2322 
L 691 4666 
z
" transform="scale(0.015625)"/>
       </defs>
       <use xlink:href="#DejaVuSans-2212"/>
       <use xlink:href="#DejaVuSans-30" x="83.789062"/>
       <use xlink:href="#DejaVuSans-2e" x="147.412109"/>
       <use xlink:href="#DejaVuSans-35" x="179.199219"/>
      </g>
     </g>
    </g>
    <g id="ytick_3">
     <g id="line2d_19">
      <path d="M 52.160938 267.127217 
L 721.760938 267.127217 
" clip-path="url(#p3931c95a90)" style="fill: none; stroke: #b0b0b0; stroke-width: 0.8; stroke-linecap: square"/>
     </g>
     <g id="line2d_20">
      <g>
       <use xlink:href="#md88ba57570" x="52.160938" y="267.127217" style="stroke: #000000; stroke-width: 0.8"/>
      </g>
     </g>
     <g id="text_11">
      <!-- 0.0 -->
      <g transform="translate(29.257813 270.926436)scale(0.1 -0.1)">
       <use xlink:href="#DejaVuSans-30"/>
       <use xlink:href="#DejaVuSans-2e" x="63.623047"/>
       <use xlink:href="#DejaVuSans-30" x="95.410156"/>
      </g>
     </g>
    </g>
    <g id="ytick_4">
     <g id="line2d_21">
      <path d="M 52.160938 186.428696 
L 721.760938 186.428696 
" clip-path="url(#p3931c95a90)" style="fill: none; stroke: #b0b0b0; stroke-width: 0.8; stroke-linecap: square"/>
     </g>
     <g id="line2d_22">
      <g>
       <use xlink:href="#md88ba57570" x="52.160938" y="186.428696" style="stroke: #000000; stroke-width: 0.8"/>
      </g>
     </g>
     <g id="text_12">
      <!-- 0.5 -->
      <g transform="translate(29.257813 190.227915)scale(0.1 -0.1)">
       <use xlink:href="#DejaVuSans-30"/>
       <use xlink:href="#DejaVuSans-2e" x="63.623047"/>
       <use xlink:href="#DejaVuSans-35" x="95.410156"/>
      </g>
     </g>
    </g>
    <g id="ytick_5">
     <g id="line2d_23">
      <path d="M 52.160938 105.730175 
L 721.760938 105.730175 
" clip-path="url(#p3931c95a90)" style="fill: none; stroke: #b0b0b0; stroke-width: 0.8; stroke-linecap: square"/>
     </g>
     <g id="line2d_24">
      <g>
       <use xlink:href="#md88ba57570" x="52.160938" y="105.730175" style="stroke: #000000; stroke-width: 0.8"/>
      </g>
     </g>
     <g id="text_13">
      <!-- 1.0 -->
      <g transform="translate(29.257813 109.529394)scale(0.1 -0.1)">
       <use xlink:href="#DejaVuSans-31"/>
       <use xlink:href="#DejaVuSans-2e" x="63.623047"/>
       <use xlink:href="#DejaVuSans-30" x="95.410156"/>
      </g>
     </g>
    </g>
    <g id="ytick_6">
     <g id="line2d_25">
      <path d="M 52.160938 25.031654 
L 721.760938 25.031654 
" clip-path="url(#p3931c95a90)" style="fill: none; stroke: #b0b0b0; stroke-width: 0.8; stroke-linecap: square"/>
     </g>
     <g id="line2d_26">
      <g>
       <use xlink:href="#md88ba57570" x="52.160938" y="25.031654" style="stroke: #000000; stroke-width: 0.8"/>
      </g>
     </g>
     <g id="text_14">
      <!-- 1.5 -->
      <g transform="translate(29.257813 28.830872)scale(0.1 -0.1)">
       <use xlink:href="#DejaVuSans-31"/>
       <use xlink:href="#DejaVuSans-2e" x="63.623047"/>
       <use xlink:href="#DejaVuSans-35" x="95.410156"/>
      </g>
     </g>
    </g>
    <g id="text_15">
     <!-- f(x) -->
     <g transform="translate(14.798438 248.379219)rotate(-90)scale(0.1 -0.1)">
      <defs>
       <path id="DejaVuSans-66" d="M 2375 4863 
L 2375 4384 
L 1825 4384 
Q 1516 4384 1395 4259 
Q 1275 4134 1275 3809 
L 1275 3500 
L 2222 3500 
L 2222 3053 
L 1275 3053 
L 1275 0 
L 697 0 
L 697 3053 
L 147 3053 
L 147 3500 
L 697 3500 
L 697 3744 
Q 697 4328 969 4595 
Q 1241 4863 1831 4863 
L 2375 4863 
z
" transform="scale(0.015625)"/>
       <path id="DejaVuSans-28" d="M 1984 4856 
Q 1566 4138 1362 3434 
Q 1159 2731 1159 2009 
Q 1159 1288 1364 580 
Q 1569 -128 1984 -844 
L 1484 -844 
Q 1016 -109 783 600 
Q 550 1309 550 2009 
Q 550 2706 781 3412 
Q 1013 4119 1484 4856 
L 1984 4856 
z
" transform="scale(0.015625)"/>
       <path id="DejaVuSans-29" d="M 513 4856 
L 1013 4856 
Q 1481 4119 1714 3412 
Q 1947 2706 1947 2009 
Q 1947 1309 1714 600 
Q 1481 -109 1013 -844 
L 513 -844 
Q 928 -128 1133 580 
Q 1338 1288 1338 2009 
Q 1338 2731 1133 3434 
Q 928 4138 513 4856 
z
" transform="scale(0.015625)"/>
      </defs>
      <use xlink:href="#DejaVuSans-66"/>
      <use xlink:href="#DejaVuSans-28" x="35.205078"/>
      <use xlink:href="#DejaVuSans-78" x="74.21875"/>
      <use xlink:href="#DejaVuSans-29" x="133.398438"/>
     </g>
    </g>
   </g>
   <g id="line2d_27">
    <path d="M 82.597301 315.991883 
L 87.136745 319.476944 
L 88.956137 320.917642 
L 90.792884 322.416166 
L 96.252925 326.858597 
L 99.476424 329.596876 
L 100.455933 330.42982 
L 116.452497 344.964679 
L 125.594416 353.887174 
L 129.64191 357.917835 
L 130.461012 358.760759 
L 140.61098 368.891903 
L 141.543199 369.854655 
L 147.120723 375.224941 
L 148.730465 376.76649 
L 156.078514 383.468677 
L 157.650873 384.825147 
L 159.862179 386.746879 
L 162.955391 389.202715 
L 167.031526 392.410258 
L 168.428117 393.49781 
L 201.475447 411.060587 
L 204.723855 412.051064 
L 205.120552 412.2661 
L 210.414257 413.758943 
L 216.405583 415.510046 
L 216.79667 415.60057 
L 246.506236 430.392986 
L 262.743711 420.915012 
L 265.014827 417.788806 
L 267.870578 413.990497 
L 283.88961 391.614538 
L 284.042519 391.353057 
L 296.976707 371.048768 
L 304.45609 358.635795 
L 305.092873 357.580817 
L 305.730207 356.544337 
L 309.389469 350.308298 
L 321.099226 330.346395 
L 327.766518 319.282259 
L 328.965197 317.341306 
L 330.773146 314.421593 
L 339.234299 301.356781 
L 339.54881 300.913539 
L 339.968155 300.259748 
L 342.490886 296.56771 
L 353.891782 281.14628 
L 355.19452 279.514629 
L 358.797497 275.304132 
L 363.4434 270.378777 
L 366.908727 267.231272 
L 387.658846 257.353308 
L 388.011621 257.05887 
L 397.939355 242.472369 
L 398.99378 240.648176 
L 400.896966 237.351566 
L 411.478544 218.951056 
L 411.848799 218.304327 
L 416.750594 209.625656 
L 417.49497 208.307656 
L 430.716833 184.314785 
L 433.56741 179.1508 
L 443.538604 161.554689 
L 449.080816 152.394464 
L 451.800563 148.112693 
L 454.487099 144.067265 
L 456.73029 140.833209 
L 459.11748 137.524425 
L 462.933362 132.585221 
L 463.791167 131.536255 
L 472.102203 122.553548 
L 473.895505 120.914779 
L 475.880359 119.226688 
L 489.930436 110.86376 
L 490.007001 110.834467 
L 497.750445 108.606318 
L 500.601009 108.119507 
L 501.22973 108.025731 
L 501.55047 107.975736 
L 508.36536 107.339112 
L 527.901133 106.476871 
L 537.653506 106.309001 
L 549.611996 107.228848 
L 554.595374 108.085356 
L 556.886147 108.590551 
L 567.333078 111.677267 
L 586.994532 119.810931 
L 618.782575 134.700633 
L 621.670446 136.020865 
L 626.315525 138.099269 
L 633.54355 141.242935 
L 644.717276 145.992701 
L 645.857915 146.464419 
L 646.470738 146.723024 
L 653.511939 149.581621 
L 655.956684 150.583987 
L 658.788719 151.717408 
L 677.231566 158.895525 
L 679.479666 159.766473 
L 691.324574 164.224868 
" clip-path="url(#p3931c95a90)" style="fill: none; stroke: #1f77b4; stroke-width: 1.5; stroke-linecap: square"/>
   </g>
   <g id="line2d_28">
    <path d="M 82.597301 328.045432 
L 87.136745 329.951157 
L 88.956137 330.735053 
L 90.792884 331.536232 
L 96.252925 333.982847 
L 99.476424 335.470847 
L 100.455933 335.93784 
L 116.452497 344.596223 
L 125.594416 353.481979 
L 129.64191 357.501355 
L 130.461012 358.33037 
L 140.61098 368.634327 
L 141.543199 369.596281 
L 147.120723 375.365537 
L 148.730465 377.049174 
L 156.078514 382.645223 
L 157.650873 383.748167 
L 159.862179 385.296903 
L 162.955391 387.465542 
L 167.031526 390.34158 
L 168.428117 391.331066 
L 201.475447 411.756672 
L 204.723855 413.087034 
L 205.120552 413.250728 
L 210.414257 415.274201 
L 216.405583 417.338271 
L 216.79667 417.458531 
L 246.506236 430.955853 
L 262.743711 415.742629 
L 265.014827 412.042512 
L 267.870578 407.362693 
L 283.88961 395.696993 
L 284.042519 395.439918 
L 296.976707 372.487749 
L 304.45609 358.684251 
L 305.092873 357.614227 
L 305.730207 356.545973 
L 309.389469 350.403671 
L 321.099226 331.260912 
L 327.766518 321.08226 
L 328.965197 319.329238 
L 330.773146 316.73588 
L 339.234299 305.466446 
L 339.54881 305.077181 
L 339.968155 304.560428 
L 342.490886 301.53883 
L 353.891782 289.72131 
L 355.19452 288.569573 
L 358.797497 285.603766 
L 363.4434 282.241302 
L 366.908727 280.035821 
L 387.658846 266.416357 
L 388.011621 265.881917 
L 397.939355 244.190753 
L 398.99378 241.922558 
L 400.896966 237.980296 
L 411.478544 221.734217 
L 411.848799 221.377281 
L 416.750594 217.525947 
L 417.49497 217.069482 
L 430.716833 212.578817 
L 433.56741 212.12353 
L 443.538604 210.84859 
L 449.080816 210.108243 
L 451.800563 209.706238 
L 454.487099 209.281254 
L 456.73029 208.905006 
L 459.11748 208.483765 
L 462.933362 207.768387 
L 463.791167 207.600888 
L 472.102203 205.840656 
L 473.895505 205.424432 
L 475.880359 204.944191 
L 489.930436 200.706143 
L 490.007001 200.678475 
L 497.750445 197.452558 
L 500.601009 196.077906 
L 501.22973 195.762572 
L 501.55047 195.600244 
L 508.36536 191.85042 
L 527.901133 178.557014 
L 537.653506 170.978858 
L 549.611996 161.515468 
L 554.595374 157.653023 
L 556.886147 155.905971 
L 567.333078 148.237955 
L 586.994532 135.399547 
L 618.782575 125.926902 
L 621.670446 125.902641 
L 626.315525 125.958898 
L 633.54355 126.273078 
L 644.717276 127.281131 
L 645.857915 127.418004 
L 646.470738 127.493396 
L 653.511939 128.484162 
L 655.956684 128.880737 
L 658.788719 129.36953 
L 677.231566 133.302788 
L 679.479666 133.861374 
L 691.324574 137.04327 
" clip-path="url(#p3931c95a90)" style="fill: none; stroke: #2ca02c; stroke-width: 1.5; stroke-linecap: square"/>
   </g>
   <g id="patch_3">
    <path d="M 52.160938 457.198125 
L 52.160938 22.318125 
" style="fill: none; stroke: #000000; stroke-width: 0.8; stroke-linejoin: miter; stroke-linecap: square"/>
   </g>
   <g id="patch_4">
    <path d="M 721.760938 457.198125 
L 721.760938 22.318125 
" style="fill: none; stroke: #000000; stroke-width: 0.8; stroke-linejoin: miter; stroke-linecap: square"/>
   </g>
   <g id="patch_5">
    <path d="M 52.160937 457.198125 
L 721.760937 457.198125 
" style="fill: none; stroke: #000000; stroke-width: 0.8; stroke-linejoin: miter; stroke-linecap: square"/>
   </g>
   <g id="patch_6">
    <path d="M 52.160937 22.318125 
L 721.760937 22.318125 
" style="fill: none; stroke: #000000; stroke-width: 0.8; stroke-linejoin: miter; stroke-linecap: square"/>
   </g>
   <g id="text_16">
    <!-- Comparison of the NNGP and NTK outputs -->
    <g transform="translate(260.429375 16.318125)scale(0.12 -0.12)">
     <defs>
      <path id="DejaVuSans-43" d="M 4122 4306 
L 4122 3641 
Q 3803 3938 3442 4084 
Q 3081 4231 2675 4231 
Q 1875 4231 1450 3742 
Q 1025 3253 1025 2328 
Q 1025 1406 1450 917 
Q 1875 428 2675 428 
Q 3081 428 3442 575 
Q 3803 722 4122 1019 
L 4122 359 
Q 3791 134 3420 21 
Q 3050 -91 2638 -91 
Q 1578 -91 968 557 
Q 359 1206 359 2328 
Q 359 3453 968 4101 
Q 1578 4750 2638 4750 
Q 3056 4750 3426 4639 
Q 3797 4528 4122 4306 
z
" transform="scale(0.015625)"/>
      <path id="DejaVuSans-6f" d="M 1959 3097 
Q 1497 3097 1228 2736 
Q 959 2375 959 1747 
Q 959 1119 1226 758 
Q 1494 397 1959 397 
Q 2419 397 2687 759 
Q 2956 1122 2956 1747 
Q 2956 2369 2687 2733 
Q 2419 3097 1959 3097 
z
M 1959 3584 
Q 2709 3584 3137 3096 
Q 3566 2609 3566 1747 
Q 3566 888 3137 398 
Q 2709 -91 1959 -91 
Q 1206 -91 779 398 
Q 353 888 353 1747 
Q 353 2609 779 3096 
Q 1206 3584 1959 3584 
z
" transform="scale(0.015625)"/>
      <path id="DejaVuSans-6d" d="M 3328 2828 
Q 3544 3216 3844 3400 
Q 4144 3584 4550 3584 
Q 5097 3584 5394 3201 
Q 5691 2819 5691 2113 
L 5691 0 
L 5113 0 
L 5113 2094 
Q 5113 2597 4934 2840 
Q 4756 3084 4391 3084 
Q 3944 3084 3684 2787 
Q 3425 2491 3425 1978 
L 3425 0 
L 2847 0 
L 2847 2094 
Q 2847 2600 2669 2842 
Q 2491 3084 2119 3084 
Q 1678 3084 1418 2786 
Q 1159 2488 1159 1978 
L 1159 0 
L 581 0 
L 581 3500 
L 1159 3500 
L 1159 2956 
Q 1356 3278 1631 3431 
Q 1906 3584 2284 3584 
Q 2666 3584 2933 3390 
Q 3200 3197 3328 2828 
z
" transform="scale(0.015625)"/>
      <path id="DejaVuSans-70" d="M 1159 525 
L 1159 -1331 
L 581 -1331 
L 581 3500 
L 1159 3500 
L 1159 2969 
Q 1341 3281 1617 3432 
Q 1894 3584 2278 3584 
Q 2916 3584 3314 3078 
Q 3713 2572 3713 1747 
Q 3713 922 3314 415 
Q 2916 -91 2278 -91 
Q 1894 -91 1617 61 
Q 1341 213 1159 525 
z
M 3116 1747 
Q 3116 2381 2855 2742 
Q 2594 3103 2138 3103 
Q 1681 3103 1420 2742 
Q 1159 2381 1159 1747 
Q 1159 1113 1420 752 
Q 1681 391 2138 391 
Q 2594 391 2855 752 
Q 3116 1113 3116 1747 
z
" transform="scale(0.015625)"/>
      <path id="DejaVuSans-61" d="M 2194 1759 
Q 1497 1759 1228 1600 
Q 959 1441 959 1056 
Q 959 750 1161 570 
Q 1363 391 1709 391 
Q 2188 391 2477 730 
Q 2766 1069 2766 1631 
L 2766 1759 
L 2194 1759 
z
M 3341 1997 
L 3341 0 
L 2766 0 
L 2766 531 
Q 2569 213 2275 61 
Q 1981 -91 1556 -91 
Q 1019 -91 701 211 
Q 384 513 384 1019 
Q 384 1609 779 1909 
Q 1175 2209 1959 2209 
L 2766 2209 
L 2766 2266 
Q 2766 2663 2505 2880 
Q 2244 3097 1772 3097 
Q 1472 3097 1187 3025 
Q 903 2953 641 2809 
L 641 3341 
Q 956 3463 1253 3523 
Q 1550 3584 1831 3584 
Q 2591 3584 2966 3190 
Q 3341 2797 3341 1997 
z
" transform="scale(0.015625)"/>
      <path id="DejaVuSans-72" d="M 2631 2963 
Q 2534 3019 2420 3045 
Q 2306 3072 2169 3072 
Q 1681 3072 1420 2755 
Q 1159 2438 1159 1844 
L 1159 0 
L 581 0 
L 581 3500 
L 1159 3500 
L 1159 2956 
Q 1341 3275 1631 3429 
Q 1922 3584 2338 3584 
Q 2397 3584 2469 3576 
Q 2541 3569 2628 3553 
L 2631 2963 
z
" transform="scale(0.015625)"/>
      <path id="DejaVuSans-69" d="M 603 3500 
L 1178 3500 
L 1178 0 
L 603 0 
L 603 3500 
z
M 603 4863 
L 1178 4863 
L 1178 4134 
L 603 4134 
L 603 4863 
z
" transform="scale(0.015625)"/>
      <path id="DejaVuSans-73" d="M 2834 3397 
L 2834 2853 
Q 2591 2978 2328 3040 
Q 2066 3103 1784 3103 
Q 1356 3103 1142 2972 
Q 928 2841 928 2578 
Q 928 2378 1081 2264 
Q 1234 2150 1697 2047 
L 1894 2003 
Q 2506 1872 2764 1633 
Q 3022 1394 3022 966 
Q 3022 478 2636 193 
Q 2250 -91 1575 -91 
Q 1294 -91 989 -36 
Q 684 19 347 128 
L 347 722 
Q 666 556 975 473 
Q 1284 391 1588 391 
Q 1994 391 2212 530 
Q 2431 669 2431 922 
Q 2431 1156 2273 1281 
Q 2116 1406 1581 1522 
L 1381 1569 
Q 847 1681 609 1914 
Q 372 2147 372 2553 
Q 372 3047 722 3315 
Q 1072 3584 1716 3584 
Q 2034 3584 2315 3537 
Q 2597 3491 2834 3397 
z
" transform="scale(0.015625)"/>
      <path id="DejaVuSans-6e" d="M 3513 2113 
L 3513 0 
L 2938 0 
L 2938 2094 
Q 2938 2591 2744 2837 
Q 2550 3084 2163 3084 
Q 1697 3084 1428 2787 
Q 1159 2491 1159 1978 
L 1159 0 
L 581 0 
L 581 3500 
L 1159 3500 
L 1159 2956 
Q 1366 3272 1645 3428 
Q 1925 3584 2291 3584 
Q 2894 3584 3203 3211 
Q 3513 2838 3513 2113 
z
" transform="scale(0.015625)"/>
      <path id="DejaVuSans-20" transform="scale(0.015625)"/>
      <path id="DejaVuSans-74" d="M 1172 4494 
L 1172 3500 
L 2356 3500 
L 2356 3053 
L 1172 3053 
L 1172 1153 
Q 1172 725 1289 603 
Q 1406 481 1766 481 
L 2356 481 
L 2356 0 
L 1766 0 
Q 1100 0 847 248 
Q 594 497 594 1153 
L 594 3053 
L 172 3053 
L 172 3500 
L 594 3500 
L 594 4494 
L 1172 4494 
z
" transform="scale(0.015625)"/>
      <path id="DejaVuSans-68" d="M 3513 2113 
L 3513 0 
L 2938 0 
L 2938 2094 
Q 2938 2591 2744 2837 
Q 2550 3084 2163 3084 
Q 1697 3084 1428 2787 
Q 1159 2491 1159 1978 
L 1159 0 
L 581 0 
L 581 4863 
L 1159 4863 
L 1159 2956 
Q 1366 3272 1645 3428 
Q 1925 3584 2291 3584 
Q 2894 3584 3203 3211 
Q 3513 2838 3513 2113 
z
" transform="scale(0.015625)"/>
      <path id="DejaVuSans-65" d="M 3597 1894 
L 3597 1613 
L 953 1613 
Q 991 1019 1311 708 
Q 1631 397 2203 397 
Q 2534 397 2845 478 
Q 3156 559 3463 722 
L 3463 178 
Q 3153 47 2828 -22 
Q 2503 -91 2169 -91 
Q 1331 -91 842 396 
Q 353 884 353 1716 
Q 353 2575 817 3079 
Q 1281 3584 2069 3584 
Q 2775 3584 3186 3129 
Q 3597 2675 3597 1894 
z
M 3022 2063 
Q 3016 2534 2758 2815 
Q 2500 3097 2075 3097 
Q 1594 3097 1305 2825 
Q 1016 2553 972 2059 
L 3022 2063 
z
" transform="scale(0.015625)"/>
      <path id="DejaVuSans-4e" d="M 628 4666 
L 1478 4666 
L 3547 763 
L 3547 4666 
L 4159 4666 
L 4159 0 
L 3309 0 
L 1241 3903 
L 1241 0 
L 628 0 
L 628 4666 
z
" transform="scale(0.015625)"/>
      <path id="DejaVuSans-47" d="M 3809 666 
L 3809 1919 
L 2778 1919 
L 2778 2438 
L 4434 2438 
L 4434 434 
Q 4069 175 3628 42 
Q 3188 -91 2688 -91 
Q 1594 -91 976 548 
Q 359 1188 359 2328 
Q 359 3472 976 4111 
Q 1594 4750 2688 4750 
Q 3144 4750 3555 4637 
Q 3966 4525 4313 4306 
L 4313 3634 
Q 3963 3931 3569 4081 
Q 3175 4231 2741 4231 
Q 1884 4231 1454 3753 
Q 1025 3275 1025 2328 
Q 1025 1384 1454 906 
Q 1884 428 2741 428 
Q 3075 428 3337 486 
Q 3600 544 3809 666 
z
" transform="scale(0.015625)"/>
      <path id="DejaVuSans-50" d="M 1259 4147 
L 1259 2394 
L 2053 2394 
Q 2494 2394 2734 2622 
Q 2975 2850 2975 3272 
Q 2975 3691 2734 3919 
Q 2494 4147 2053 4147 
L 1259 4147 
z
M 628 4666 
L 2053 4666 
Q 2838 4666 3239 4311 
Q 3641 3956 3641 3272 
Q 3641 2581 3239 2228 
Q 2838 1875 2053 1875 
L 1259 1875 
L 1259 0 
L 628 0 
L 628 4666 
z
" transform="scale(0.015625)"/>
      <path id="DejaVuSans-64" d="M 2906 2969 
L 2906 4863 
L 3481 4863 
L 3481 0 
L 2906 0 
L 2906 525 
Q 2725 213 2448 61 
Q 2172 -91 1784 -91 
Q 1150 -91 751 415 
Q 353 922 353 1747 
Q 353 2572 751 3078 
Q 1150 3584 1784 3584 
Q 2172 3584 2448 3432 
Q 2725 3281 2906 2969 
z
M 947 1747 
Q 947 1113 1208 752 
Q 1469 391 1925 391 
Q 2381 391 2643 752 
Q 2906 1113 2906 1747 
Q 2906 2381 2643 2742 
Q 2381 3103 1925 3103 
Q 1469 3103 1208 2742 
Q 947 2381 947 1747 
z
" transform="scale(0.015625)"/>
      <path id="DejaVuSans-54" d="M -19 4666 
L 3928 4666 
L 3928 4134 
L 2272 4134 
L 2272 0 
L 1638 0 
L 1638 4134 
L -19 4134 
L -19 4666 
z
" transform="scale(0.015625)"/>
      <path id="DejaVuSans-4b" d="M 628 4666 
L 1259 4666 
L 1259 2694 
L 3353 4666 
L 4166 4666 
L 1850 2491 
L 4331 0 
L 3500 0 
L 1259 2247 
L 1259 0 
L 628 0 
L 628 4666 
z
" transform="scale(0.015625)"/>
      <path id="DejaVuSans-75" d="M 544 1381 
L 544 3500 
L 1119 3500 
L 1119 1403 
Q 1119 906 1312 657 
Q 1506 409 1894 409 
Q 2359 409 2629 706 
Q 2900 1003 2900 1516 
L 2900 3500 
L 3475 3500 
L 3475 0 
L 2900 0 
L 2900 538 
Q 2691 219 2414 64 
Q 2138 -91 1772 -91 
Q 1169 -91 856 284 
Q 544 659 544 1381 
z
M 1991 3584 
L 1991 3584 
z
" transform="scale(0.015625)"/>
     </defs>
     <use xlink:href="#DejaVuSans-43"/>
     <use xlink:href="#DejaVuSans-6f" x="69.824219"/>
     <use xlink:href="#DejaVuSans-6d" x="131.005859"/>
     <use xlink:href="#DejaVuSans-70" x="228.417969"/>
     <use xlink:href="#DejaVuSans-61" x="291.894531"/>
     <use xlink:href="#DejaVuSans-72" x="353.173828"/>
     <use xlink:href="#DejaVuSans-69" x="394.287109"/>
     <use xlink:href="#DejaVuSans-73" x="422.070312"/>
     <use xlink:href="#DejaVuSans-6f" x="474.169922"/>
     <use xlink:href="#DejaVuSans-6e" x="535.351562"/>
     <use xlink:href="#DejaVuSans-20" x="598.730469"/>
     <use xlink:href="#DejaVuSans-6f" x="630.517578"/>
     <use xlink:href="#DejaVuSans-66" x="691.699219"/>
     <use xlink:href="#DejaVuSans-20" x="726.904297"/>
     <use xlink:href="#DejaVuSans-74" x="758.691406"/>
     <use xlink:href="#DejaVuSans-68" x="797.900391"/>
     <use xlink:href="#DejaVuSans-65" x="861.279297"/>
     <use xlink:href="#DejaVuSans-20" x="922.802734"/>
     <use xlink:href="#DejaVuSans-4e" x="954.589844"/>
     <use xlink:href="#DejaVuSans-4e" x="1029.394531"/>
     <use xlink:href="#DejaVuSans-47" x="1104.199219"/>
     <use xlink:href="#DejaVuSans-50" x="1181.689453"/>
     <use xlink:href="#DejaVuSans-20" x="1241.992188"/>
     <use xlink:href="#DejaVuSans-61" x="1273.779297"/>
     <use xlink:href="#DejaVuSans-6e" x="1335.058594"/>
     <use xlink:href="#DejaVuSans-64" x="1398.4375"/>
     <use xlink:href="#DejaVuSans-20" x="1461.914062"/>
     <use xlink:href="#DejaVuSans-4e" x="1493.701172"/>
     <use xlink:href="#DejaVuSans-54" x="1568.505859"/>
     <use xlink:href="#DejaVuSans-4b" x="1629.589844"/>
     <use xlink:href="#DejaVuSans-20" x="1695.166016"/>
     <use xlink:href="#DejaVuSans-6f" x="1726.953125"/>
     <use xlink:href="#DejaVuSans-75" x="1788.134766"/>
     <use xlink:href="#DejaVuSans-74" x="1851.513672"/>
     <use xlink:href="#DejaVuSans-70" x="1890.722656"/>
     <use xlink:href="#DejaVuSans-75" x="1954.199219"/>
     <use xlink:href="#DejaVuSans-74" x="2017.578125"/>
     <use xlink:href="#DejaVuSans-73" x="2056.787109"/>
    </g>
   </g>
   <g id="legend_1">
    <g id="patch_7">
     <path d="M 561.8625 452.198125 
L 714.760938 452.198125 
Q 716.760938 452.198125 716.760938 450.198125 
L 716.760938 392.485625 
Q 716.760938 390.485625 714.760938 390.485625 
L 561.8625 390.485625 
Q 559.8625 390.485625 559.8625 392.485625 
L 559.8625 450.198125 
Q 559.8625 452.198125 561.8625 452.198125 
z
" style="fill: #ffffff; opacity: 0.8; stroke: #cccccc; stroke-linejoin: miter"/>
    </g>
    <g id="line2d_29">
     <path d="M 563.8625 398.584062 
L 573.8625 398.584062 
L 583.8625 398.584062 
" style="fill: none; stroke: #1f77b4; stroke-width: 1.5; stroke-linecap: square"/>
    </g>
    <g id="text_17">
     <!-- Mean predictions, NNGP -->
     <g transform="translate(591.8625 402.084062)scale(0.1 -0.1)">
      <defs>
       <path id="DejaVuSans-4d" d="M 628 4666 
L 1569 4666 
L 2759 1491 
L 3956 4666 
L 4897 4666 
L 4897 0 
L 4281 0 
L 4281 4097 
L 3078 897 
L 2444 897 
L 1241 4097 
L 1241 0 
L 628 0 
L 628 4666 
z
" transform="scale(0.015625)"/>
       <path id="DejaVuSans-63" d="M 3122 3366 
L 3122 2828 
Q 2878 2963 2633 3030 
Q 2388 3097 2138 3097 
Q 1578 3097 1268 2742 
Q 959 2388 959 1747 
Q 959 1106 1268 751 
Q 1578 397 2138 397 
Q 2388 397 2633 464 
Q 2878 531 3122 666 
L 3122 134 
Q 2881 22 2623 -34 
Q 2366 -91 2075 -91 
Q 1284 -91 818 406 
Q 353 903 353 1747 
Q 353 2603 823 3093 
Q 1294 3584 2113 3584 
Q 2378 3584 2631 3529 
Q 2884 3475 3122 3366 
z
" transform="scale(0.015625)"/>
       <path id="DejaVuSans-2c" d="M 750 794 
L 1409 794 
L 1409 256 
L 897 -744 
L 494 -744 
L 750 256 
L 750 794 
z
" transform="scale(0.015625)"/>
      </defs>
      <use xlink:href="#DejaVuSans-4d"/>
      <use xlink:href="#DejaVuSans-65" x="86.279297"/>
      <use xlink:href="#DejaVuSans-61" x="147.802734"/>
      <use xlink:href="#DejaVuSans-6e" x="209.082031"/>
      <use xlink:href="#DejaVuSans-20" x="272.460938"/>
      <use xlink:href="#DejaVuSans-70" x="304.248047"/>
      <use xlink:href="#DejaVuSans-72" x="367.724609"/>
      <use xlink:href="#DejaVuSans-65" x="406.587891"/>
      <use xlink:href="#DejaVuSans-64" x="468.111328"/>
      <use xlink:href="#DejaVuSans-69" x="531.587891"/>
      <use xlink:href="#DejaVuSans-63" x="559.371094"/>
      <use xlink:href="#DejaVuSans-74" x="614.351562"/>
      <use xlink:href="#DejaVuSans-69" x="653.560547"/>
      <use xlink:href="#DejaVuSans-6f" x="681.34375"/>
      <use xlink:href="#DejaVuSans-6e" x="742.525391"/>
      <use xlink:href="#DejaVuSans-73" x="805.904297"/>
      <use xlink:href="#DejaVuSans-2c" x="858.003906"/>
      <use xlink:href="#DejaVuSans-20" x="889.791016"/>
      <use xlink:href="#DejaVuSans-4e" x="921.578125"/>
      <use xlink:href="#DejaVuSans-4e" x="996.382812"/>
      <use xlink:href="#DejaVuSans-47" x="1071.1875"/>
      <use xlink:href="#DejaVuSans-50" x="1148.677734"/>
     </g>
    </g>
    <g id="line2d_30">
     <path d="M 563.8625 413.262187 
L 573.8625 413.262187 
L 583.8625 413.262187 
" style="fill: none; stroke: #2ca02c; stroke-width: 1.5; stroke-linecap: square"/>
    </g>
    <g id="text_18">
     <!-- Mean predictions, NTK -->
     <g transform="translate(591.8625 416.762187)scale(0.1 -0.1)">
      <use xlink:href="#DejaVuSans-4d"/>
      <use xlink:href="#DejaVuSans-65" x="86.279297"/>
      <use xlink:href="#DejaVuSans-61" x="147.802734"/>
      <use xlink:href="#DejaVuSans-6e" x="209.082031"/>
      <use xlink:href="#DejaVuSans-20" x="272.460938"/>
      <use xlink:href="#DejaVuSans-70" x="304.248047"/>
      <use xlink:href="#DejaVuSans-72" x="367.724609"/>
      <use xlink:href="#DejaVuSans-65" x="406.587891"/>
      <use xlink:href="#DejaVuSans-64" x="468.111328"/>
      <use xlink:href="#DejaVuSans-69" x="531.587891"/>
      <use xlink:href="#DejaVuSans-63" x="559.371094"/>
      <use xlink:href="#DejaVuSans-74" x="614.351562"/>
      <use xlink:href="#DejaVuSans-69" x="653.560547"/>
      <use xlink:href="#DejaVuSans-6f" x="681.34375"/>
      <use xlink:href="#DejaVuSans-6e" x="742.525391"/>
      <use xlink:href="#DejaVuSans-73" x="805.904297"/>
      <use xlink:href="#DejaVuSans-2c" x="858.003906"/>
      <use xlink:href="#DejaVuSans-20" x="889.791016"/>
      <use xlink:href="#DejaVuSans-4e" x="921.578125"/>
      <use xlink:href="#DejaVuSans-54" x="996.382812"/>
      <use xlink:href="#DejaVuSans-4b" x="1057.466797"/>
     </g>
    </g>
    <g id="PathCollection_3">
     <g>
      <use xlink:href="#m117399c492" x="573.8625" y="428.815312" style="stroke: #000000"/>
     </g>
    </g>
    <g id="text_19">
     <!-- Train points -->
     <g transform="translate(591.8625 431.440312)scale(0.1 -0.1)">
      <use xlink:href="#DejaVuSans-54"/>
      <use xlink:href="#DejaVuSans-72" x="46.333984"/>
      <use xlink:href="#DejaVuSans-61" x="87.447266"/>
      <use xlink:href="#DejaVuSans-69" x="148.726562"/>
      <use xlink:href="#DejaVuSans-6e" x="176.509766"/>
      <use xlink:href="#DejaVuSans-20" x="239.888672"/>
      <use xlink:href="#DejaVuSans-70" x="271.675781"/>
      <use xlink:href="#DejaVuSans-6f" x="335.152344"/>
      <use xlink:href="#DejaVuSans-69" x="396.333984"/>
      <use xlink:href="#DejaVuSans-6e" x="424.117188"/>
      <use xlink:href="#DejaVuSans-74" x="487.496094"/>
      <use xlink:href="#DejaVuSans-73" x="526.705078"/>
     </g>
    </g>
    <g id="PathCollection_4">
     <g>
      <use xlink:href="#m7a726870b4" x="573.8625" y="443.493437" style="fill: #ff7f0e; stroke: #000000"/>
     </g>
    </g>
    <g id="text_20">
     <!-- Test points -->
     <g transform="translate(591.8625 446.118437)scale(0.1 -0.1)">
      <use xlink:href="#DejaVuSans-54"/>
      <use xlink:href="#DejaVuSans-65" x="44.083984"/>
      <use xlink:href="#DejaVuSans-73" x="105.607422"/>
      <use xlink:href="#DejaVuSans-74" x="157.707031"/>
      <use xlink:href="#DejaVuSans-20" x="196.916016"/>
      <use xlink:href="#DejaVuSans-70" x="228.703125"/>
      <use xlink:href="#DejaVuSans-6f" x="292.179688"/>
      <use xlink:href="#DejaVuSans-69" x="353.361328"/>
      <use xlink:href="#DejaVuSans-6e" x="381.144531"/>
      <use xlink:href="#DejaVuSans-74" x="444.523438"/>
      <use xlink:href="#DejaVuSans-73" x="483.732422"/>
     </g>
    </g>
   </g>
  </g>
 </g>
 <defs>
  <clipPath id="p3931c95a90">
   <rect x="52.160938" y="22.318125" width="669.6" height="434.88"/>
  </clipPath>
 </defs>
</svg>
