<?xml version="1.0" encoding="utf-8" standalone="no"?>
<!DOCTYPE svg PUBLIC "-//W3C//DTD SVG 1.1//EN"
  "http://www.w3.org/Graphics/SVG/1.1/DTD/svg11.dtd">
<svg height="929.634375pt" version="1.1" viewBox="0 0 728.960938 929.634375" width="728.960938pt" xmlns="http://www.w3.org/2000/svg" xmlns:xlink="http://www.w3.org/1999/xlink">
 <metadata>
  <rdf:RDF xmlns:cc="http://creativecommons.org/ns#" xmlns:dc="http://purl.org/dc/elements/1.1/" xmlns:rdf="http://www.w3.org/1999/02/22-rdf-syntax-ns#">
   <cc:Work>
    <dc:type rdf:resource="http://purl.org/dc/dcmitype/StillImage"/>
    <dc:date>2022-05-21T18:54:18.758831</dc:date>
    <dc:format>image/svg+xml</dc:format>
    <dc:creator>
     <cc:Agent>
      <dc:title>Matplotlib v3.4.3, https://matplotlib.org/</dc:title>
     </cc:Agent>
    </dc:creator>
   </cc:Work>
  </rdf:RDF>
 </metadata>
 <defs>
  <style type="text/css">*{stroke-linecap:butt;stroke-linejoin:round;}</style>
 </defs>
 <g id="figure_1">
  <g id="patch_1">
   <path d="M 0 929.634375 
L 728.960938 929.634375 
L 728.960938 0 
L 0 0 
z
" style="fill:#ffffff;"/>
  </g>
  <g id="axes_1">
   <g id="patch_2">
    <path d="M 52.160938 417.66358 
L 721.760938 417.66358 
L 721.760938 22.318125 
L 52.160938 22.318125 
z
" style="fill:#ffffff;"/>
   </g>
   <g id="PolyCollection_1">
    <defs>
     <path d="M 82.597301 -766.170265 
L 82.597301 -603.453444 
L 103.587897 -628.914796 
L 124.578492 -611.275092 
L 145.569088 -529.941043 
L 166.559684 -601.633573 
L 187.550279 -680.667227 
L 208.540875 -631.512847 
L 229.53147 -643.690735 
L 250.522066 -590.619925 
L 271.512662 -630.970319 
L 292.503257 -630.181928 
L 313.493853 -646.440937 
L 334.484448 -634.193642 
L 355.475044 -578.60083 
L 376.46564 -676.162773 
L 397.456235 -572.846612 
L 418.446831 -609.165789 
L 439.437427 -621.08664 
L 460.428022 -596.99516 
L 481.418618 -662.240643 
L 502.409213 -641.576077 
L 523.399809 -663.896913 
L 544.390405 -606.290813 
L 565.381 -666.541191 
L 586.371596 -600.322192 
L 607.362191 -608.605152 
L 628.352787 -606.30824 
L 649.343383 -667.65306 
L 670.333978 -627.562191 
L 691.324574 -586.884854 
L 691.324574 -781.014865 
L 691.324574 -781.014865 
L 670.333978 -820.775481 
L 649.343383 -822.35466 
L 628.352787 -781.611846 
L 607.362191 -790.303377 
L 586.371596 -799.632078 
L 565.381 -839.104366 
L 544.390405 -783.024186 
L 523.399809 -860.149325 
L 502.409213 -798.392956 
L 481.418618 -865.870921 
L 460.428022 -764.449876 
L 439.437427 -772.762126 
L 418.446831 -793.928514 
L 397.456235 -753.695016 
L 376.46564 -845.784423 
L 355.475044 -761.325478 
L 334.484448 -782.092001 
L 313.493853 -829.890674 
L 292.503257 -805.188432 
L 271.512662 -792.955231 
L 250.522066 -782.625256 
L 229.53147 -813.382201 
L 208.540875 -821.326454 
L 187.550279 -889.346002 
L 166.559684 -799.066181 
L 145.569088 -766.99247 
L 124.578492 -773.737492 
L 103.587897 -805.008054 
L 82.597301 -766.170265 
z
" id="m1fa43e3215" style="stroke:#1f77b4;stroke-opacity:0.3;"/>
    </defs>
    <g clip-path="url(#p7cbd835752)">
     <use style="fill:#1f77b4;fill-opacity:0.3;stroke:#1f77b4;stroke-opacity:0.3;" x="0" xlink:href="#m1fa43e3215" y="929.634375"/>
    </g>
   </g>
   <g id="matplotlib.axis_1">
    <g id="xtick_1">
     <g id="line2d_1">
      <path clip-path="url(#p7cbd835752)" d="M 82.597301 417.66358 
L 82.597301 22.318125 
" style="fill:none;stroke:#b0b0b0;stroke-linecap:square;stroke-width:0.8;"/>
     </g>
     <g id="line2d_2">
      <defs>
       <path d="M 0 0 
L 0 3.5 
" id="m5872471305" style="stroke:#000000;stroke-width:0.8;"/>
      </defs>
      <g>
       <use style="stroke:#000000;stroke-width:0.8;" x="82.597301" xlink:href="#m5872471305" y="417.66358"/>
      </g>
     </g>
     <g id="text_1">
      <!-- 0 -->
      <g transform="translate(79.416051 432.262017)scale(0.1 -0.1)">
       <defs>
        <path d="M 2034 4250 
Q 1547 4250 1301 3770 
Q 1056 3291 1056 2328 
Q 1056 1369 1301 889 
Q 1547 409 2034 409 
Q 2525 409 2770 889 
Q 3016 1369 3016 2328 
Q 3016 3291 2770 3770 
Q 2525 4250 2034 4250 
z
M 2034 4750 
Q 2819 4750 3233 4129 
Q 3647 3509 3647 2328 
Q 3647 1150 3233 529 
Q 2819 -91 2034 -91 
Q 1250 -91 836 529 
Q 422 1150 422 2328 
Q 422 3509 836 4129 
Q 1250 4750 2034 4750 
z
" id="DejaVuSans-30" transform="scale(0.015625)"/>
       </defs>
       <use xlink:href="#DejaVuSans-30"/>
      </g>
     </g>
    </g>
    <g id="xtick_2">
     <g id="line2d_3">
      <path clip-path="url(#p7cbd835752)" d="M 187.550279 417.66358 
L 187.550279 22.318125 
" style="fill:none;stroke:#b0b0b0;stroke-linecap:square;stroke-width:0.8;"/>
     </g>
     <g id="line2d_4">
      <g>
       <use style="stroke:#000000;stroke-width:0.8;" x="187.550279" xlink:href="#m5872471305" y="417.66358"/>
      </g>
     </g>
     <g id="text_2">
      <!-- 5 -->
      <g transform="translate(184.369029 432.262017)scale(0.1 -0.1)">
       <defs>
        <path d="M 691 4666 
L 3169 4666 
L 3169 4134 
L 1269 4134 
L 1269 2991 
Q 1406 3038 1543 3061 
Q 1681 3084 1819 3084 
Q 2600 3084 3056 2656 
Q 3513 2228 3513 1497 
Q 3513 744 3044 326 
Q 2575 -91 1722 -91 
Q 1428 -91 1123 -41 
Q 819 9 494 109 
L 494 744 
Q 775 591 1075 516 
Q 1375 441 1709 441 
Q 2250 441 2565 725 
Q 2881 1009 2881 1497 
Q 2881 1984 2565 2268 
Q 2250 2553 1709 2553 
Q 1456 2553 1204 2497 
Q 953 2441 691 2322 
L 691 4666 
z
" id="DejaVuSans-35" transform="scale(0.015625)"/>
       </defs>
       <use xlink:href="#DejaVuSans-35"/>
      </g>
     </g>
    </g>
    <g id="xtick_3">
     <g id="line2d_5">
      <path clip-path="url(#p7cbd835752)" d="M 292.503257 417.66358 
L 292.503257 22.318125 
" style="fill:none;stroke:#b0b0b0;stroke-linecap:square;stroke-width:0.8;"/>
     </g>
     <g id="line2d_6">
      <g>
       <use style="stroke:#000000;stroke-width:0.8;" x="292.503257" xlink:href="#m5872471305" y="417.66358"/>
      </g>
     </g>
     <g id="text_3">
      <!-- 10 -->
      <g transform="translate(286.140757 432.262017)scale(0.1 -0.1)">
       <defs>
        <path d="M 794 531 
L 1825 531 
L 1825 4091 
L 703 3866 
L 703 4441 
L 1819 4666 
L 2450 4666 
L 2450 531 
L 3481 531 
L 3481 0 
L 794 0 
L 794 531 
z
" id="DejaVuSans-31" transform="scale(0.015625)"/>
       </defs>
       <use xlink:href="#DejaVuSans-31"/>
       <use x="63.623047" xlink:href="#DejaVuSans-30"/>
      </g>
     </g>
    </g>
    <g id="xtick_4">
     <g id="line2d_7">
      <path clip-path="url(#p7cbd835752)" d="M 397.456235 417.66358 
L 397.456235 22.318125 
" style="fill:none;stroke:#b0b0b0;stroke-linecap:square;stroke-width:0.8;"/>
     </g>
     <g id="line2d_8">
      <g>
       <use style="stroke:#000000;stroke-width:0.8;" x="397.456235" xlink:href="#m5872471305" y="417.66358"/>
      </g>
     </g>
     <g id="text_4">
      <!-- 15 -->
      <g transform="translate(391.093735 432.262017)scale(0.1 -0.1)">
       <use xlink:href="#DejaVuSans-31"/>
       <use x="63.623047" xlink:href="#DejaVuSans-35"/>
      </g>
     </g>
    </g>
    <g id="xtick_5">
     <g id="line2d_9">
      <path clip-path="url(#p7cbd835752)" d="M 502.409213 417.66358 
L 502.409213 22.318125 
" style="fill:none;stroke:#b0b0b0;stroke-linecap:square;stroke-width:0.8;"/>
     </g>
     <g id="line2d_10">
      <g>
       <use style="stroke:#000000;stroke-width:0.8;" x="502.409213" xlink:href="#m5872471305" y="417.66358"/>
      </g>
     </g>
     <g id="text_5">
      <!-- 20 -->
      <g transform="translate(496.046713 432.262017)scale(0.1 -0.1)">
       <defs>
        <path d="M 1228 531 
L 3431 531 
L 3431 0 
L 469 0 
L 469 531 
Q 828 903 1448 1529 
Q 2069 2156 2228 2338 
Q 2531 2678 2651 2914 
Q 2772 3150 2772 3378 
Q 2772 3750 2511 3984 
Q 2250 4219 1831 4219 
Q 1534 4219 1204 4116 
Q 875 4013 500 3803 
L 500 4441 
Q 881 4594 1212 4672 
Q 1544 4750 1819 4750 
Q 2544 4750 2975 4387 
Q 3406 4025 3406 3419 
Q 3406 3131 3298 2873 
Q 3191 2616 2906 2266 
Q 2828 2175 2409 1742 
Q 1991 1309 1228 531 
z
" id="DejaVuSans-32" transform="scale(0.015625)"/>
       </defs>
       <use xlink:href="#DejaVuSans-32"/>
       <use x="63.623047" xlink:href="#DejaVuSans-30"/>
      </g>
     </g>
    </g>
    <g id="xtick_6">
     <g id="line2d_11">
      <path clip-path="url(#p7cbd835752)" d="M 607.362191 417.66358 
L 607.362191 22.318125 
" style="fill:none;stroke:#b0b0b0;stroke-linecap:square;stroke-width:0.8;"/>
     </g>
     <g id="line2d_12">
      <g>
       <use style="stroke:#000000;stroke-width:0.8;" x="607.362191" xlink:href="#m5872471305" y="417.66358"/>
      </g>
     </g>
     <g id="text_6">
      <!-- 25 -->
      <g transform="translate(600.999691 432.262017)scale(0.1 -0.1)">
       <use xlink:href="#DejaVuSans-32"/>
       <use x="63.623047" xlink:href="#DejaVuSans-35"/>
      </g>
     </g>
    </g>
    <g id="xtick_7">
     <g id="line2d_13">
      <path clip-path="url(#p7cbd835752)" d="M 712.315169 417.66358 
L 712.315169 22.318125 
" style="fill:none;stroke:#b0b0b0;stroke-linecap:square;stroke-width:0.8;"/>
     </g>
     <g id="line2d_14">
      <g>
       <use style="stroke:#000000;stroke-width:0.8;" x="712.315169" xlink:href="#m5872471305" y="417.66358"/>
      </g>
     </g>
     <g id="text_7">
      <!-- 30 -->
      <g transform="translate(705.952669 432.262017)scale(0.1 -0.1)">
       <defs>
        <path d="M 2597 2516 
Q 3050 2419 3304 2112 
Q 3559 1806 3559 1356 
Q 3559 666 3084 287 
Q 2609 -91 1734 -91 
Q 1441 -91 1130 -33 
Q 819 25 488 141 
L 488 750 
Q 750 597 1062 519 
Q 1375 441 1716 441 
Q 2309 441 2620 675 
Q 2931 909 2931 1356 
Q 2931 1769 2642 2001 
Q 2353 2234 1838 2234 
L 1294 2234 
L 1294 2753 
L 1863 2753 
Q 2328 2753 2575 2939 
Q 2822 3125 2822 3475 
Q 2822 3834 2567 4026 
Q 2313 4219 1838 4219 
Q 1578 4219 1281 4162 
Q 984 4106 628 3988 
L 628 4550 
Q 988 4650 1302 4700 
Q 1616 4750 1894 4750 
Q 2613 4750 3031 4423 
Q 3450 4097 3450 3541 
Q 3450 3153 3228 2886 
Q 3006 2619 2597 2516 
z
" id="DejaVuSans-33" transform="scale(0.015625)"/>
       </defs>
       <use xlink:href="#DejaVuSans-33"/>
       <use x="63.623047" xlink:href="#DejaVuSans-30"/>
      </g>
     </g>
    </g>
    <g id="text_8">
     <!-- Feature -->
     <g transform="translate(368.071094 445.940142)scale(0.1 -0.1)">
      <defs>
       <path d="M 628 4666 
L 3309 4666 
L 3309 4134 
L 1259 4134 
L 1259 2759 
L 3109 2759 
L 3109 2228 
L 1259 2228 
L 1259 0 
L 628 0 
L 628 4666 
z
" id="DejaVuSans-46" transform="scale(0.015625)"/>
       <path d="M 3597 1894 
L 3597 1613 
L 953 1613 
Q 991 1019 1311 708 
Q 1631 397 2203 397 
Q 2534 397 2845 478 
Q 3156 559 3463 722 
L 3463 178 
Q 3153 47 2828 -22 
Q 2503 -91 2169 -91 
Q 1331 -91 842 396 
Q 353 884 353 1716 
Q 353 2575 817 3079 
Q 1281 3584 2069 3584 
Q 2775 3584 3186 3129 
Q 3597 2675 3597 1894 
z
M 3022 2063 
Q 3016 2534 2758 2815 
Q 2500 3097 2075 3097 
Q 1594 3097 1305 2825 
Q 1016 2553 972 2059 
L 3022 2063 
z
" id="DejaVuSans-65" transform="scale(0.015625)"/>
       <path d="M 2194 1759 
Q 1497 1759 1228 1600 
Q 959 1441 959 1056 
Q 959 750 1161 570 
Q 1363 391 1709 391 
Q 2188 391 2477 730 
Q 2766 1069 2766 1631 
L 2766 1759 
L 2194 1759 
z
M 3341 1997 
L 3341 0 
L 2766 0 
L 2766 531 
Q 2569 213 2275 61 
Q 1981 -91 1556 -91 
Q 1019 -91 701 211 
Q 384 513 384 1019 
Q 384 1609 779 1909 
Q 1175 2209 1959 2209 
L 2766 2209 
L 2766 2266 
Q 2766 2663 2505 2880 
Q 2244 3097 1772 3097 
Q 1472 3097 1187 3025 
Q 903 2953 641 2809 
L 641 3341 
Q 956 3463 1253 3523 
Q 1550 3584 1831 3584 
Q 2591 3584 2966 3190 
Q 3341 2797 3341 1997 
z
" id="DejaVuSans-61" transform="scale(0.015625)"/>
       <path d="M 1172 4494 
L 1172 3500 
L 2356 3500 
L 2356 3053 
L 1172 3053 
L 1172 1153 
Q 1172 725 1289 603 
Q 1406 481 1766 481 
L 2356 481 
L 2356 0 
L 1766 0 
Q 1100 0 847 248 
Q 594 497 594 1153 
L 594 3053 
L 172 3053 
L 172 3500 
L 594 3500 
L 594 4494 
L 1172 4494 
z
" id="DejaVuSans-74" transform="scale(0.015625)"/>
       <path d="M 544 1381 
L 544 3500 
L 1119 3500 
L 1119 1403 
Q 1119 906 1312 657 
Q 1506 409 1894 409 
Q 2359 409 2629 706 
Q 2900 1003 2900 1516 
L 2900 3500 
L 3475 3500 
L 3475 0 
L 2900 0 
L 2900 538 
Q 2691 219 2414 64 
Q 2138 -91 1772 -91 
Q 1169 -91 856 284 
Q 544 659 544 1381 
z
M 1991 3584 
L 1991 3584 
z
" id="DejaVuSans-75" transform="scale(0.015625)"/>
       <path d="M 2631 2963 
Q 2534 3019 2420 3045 
Q 2306 3072 2169 3072 
Q 1681 3072 1420 2755 
Q 1159 2438 1159 1844 
L 1159 0 
L 581 0 
L 581 3500 
L 1159 3500 
L 1159 2956 
Q 1341 3275 1631 3429 
Q 1922 3584 2338 3584 
Q 2397 3584 2469 3576 
Q 2541 3569 2628 3553 
L 2631 2963 
z
" id="DejaVuSans-72" transform="scale(0.015625)"/>
      </defs>
      <use xlink:href="#DejaVuSans-46"/>
      <use x="52.019531" xlink:href="#DejaVuSans-65"/>
      <use x="113.542969" xlink:href="#DejaVuSans-61"/>
      <use x="174.822266" xlink:href="#DejaVuSans-74"/>
      <use x="214.03125" xlink:href="#DejaVuSans-75"/>
      <use x="277.410156" xlink:href="#DejaVuSans-72"/>
      <use x="316.273438" xlink:href="#DejaVuSans-65"/>
     </g>
    </g>
   </g>
   <g id="matplotlib.axis_2">
    <g id="ytick_1">
     <g id="line2d_15">
      <path clip-path="url(#p7cbd835752)" d="M 52.160938 404.106281 
L 721.760938 404.106281 
" style="fill:none;stroke:#b0b0b0;stroke-linecap:square;stroke-width:0.8;"/>
     </g>
     <g id="line2d_16">
      <defs>
       <path d="M 0 0 
L -3.5 0 
" id="mf4705c735e" style="stroke:#000000;stroke-width:0.8;"/>
      </defs>
      <g>
       <use style="stroke:#000000;stroke-width:0.8;" x="52.160938" xlink:href="#mf4705c735e" y="404.106281"/>
      </g>
     </g>
     <g id="text_9">
      <!-- −2.0 -->
      <g transform="translate(20.878125 407.9055)scale(0.1 -0.1)">
       <defs>
        <path d="M 678 2272 
L 4684 2272 
L 4684 1741 
L 678 1741 
L 678 2272 
z
" id="DejaVuSans-2212" transform="scale(0.015625)"/>
        <path d="M 684 794 
L 1344 794 
L 1344 0 
L 684 0 
L 684 794 
z
" id="DejaVuSans-2e" transform="scale(0.015625)"/>
       </defs>
       <use xlink:href="#DejaVuSans-2212"/>
       <use x="83.789062" xlink:href="#DejaVuSans-32"/>
       <use x="147.412109" xlink:href="#DejaVuSans-2e"/>
       <use x="179.199219" xlink:href="#DejaVuSans-30"/>
      </g>
     </g>
    </g>
    <g id="ytick_2">
     <g id="line2d_17">
      <path clip-path="url(#p7cbd835752)" d="M 52.160938 357.510344 
L 721.760938 357.510344 
" style="fill:none;stroke:#b0b0b0;stroke-linecap:square;stroke-width:0.8;"/>
     </g>
     <g id="line2d_18">
      <g>
       <use style="stroke:#000000;stroke-width:0.8;" x="52.160938" xlink:href="#mf4705c735e" y="357.510344"/>
      </g>
     </g>
     <g id="text_10">
      <!-- −1.5 -->
      <g transform="translate(20.878125 361.309563)scale(0.1 -0.1)">
       <use xlink:href="#DejaVuSans-2212"/>
       <use x="83.789062" xlink:href="#DejaVuSans-31"/>
       <use x="147.412109" xlink:href="#DejaVuSans-2e"/>
       <use x="179.199219" xlink:href="#DejaVuSans-35"/>
      </g>
     </g>
    </g>
    <g id="ytick_3">
     <g id="line2d_19">
      <path clip-path="url(#p7cbd835752)" d="M 52.160938 310.914406 
L 721.760938 310.914406 
" style="fill:none;stroke:#b0b0b0;stroke-linecap:square;stroke-width:0.8;"/>
     </g>
     <g id="line2d_20">
      <g>
       <use style="stroke:#000000;stroke-width:0.8;" x="52.160938" xlink:href="#mf4705c735e" y="310.914406"/>
      </g>
     </g>
     <g id="text_11">
      <!-- −1.0 -->
      <g transform="translate(20.878125 314.713625)scale(0.1 -0.1)">
       <use xlink:href="#DejaVuSans-2212"/>
       <use x="83.789062" xlink:href="#DejaVuSans-31"/>
       <use x="147.412109" xlink:href="#DejaVuSans-2e"/>
       <use x="179.199219" xlink:href="#DejaVuSans-30"/>
      </g>
     </g>
    </g>
    <g id="ytick_4">
     <g id="line2d_21">
      <path clip-path="url(#p7cbd835752)" d="M 52.160938 264.318469 
L 721.760938 264.318469 
" style="fill:none;stroke:#b0b0b0;stroke-linecap:square;stroke-width:0.8;"/>
     </g>
     <g id="line2d_22">
      <g>
       <use style="stroke:#000000;stroke-width:0.8;" x="52.160938" xlink:href="#mf4705c735e" y="264.318469"/>
      </g>
     </g>
     <g id="text_12">
      <!-- −0.5 -->
      <g transform="translate(20.878125 268.117687)scale(0.1 -0.1)">
       <use xlink:href="#DejaVuSans-2212"/>
       <use x="83.789062" xlink:href="#DejaVuSans-30"/>
       <use x="147.412109" xlink:href="#DejaVuSans-2e"/>
       <use x="179.199219" xlink:href="#DejaVuSans-35"/>
      </g>
     </g>
    </g>
    <g id="ytick_5">
     <g id="line2d_23">
      <path clip-path="url(#p7cbd835752)" d="M 52.160938 217.722531 
L 721.760938 217.722531 
" style="fill:none;stroke:#b0b0b0;stroke-linecap:square;stroke-width:0.8;"/>
     </g>
     <g id="line2d_24">
      <g>
       <use style="stroke:#000000;stroke-width:0.8;" x="52.160938" xlink:href="#mf4705c735e" y="217.722531"/>
      </g>
     </g>
     <g id="text_13">
      <!-- 0.0 -->
      <g transform="translate(29.257813 221.52175)scale(0.1 -0.1)">
       <use xlink:href="#DejaVuSans-30"/>
       <use x="63.623047" xlink:href="#DejaVuSans-2e"/>
       <use x="95.410156" xlink:href="#DejaVuSans-30"/>
      </g>
     </g>
    </g>
    <g id="ytick_6">
     <g id="line2d_25">
      <path clip-path="url(#p7cbd835752)" d="M 52.160938 171.126594 
L 721.760938 171.126594 
" style="fill:none;stroke:#b0b0b0;stroke-linecap:square;stroke-width:0.8;"/>
     </g>
     <g id="line2d_26">
      <g>
       <use style="stroke:#000000;stroke-width:0.8;" x="52.160938" xlink:href="#mf4705c735e" y="171.126594"/>
      </g>
     </g>
     <g id="text_14">
      <!-- 0.5 -->
      <g transform="translate(29.257813 174.925812)scale(0.1 -0.1)">
       <use xlink:href="#DejaVuSans-30"/>
       <use x="63.623047" xlink:href="#DejaVuSans-2e"/>
       <use x="95.410156" xlink:href="#DejaVuSans-35"/>
      </g>
     </g>
    </g>
    <g id="ytick_7">
     <g id="line2d_27">
      <path clip-path="url(#p7cbd835752)" d="M 52.160938 124.530656 
L 721.760938 124.530656 
" style="fill:none;stroke:#b0b0b0;stroke-linecap:square;stroke-width:0.8;"/>
     </g>
     <g id="line2d_28">
      <g>
       <use style="stroke:#000000;stroke-width:0.8;" x="52.160938" xlink:href="#mf4705c735e" y="124.530656"/>
      </g>
     </g>
     <g id="text_15">
      <!-- 1.0 -->
      <g transform="translate(29.257813 128.329875)scale(0.1 -0.1)">
       <use xlink:href="#DejaVuSans-31"/>
       <use x="63.623047" xlink:href="#DejaVuSans-2e"/>
       <use x="95.410156" xlink:href="#DejaVuSans-30"/>
      </g>
     </g>
    </g>
    <g id="ytick_8">
     <g id="line2d_29">
      <path clip-path="url(#p7cbd835752)" d="M 52.160938 77.934718 
L 721.760938 77.934718 
" style="fill:none;stroke:#b0b0b0;stroke-linecap:square;stroke-width:0.8;"/>
     </g>
     <g id="line2d_30">
      <g>
       <use style="stroke:#000000;stroke-width:0.8;" x="52.160938" xlink:href="#mf4705c735e" y="77.934718"/>
      </g>
     </g>
     <g id="text_16">
      <!-- 1.5 -->
      <g transform="translate(29.257813 81.733937)scale(0.1 -0.1)">
       <use xlink:href="#DejaVuSans-31"/>
       <use x="63.623047" xlink:href="#DejaVuSans-2e"/>
       <use x="95.410156" xlink:href="#DejaVuSans-35"/>
      </g>
     </g>
    </g>
    <g id="ytick_9">
     <g id="line2d_31">
      <path clip-path="url(#p7cbd835752)" d="M 52.160938 31.338781 
L 721.760938 31.338781 
" style="fill:none;stroke:#b0b0b0;stroke-linecap:square;stroke-width:0.8;"/>
     </g>
     <g id="line2d_32">
      <g>
       <use style="stroke:#000000;stroke-width:0.8;" x="52.160938" xlink:href="#mf4705c735e" y="31.338781"/>
      </g>
     </g>
     <g id="text_17">
      <!-- 2.0 -->
      <g transform="translate(29.257813 35.138)scale(0.1 -0.1)">
       <use xlink:href="#DejaVuSans-32"/>
       <use x="63.623047" xlink:href="#DejaVuSans-2e"/>
       <use x="95.410156" xlink:href="#DejaVuSans-30"/>
      </g>
     </g>
    </g>
    <g id="text_18">
     <!-- Value -->
     <g transform="translate(14.798438 233.722102)rotate(-90)scale(0.1 -0.1)">
      <defs>
       <path d="M 1831 0 
L 50 4666 
L 709 4666 
L 2188 738 
L 3669 4666 
L 4325 4666 
L 2547 0 
L 1831 0 
z
" id="DejaVuSans-56" transform="scale(0.015625)"/>
       <path d="M 603 4863 
L 1178 4863 
L 1178 0 
L 603 0 
L 603 4863 
z
" id="DejaVuSans-6c" transform="scale(0.015625)"/>
      </defs>
      <use xlink:href="#DejaVuSans-56"/>
      <use x="60.658203" xlink:href="#DejaVuSans-61"/>
      <use x="121.9375" xlink:href="#DejaVuSans-6c"/>
      <use x="149.720703" xlink:href="#DejaVuSans-75"/>
      <use x="213.099609" xlink:href="#DejaVuSans-65"/>
     </g>
    </g>
   </g>
   <g id="line2d_33">
    <path clip-path="url(#p7cbd835752)" d="M 82.597301 244.822521 
L 103.587897 212.67295 
L 124.578492 237.128083 
L 145.569088 281.167618 
L 166.559684 229.284498 
L 187.550279 144.627761 
L 208.540875 203.214725 
L 229.53147 201.097907 
L 250.522066 243.011785 
L 271.512662 217.6716 
L 292.503257 211.949195 
L 313.493853 191.46857 
L 334.484448 221.491553 
L 355.475044 259.671221 
L 376.46564 168.660777 
L 397.456235 266.363561 
L 418.446831 228.087223 
L 439.437427 232.709992 
L 460.428022 248.911857 
L 481.418618 165.578593 
L 502.409213 209.649859 
L 523.399809 167.611256 
L 544.390405 234.976876 
L 565.381 176.811596 
L 586.371596 229.65724 
L 607.362191 230.18011 
L 628.352787 235.674332 
L 649.343383 184.630515 
L 670.333978 205.465539 
L 691.324574 245.684516 
" style="fill:none;stroke:#1f77b4;stroke-linecap:square;stroke-width:2.5;"/>
   </g>
   <g id="line2d_34">
    <path clip-path="url(#p7cbd835752)" d="M 82.597301 289.470105 
L 103.587897 197.394301 
L 124.578492 286.052498 
L 145.569088 266.072411 
L 166.559684 249.941002 
L 187.550279 150.785139 
L 208.540875 186.766014 
L 229.53147 210.050564 
L 250.522066 305.506701 
L 271.512662 174.155647 
L 292.503257 237.302141 
L 313.493853 161.425856 
L 334.484448 263.494443 
L 355.475044 300.311978 
L 376.46564 149.385182 
L 397.456235 269.718193 
L 418.446831 235.430954 
L 439.437427 251.999161 
L 460.428022 296.625725 
L 481.418618 153.751025 
L 502.409213 152.685944 
L 523.399809 129.849099 
L 544.390405 239.086412 
L 565.381 133.01333 
L 586.371596 227.832291 
L 607.362191 186.088614 
L 628.352787 295.537738 
L 649.343383 143.709809 
L 670.333978 255.371396 
L 691.324574 262.02505 
" style="fill:none;stroke:#ff7f0e;stroke-linecap:square;stroke-width:2.5;"/>
   </g>
   <g id="patch_3">
    <path d="M 52.160938 417.66358 
L 52.160938 22.318125 
" style="fill:none;stroke:#000000;stroke-linecap:square;stroke-linejoin:miter;stroke-width:0.8;"/>
   </g>
   <g id="patch_4">
    <path d="M 721.760938 417.66358 
L 721.760938 22.318125 
" style="fill:none;stroke:#000000;stroke-linecap:square;stroke-linejoin:miter;stroke-width:0.8;"/>
   </g>
   <g id="patch_5">
    <path d="M 52.160938 417.66358 
L 721.760938 417.66358 
" style="fill:none;stroke:#000000;stroke-linecap:square;stroke-linejoin:miter;stroke-width:0.8;"/>
   </g>
   <g id="patch_6">
    <path d="M 52.160938 22.318125 
L 721.760938 22.318125 
" style="fill:none;stroke:#000000;stroke-linecap:square;stroke-linejoin:miter;stroke-width:0.8;"/>
   </g>
   <g id="text_19">
    <!-- Feature statistics after 300 iterations -->
    <g transform="translate(275.8025 16.318125)scale(0.12 -0.12)">
     <defs>
      <path id="DejaVuSans-20" transform="scale(0.015625)"/>
      <path d="M 2834 3397 
L 2834 2853 
Q 2591 2978 2328 3040 
Q 2066 3103 1784 3103 
Q 1356 3103 1142 2972 
Q 928 2841 928 2578 
Q 928 2378 1081 2264 
Q 1234 2150 1697 2047 
L 1894 2003 
Q 2506 1872 2764 1633 
Q 3022 1394 3022 966 
Q 3022 478 2636 193 
Q 2250 -91 1575 -91 
Q 1294 -91 989 -36 
Q 684 19 347 128 
L 347 722 
Q 666 556 975 473 
Q 1284 391 1588 391 
Q 1994 391 2212 530 
Q 2431 669 2431 922 
Q 2431 1156 2273 1281 
Q 2116 1406 1581 1522 
L 1381 1569 
Q 847 1681 609 1914 
Q 372 2147 372 2553 
Q 372 3047 722 3315 
Q 1072 3584 1716 3584 
Q 2034 3584 2315 3537 
Q 2597 3491 2834 3397 
z
" id="DejaVuSans-73" transform="scale(0.015625)"/>
      <path d="M 603 3500 
L 1178 3500 
L 1178 0 
L 603 0 
L 603 3500 
z
M 603 4863 
L 1178 4863 
L 1178 4134 
L 603 4134 
L 603 4863 
z
" id="DejaVuSans-69" transform="scale(0.015625)"/>
      <path d="M 3122 3366 
L 3122 2828 
Q 2878 2963 2633 3030 
Q 2388 3097 2138 3097 
Q 1578 3097 1268 2742 
Q 959 2388 959 1747 
Q 959 1106 1268 751 
Q 1578 397 2138 397 
Q 2388 397 2633 464 
Q 2878 531 3122 666 
L 3122 134 
Q 2881 22 2623 -34 
Q 2366 -91 2075 -91 
Q 1284 -91 818 406 
Q 353 903 353 1747 
Q 353 2603 823 3093 
Q 1294 3584 2113 3584 
Q 2378 3584 2631 3529 
Q 2884 3475 3122 3366 
z
" id="DejaVuSans-63" transform="scale(0.015625)"/>
      <path d="M 2375 4863 
L 2375 4384 
L 1825 4384 
Q 1516 4384 1395 4259 
Q 1275 4134 1275 3809 
L 1275 3500 
L 2222 3500 
L 2222 3053 
L 1275 3053 
L 1275 0 
L 697 0 
L 697 3053 
L 147 3053 
L 147 3500 
L 697 3500 
L 697 3744 
Q 697 4328 969 4595 
Q 1241 4863 1831 4863 
L 2375 4863 
z
" id="DejaVuSans-66" transform="scale(0.015625)"/>
      <path d="M 1959 3097 
Q 1497 3097 1228 2736 
Q 959 2375 959 1747 
Q 959 1119 1226 758 
Q 1494 397 1959 397 
Q 2419 397 2687 759 
Q 2956 1122 2956 1747 
Q 2956 2369 2687 2733 
Q 2419 3097 1959 3097 
z
M 1959 3584 
Q 2709 3584 3137 3096 
Q 3566 2609 3566 1747 
Q 3566 888 3137 398 
Q 2709 -91 1959 -91 
Q 1206 -91 779 398 
Q 353 888 353 1747 
Q 353 2609 779 3096 
Q 1206 3584 1959 3584 
z
" id="DejaVuSans-6f" transform="scale(0.015625)"/>
      <path d="M 3513 2113 
L 3513 0 
L 2938 0 
L 2938 2094 
Q 2938 2591 2744 2837 
Q 2550 3084 2163 3084 
Q 1697 3084 1428 2787 
Q 1159 2491 1159 1978 
L 1159 0 
L 581 0 
L 581 3500 
L 1159 3500 
L 1159 2956 
Q 1366 3272 1645 3428 
Q 1925 3584 2291 3584 
Q 2894 3584 3203 3211 
Q 3513 2838 3513 2113 
z
" id="DejaVuSans-6e" transform="scale(0.015625)"/>
     </defs>
     <use xlink:href="#DejaVuSans-46"/>
     <use x="52.019531" xlink:href="#DejaVuSans-65"/>
     <use x="113.542969" xlink:href="#DejaVuSans-61"/>
     <use x="174.822266" xlink:href="#DejaVuSans-74"/>
     <use x="214.03125" xlink:href="#DejaVuSans-75"/>
     <use x="277.410156" xlink:href="#DejaVuSans-72"/>
     <use x="316.273438" xlink:href="#DejaVuSans-65"/>
     <use x="377.796875" xlink:href="#DejaVuSans-20"/>
     <use x="409.583984" xlink:href="#DejaVuSans-73"/>
     <use x="461.683594" xlink:href="#DejaVuSans-74"/>
     <use x="500.892578" xlink:href="#DejaVuSans-61"/>
     <use x="562.171875" xlink:href="#DejaVuSans-74"/>
     <use x="601.380859" xlink:href="#DejaVuSans-69"/>
     <use x="629.164062" xlink:href="#DejaVuSans-73"/>
     <use x="681.263672" xlink:href="#DejaVuSans-74"/>
     <use x="720.472656" xlink:href="#DejaVuSans-69"/>
     <use x="748.255859" xlink:href="#DejaVuSans-63"/>
     <use x="803.236328" xlink:href="#DejaVuSans-73"/>
     <use x="855.335938" xlink:href="#DejaVuSans-20"/>
     <use x="887.123047" xlink:href="#DejaVuSans-61"/>
     <use x="948.402344" xlink:href="#DejaVuSans-66"/>
     <use x="981.857422" xlink:href="#DejaVuSans-74"/>
     <use x="1021.066406" xlink:href="#DejaVuSans-65"/>
     <use x="1082.589844" xlink:href="#DejaVuSans-72"/>
     <use x="1123.703125" xlink:href="#DejaVuSans-20"/>
     <use x="1155.490234" xlink:href="#DejaVuSans-33"/>
     <use x="1219.113281" xlink:href="#DejaVuSans-30"/>
     <use x="1282.736328" xlink:href="#DejaVuSans-30"/>
     <use x="1346.359375" xlink:href="#DejaVuSans-20"/>
     <use x="1378.146484" xlink:href="#DejaVuSans-69"/>
     <use x="1405.929688" xlink:href="#DejaVuSans-74"/>
     <use x="1445.138672" xlink:href="#DejaVuSans-65"/>
     <use x="1506.662109" xlink:href="#DejaVuSans-72"/>
     <use x="1547.775391" xlink:href="#DejaVuSans-61"/>
     <use x="1609.054688" xlink:href="#DejaVuSans-74"/>
     <use x="1648.263672" xlink:href="#DejaVuSans-69"/>
     <use x="1676.046875" xlink:href="#DejaVuSans-6f"/>
     <use x="1737.228516" xlink:href="#DejaVuSans-6e"/>
     <use x="1800.607422" xlink:href="#DejaVuSans-73"/>
    </g>
   </g>
   <g id="legend_1">
    <g id="patch_7">
     <path d="M 542.834375 74.3525 
L 714.760938 74.3525 
Q 716.760938 74.3525 716.760938 72.3525 
L 716.760938 29.318125 
Q 716.760938 27.318125 714.760938 27.318125 
L 542.834375 27.318125 
Q 540.834375 27.318125 540.834375 29.318125 
L 540.834375 72.3525 
Q 540.834375 74.3525 542.834375 74.3525 
z
" style="fill:#ffffff;opacity:0.8;stroke:#cccccc;stroke-linejoin:miter;"/>
    </g>
    <g id="line2d_35">
     <path d="M 544.834375 35.416562 
L 564.834375 35.416562 
" style="fill:none;stroke:#1f77b4;stroke-linecap:square;stroke-width:2.5;"/>
    </g>
    <g id="line2d_36"/>
    <g id="text_20">
     <!-- Evolved, mean -->
     <g transform="translate(572.834375 38.916562)scale(0.1 -0.1)">
      <defs>
       <path d="M 628 4666 
L 3578 4666 
L 3578 4134 
L 1259 4134 
L 1259 2753 
L 3481 2753 
L 3481 2222 
L 1259 2222 
L 1259 531 
L 3634 531 
L 3634 0 
L 628 0 
L 628 4666 
z
" id="DejaVuSans-45" transform="scale(0.015625)"/>
       <path d="M 191 3500 
L 800 3500 
L 1894 563 
L 2988 3500 
L 3597 3500 
L 2284 0 
L 1503 0 
L 191 3500 
z
" id="DejaVuSans-76" transform="scale(0.015625)"/>
       <path d="M 2906 2969 
L 2906 4863 
L 3481 4863 
L 3481 0 
L 2906 0 
L 2906 525 
Q 2725 213 2448 61 
Q 2172 -91 1784 -91 
Q 1150 -91 751 415 
Q 353 922 353 1747 
Q 353 2572 751 3078 
Q 1150 3584 1784 3584 
Q 2172 3584 2448 3432 
Q 2725 3281 2906 2969 
z
M 947 1747 
Q 947 1113 1208 752 
Q 1469 391 1925 391 
Q 2381 391 2643 752 
Q 2906 1113 2906 1747 
Q 2906 2381 2643 2742 
Q 2381 3103 1925 3103 
Q 1469 3103 1208 2742 
Q 947 2381 947 1747 
z
" id="DejaVuSans-64" transform="scale(0.015625)"/>
       <path d="M 750 794 
L 1409 794 
L 1409 256 
L 897 -744 
L 494 -744 
L 750 256 
L 750 794 
z
" id="DejaVuSans-2c" transform="scale(0.015625)"/>
       <path d="M 3328 2828 
Q 3544 3216 3844 3400 
Q 4144 3584 4550 3584 
Q 5097 3584 5394 3201 
Q 5691 2819 5691 2113 
L 5691 0 
L 5113 0 
L 5113 2094 
Q 5113 2597 4934 2840 
Q 4756 3084 4391 3084 
Q 3944 3084 3684 2787 
Q 3425 2491 3425 1978 
L 3425 0 
L 2847 0 
L 2847 2094 
Q 2847 2600 2669 2842 
Q 2491 3084 2119 3084 
Q 1678 3084 1418 2786 
Q 1159 2488 1159 1978 
L 1159 0 
L 581 0 
L 581 3500 
L 1159 3500 
L 1159 2956 
Q 1356 3278 1631 3431 
Q 1906 3584 2284 3584 
Q 2666 3584 2933 3390 
Q 3200 3197 3328 2828 
z
" id="DejaVuSans-6d" transform="scale(0.015625)"/>
      </defs>
      <use xlink:href="#DejaVuSans-45"/>
      <use x="63.183594" xlink:href="#DejaVuSans-76"/>
      <use x="122.363281" xlink:href="#DejaVuSans-6f"/>
      <use x="183.544922" xlink:href="#DejaVuSans-6c"/>
      <use x="211.328125" xlink:href="#DejaVuSans-76"/>
      <use x="270.507812" xlink:href="#DejaVuSans-65"/>
      <use x="332.03125" xlink:href="#DejaVuSans-64"/>
      <use x="395.507812" xlink:href="#DejaVuSans-2c"/>
      <use x="427.294922" xlink:href="#DejaVuSans-20"/>
      <use x="459.082031" xlink:href="#DejaVuSans-6d"/>
      <use x="556.494141" xlink:href="#DejaVuSans-65"/>
      <use x="618.017578" xlink:href="#DejaVuSans-61"/>
      <use x="679.296875" xlink:href="#DejaVuSans-6e"/>
     </g>
    </g>
    <g id="line2d_37">
     <path d="M 544.834375 50.094687 
L 564.834375 50.094687 
" style="fill:none;stroke:#ff7f0e;stroke-linecap:square;stroke-width:2.5;"/>
    </g>
    <g id="line2d_38"/>
    <g id="text_21">
     <!-- Replication weights -->
     <g transform="translate(572.834375 53.594687)scale(0.1 -0.1)">
      <defs>
       <path d="M 2841 2188 
Q 3044 2119 3236 1894 
Q 3428 1669 3622 1275 
L 4263 0 
L 3584 0 
L 2988 1197 
Q 2756 1666 2539 1819 
Q 2322 1972 1947 1972 
L 1259 1972 
L 1259 0 
L 628 0 
L 628 4666 
L 2053 4666 
Q 2853 4666 3247 4331 
Q 3641 3997 3641 3322 
Q 3641 2881 3436 2590 
Q 3231 2300 2841 2188 
z
M 1259 4147 
L 1259 2491 
L 2053 2491 
Q 2509 2491 2742 2702 
Q 2975 2913 2975 3322 
Q 2975 3731 2742 3939 
Q 2509 4147 2053 4147 
L 1259 4147 
z
" id="DejaVuSans-52" transform="scale(0.015625)"/>
       <path d="M 1159 525 
L 1159 -1331 
L 581 -1331 
L 581 3500 
L 1159 3500 
L 1159 2969 
Q 1341 3281 1617 3432 
Q 1894 3584 2278 3584 
Q 2916 3584 3314 3078 
Q 3713 2572 3713 1747 
Q 3713 922 3314 415 
Q 2916 -91 2278 -91 
Q 1894 -91 1617 61 
Q 1341 213 1159 525 
z
M 3116 1747 
Q 3116 2381 2855 2742 
Q 2594 3103 2138 3103 
Q 1681 3103 1420 2742 
Q 1159 2381 1159 1747 
Q 1159 1113 1420 752 
Q 1681 391 2138 391 
Q 2594 391 2855 752 
Q 3116 1113 3116 1747 
z
" id="DejaVuSans-70" transform="scale(0.015625)"/>
       <path d="M 269 3500 
L 844 3500 
L 1563 769 
L 2278 3500 
L 2956 3500 
L 3675 769 
L 4391 3500 
L 4966 3500 
L 4050 0 
L 3372 0 
L 2619 2869 
L 1863 0 
L 1184 0 
L 269 3500 
z
" id="DejaVuSans-77" transform="scale(0.015625)"/>
       <path d="M 2906 1791 
Q 2906 2416 2648 2759 
Q 2391 3103 1925 3103 
Q 1463 3103 1205 2759 
Q 947 2416 947 1791 
Q 947 1169 1205 825 
Q 1463 481 1925 481 
Q 2391 481 2648 825 
Q 2906 1169 2906 1791 
z
M 3481 434 
Q 3481 -459 3084 -895 
Q 2688 -1331 1869 -1331 
Q 1566 -1331 1297 -1286 
Q 1028 -1241 775 -1147 
L 775 -588 
Q 1028 -725 1275 -790 
Q 1522 -856 1778 -856 
Q 2344 -856 2625 -561 
Q 2906 -266 2906 331 
L 2906 616 
Q 2728 306 2450 153 
Q 2172 0 1784 0 
Q 1141 0 747 490 
Q 353 981 353 1791 
Q 353 2603 747 3093 
Q 1141 3584 1784 3584 
Q 2172 3584 2450 3431 
Q 2728 3278 2906 2969 
L 2906 3500 
L 3481 3500 
L 3481 434 
z
" id="DejaVuSans-67" transform="scale(0.015625)"/>
       <path d="M 3513 2113 
L 3513 0 
L 2938 0 
L 2938 2094 
Q 2938 2591 2744 2837 
Q 2550 3084 2163 3084 
Q 1697 3084 1428 2787 
Q 1159 2491 1159 1978 
L 1159 0 
L 581 0 
L 581 4863 
L 1159 4863 
L 1159 2956 
Q 1366 3272 1645 3428 
Q 1925 3584 2291 3584 
Q 2894 3584 3203 3211 
Q 3513 2838 3513 2113 
z
" id="DejaVuSans-68" transform="scale(0.015625)"/>
      </defs>
      <use xlink:href="#DejaVuSans-52"/>
      <use x="64.982422" xlink:href="#DejaVuSans-65"/>
      <use x="126.505859" xlink:href="#DejaVuSans-70"/>
      <use x="189.982422" xlink:href="#DejaVuSans-6c"/>
      <use x="217.765625" xlink:href="#DejaVuSans-69"/>
      <use x="245.548828" xlink:href="#DejaVuSans-63"/>
      <use x="300.529297" xlink:href="#DejaVuSans-61"/>
      <use x="361.808594" xlink:href="#DejaVuSans-74"/>
      <use x="401.017578" xlink:href="#DejaVuSans-69"/>
      <use x="428.800781" xlink:href="#DejaVuSans-6f"/>
      <use x="489.982422" xlink:href="#DejaVuSans-6e"/>
      <use x="553.361328" xlink:href="#DejaVuSans-20"/>
      <use x="585.148438" xlink:href="#DejaVuSans-77"/>
      <use x="666.935547" xlink:href="#DejaVuSans-65"/>
      <use x="728.458984" xlink:href="#DejaVuSans-69"/>
      <use x="756.242188" xlink:href="#DejaVuSans-67"/>
      <use x="819.71875" xlink:href="#DejaVuSans-68"/>
      <use x="883.097656" xlink:href="#DejaVuSans-74"/>
      <use x="922.306641" xlink:href="#DejaVuSans-73"/>
     </g>
    </g>
    <g id="patch_8">
     <path d="M 544.834375 68.272812 
L 564.834375 68.272812 
L 564.834375 61.272812 
L 544.834375 61.272812 
z
" style="fill:#1f77b4;fill-opacity:0.3;stroke:#1f77b4;stroke-linejoin:miter;stroke-opacity:0.3;"/>
    </g>
    <g id="text_22">
     <!-- Evolved, standard deviation -->
     <g transform="translate(572.834375 68.272812)scale(0.1 -0.1)">
      <use xlink:href="#DejaVuSans-45"/>
      <use x="63.183594" xlink:href="#DejaVuSans-76"/>
      <use x="122.363281" xlink:href="#DejaVuSans-6f"/>
      <use x="183.544922" xlink:href="#DejaVuSans-6c"/>
      <use x="211.328125" xlink:href="#DejaVuSans-76"/>
      <use x="270.507812" xlink:href="#DejaVuSans-65"/>
      <use x="332.03125" xlink:href="#DejaVuSans-64"/>
      <use x="395.507812" xlink:href="#DejaVuSans-2c"/>
      <use x="427.294922" xlink:href="#DejaVuSans-20"/>
      <use x="459.082031" xlink:href="#DejaVuSans-73"/>
      <use x="511.181641" xlink:href="#DejaVuSans-74"/>
      <use x="550.390625" xlink:href="#DejaVuSans-61"/>
      <use x="611.669922" xlink:href="#DejaVuSans-6e"/>
      <use x="675.048828" xlink:href="#DejaVuSans-64"/>
      <use x="738.525391" xlink:href="#DejaVuSans-61"/>
      <use x="799.804688" xlink:href="#DejaVuSans-72"/>
      <use x="839.167969" xlink:href="#DejaVuSans-64"/>
      <use x="902.644531" xlink:href="#DejaVuSans-20"/>
      <use x="934.431641" xlink:href="#DejaVuSans-64"/>
      <use x="997.908203" xlink:href="#DejaVuSans-65"/>
      <use x="1059.431641" xlink:href="#DejaVuSans-76"/>
      <use x="1118.611328" xlink:href="#DejaVuSans-69"/>
      <use x="1146.394531" xlink:href="#DejaVuSans-61"/>
      <use x="1207.673828" xlink:href="#DejaVuSans-74"/>
      <use x="1246.882812" xlink:href="#DejaVuSans-69"/>
      <use x="1274.666016" xlink:href="#DejaVuSans-6f"/>
      <use x="1335.847656" xlink:href="#DejaVuSans-6e"/>
     </g>
    </g>
   </g>
  </g>
  <g id="axes_2">
   <g id="patch_9">
    <path d="M 52.160938 892.078125 
L 721.760938 892.078125 
L 721.760938 496.73267 
L 52.160938 496.73267 
z
" style="fill:#ffffff;"/>
   </g>
   <g id="matplotlib.axis_3">
    <g id="xtick_8">
     <g id="line2d_39">
      <path clip-path="url(#p288d88ee92)" d="M 82.597301 892.078125 
L 82.597301 496.73267 
" style="fill:none;stroke:#b0b0b0;stroke-linecap:square;stroke-width:0.8;"/>
     </g>
     <g id="line2d_40">
      <g>
       <use style="stroke:#000000;stroke-width:0.8;" x="82.597301" xlink:href="#m5872471305" y="892.078125"/>
      </g>
     </g>
     <g id="text_23">
      <!-- 0 -->
      <g transform="translate(79.416051 906.676562)scale(0.1 -0.1)">
       <use xlink:href="#DejaVuSans-30"/>
      </g>
     </g>
    </g>
    <g id="xtick_9">
     <g id="line2d_41">
      <path clip-path="url(#p288d88ee92)" d="M 184.391159 892.078125 
L 184.391159 496.73267 
" style="fill:none;stroke:#b0b0b0;stroke-linecap:square;stroke-width:0.8;"/>
     </g>
     <g id="line2d_42">
      <g>
       <use style="stroke:#000000;stroke-width:0.8;" x="184.391159" xlink:href="#m5872471305" y="892.078125"/>
      </g>
     </g>
     <g id="text_24">
      <!-- 50 -->
      <g transform="translate(178.028659 906.676562)scale(0.1 -0.1)">
       <use xlink:href="#DejaVuSans-35"/>
       <use x="63.623047" xlink:href="#DejaVuSans-30"/>
      </g>
     </g>
    </g>
    <g id="xtick_10">
     <g id="line2d_43">
      <path clip-path="url(#p288d88ee92)" d="M 286.185018 892.078125 
L 286.185018 496.73267 
" style="fill:none;stroke:#b0b0b0;stroke-linecap:square;stroke-width:0.8;"/>
     </g>
     <g id="line2d_44">
      <g>
       <use style="stroke:#000000;stroke-width:0.8;" x="286.185018" xlink:href="#m5872471305" y="892.078125"/>
      </g>
     </g>
     <g id="text_25">
      <!-- 100 -->
      <g transform="translate(276.641268 906.676562)scale(0.1 -0.1)">
       <use xlink:href="#DejaVuSans-31"/>
       <use x="63.623047" xlink:href="#DejaVuSans-30"/>
       <use x="127.246094" xlink:href="#DejaVuSans-30"/>
      </g>
     </g>
    </g>
    <g id="xtick_11">
     <g id="line2d_45">
      <path clip-path="url(#p288d88ee92)" d="M 387.978876 892.078125 
L 387.978876 496.73267 
" style="fill:none;stroke:#b0b0b0;stroke-linecap:square;stroke-width:0.8;"/>
     </g>
     <g id="line2d_46">
      <g>
       <use style="stroke:#000000;stroke-width:0.8;" x="387.978876" xlink:href="#m5872471305" y="892.078125"/>
      </g>
     </g>
     <g id="text_26">
      <!-- 150 -->
      <g transform="translate(378.435126 906.676562)scale(0.1 -0.1)">
       <use xlink:href="#DejaVuSans-31"/>
       <use x="63.623047" xlink:href="#DejaVuSans-35"/>
       <use x="127.246094" xlink:href="#DejaVuSans-30"/>
      </g>
     </g>
    </g>
    <g id="xtick_12">
     <g id="line2d_47">
      <path clip-path="url(#p288d88ee92)" d="M 489.772734 892.078125 
L 489.772734 496.73267 
" style="fill:none;stroke:#b0b0b0;stroke-linecap:square;stroke-width:0.8;"/>
     </g>
     <g id="line2d_48">
      <g>
       <use style="stroke:#000000;stroke-width:0.8;" x="489.772734" xlink:href="#m5872471305" y="892.078125"/>
      </g>
     </g>
     <g id="text_27">
      <!-- 200 -->
      <g transform="translate(480.228984 906.676562)scale(0.1 -0.1)">
       <use xlink:href="#DejaVuSans-32"/>
       <use x="63.623047" xlink:href="#DejaVuSans-30"/>
       <use x="127.246094" xlink:href="#DejaVuSans-30"/>
      </g>
     </g>
    </g>
    <g id="xtick_13">
     <g id="line2d_49">
      <path clip-path="url(#p288d88ee92)" d="M 591.566593 892.078125 
L 591.566593 496.73267 
" style="fill:none;stroke:#b0b0b0;stroke-linecap:square;stroke-width:0.8;"/>
     </g>
     <g id="line2d_50">
      <g>
       <use style="stroke:#000000;stroke-width:0.8;" x="591.566593" xlink:href="#m5872471305" y="892.078125"/>
      </g>
     </g>
     <g id="text_28">
      <!-- 250 -->
      <g transform="translate(582.022843 906.676562)scale(0.1 -0.1)">
       <use xlink:href="#DejaVuSans-32"/>
       <use x="63.623047" xlink:href="#DejaVuSans-35"/>
       <use x="127.246094" xlink:href="#DejaVuSans-30"/>
      </g>
     </g>
    </g>
    <g id="xtick_14">
     <g id="line2d_51">
      <path clip-path="url(#p288d88ee92)" d="M 693.360451 892.078125 
L 693.360451 496.73267 
" style="fill:none;stroke:#b0b0b0;stroke-linecap:square;stroke-width:0.8;"/>
     </g>
     <g id="line2d_52">
      <g>
       <use style="stroke:#000000;stroke-width:0.8;" x="693.360451" xlink:href="#m5872471305" y="892.078125"/>
      </g>
     </g>
     <g id="text_29">
      <!-- 300 -->
      <g transform="translate(683.816701 906.676562)scale(0.1 -0.1)">
       <use xlink:href="#DejaVuSans-33"/>
       <use x="63.623047" xlink:href="#DejaVuSans-30"/>
       <use x="127.246094" xlink:href="#DejaVuSans-30"/>
      </g>
     </g>
    </g>
    <g id="text_30">
     <!-- Iteration -->
     <g transform="translate(365.752344 920.354687)scale(0.1 -0.1)">
      <defs>
       <path d="M 628 4666 
L 1259 4666 
L 1259 0 
L 628 0 
L 628 4666 
z
" id="DejaVuSans-49" transform="scale(0.015625)"/>
      </defs>
      <use xlink:href="#DejaVuSans-49"/>
      <use x="29.492188" xlink:href="#DejaVuSans-74"/>
      <use x="68.701172" xlink:href="#DejaVuSans-65"/>
      <use x="130.224609" xlink:href="#DejaVuSans-72"/>
      <use x="171.337891" xlink:href="#DejaVuSans-61"/>
      <use x="232.617188" xlink:href="#DejaVuSans-74"/>
      <use x="271.826172" xlink:href="#DejaVuSans-69"/>
      <use x="299.609375" xlink:href="#DejaVuSans-6f"/>
      <use x="360.791016" xlink:href="#DejaVuSans-6e"/>
     </g>
    </g>
   </g>
   <g id="matplotlib.axis_4">
    <g id="ytick_10">
     <g id="line2d_53">
      <path clip-path="url(#p288d88ee92)" d="M 52.160938 887.956031 
L 721.760938 887.956031 
" style="fill:none;stroke:#b0b0b0;stroke-linecap:square;stroke-width:0.8;"/>
     </g>
     <g id="line2d_54">
      <g>
       <use style="stroke:#000000;stroke-width:0.8;" x="52.160938" xlink:href="#mf4705c735e" y="887.956031"/>
      </g>
     </g>
     <g id="text_31">
      <!-- 0.3 -->
      <g transform="translate(29.257813 891.755249)scale(0.1 -0.1)">
       <use xlink:href="#DejaVuSans-30"/>
       <use x="63.623047" xlink:href="#DejaVuSans-2e"/>
       <use x="95.410156" xlink:href="#DejaVuSans-33"/>
      </g>
     </g>
    </g>
    <g id="ytick_11">
     <g id="line2d_55">
      <path clip-path="url(#p288d88ee92)" d="M 52.160938 829.203449 
L 721.760938 829.203449 
" style="fill:none;stroke:#b0b0b0;stroke-linecap:square;stroke-width:0.8;"/>
     </g>
     <g id="line2d_56">
      <g>
       <use style="stroke:#000000;stroke-width:0.8;" x="52.160938" xlink:href="#mf4705c735e" y="829.203449"/>
      </g>
     </g>
     <g id="text_32">
      <!-- 0.4 -->
      <g transform="translate(29.257813 833.002668)scale(0.1 -0.1)">
       <defs>
        <path d="M 2419 4116 
L 825 1625 
L 2419 1625 
L 2419 4116 
z
M 2253 4666 
L 3047 4666 
L 3047 1625 
L 3713 1625 
L 3713 1100 
L 3047 1100 
L 3047 0 
L 2419 0 
L 2419 1100 
L 313 1100 
L 313 1709 
L 2253 4666 
z
" id="DejaVuSans-34" transform="scale(0.015625)"/>
       </defs>
       <use xlink:href="#DejaVuSans-30"/>
       <use x="63.623047" xlink:href="#DejaVuSans-2e"/>
       <use x="95.410156" xlink:href="#DejaVuSans-34"/>
      </g>
     </g>
    </g>
    <g id="ytick_12">
     <g id="line2d_57">
      <path clip-path="url(#p288d88ee92)" d="M 52.160938 770.450867 
L 721.760938 770.450867 
" style="fill:none;stroke:#b0b0b0;stroke-linecap:square;stroke-width:0.8;"/>
     </g>
     <g id="line2d_58">
      <g>
       <use style="stroke:#000000;stroke-width:0.8;" x="52.160938" xlink:href="#mf4705c735e" y="770.450867"/>
      </g>
     </g>
     <g id="text_33">
      <!-- 0.5 -->
      <g transform="translate(29.257813 774.250086)scale(0.1 -0.1)">
       <use xlink:href="#DejaVuSans-30"/>
       <use x="63.623047" xlink:href="#DejaVuSans-2e"/>
       <use x="95.410156" xlink:href="#DejaVuSans-35"/>
      </g>
     </g>
    </g>
    <g id="ytick_13">
     <g id="line2d_59">
      <path clip-path="url(#p288d88ee92)" d="M 52.160938 711.698286 
L 721.760938 711.698286 
" style="fill:none;stroke:#b0b0b0;stroke-linecap:square;stroke-width:0.8;"/>
     </g>
     <g id="line2d_60">
      <g>
       <use style="stroke:#000000;stroke-width:0.8;" x="52.160938" xlink:href="#mf4705c735e" y="711.698286"/>
      </g>
     </g>
     <g id="text_34">
      <!-- 0.6 -->
      <g transform="translate(29.257813 715.497505)scale(0.1 -0.1)">
       <defs>
        <path d="M 2113 2584 
Q 1688 2584 1439 2293 
Q 1191 2003 1191 1497 
Q 1191 994 1439 701 
Q 1688 409 2113 409 
Q 2538 409 2786 701 
Q 3034 994 3034 1497 
Q 3034 2003 2786 2293 
Q 2538 2584 2113 2584 
z
M 3366 4563 
L 3366 3988 
Q 3128 4100 2886 4159 
Q 2644 4219 2406 4219 
Q 1781 4219 1451 3797 
Q 1122 3375 1075 2522 
Q 1259 2794 1537 2939 
Q 1816 3084 2150 3084 
Q 2853 3084 3261 2657 
Q 3669 2231 3669 1497 
Q 3669 778 3244 343 
Q 2819 -91 2113 -91 
Q 1303 -91 875 529 
Q 447 1150 447 2328 
Q 447 3434 972 4092 
Q 1497 4750 2381 4750 
Q 2619 4750 2861 4703 
Q 3103 4656 3366 4563 
z
" id="DejaVuSans-36" transform="scale(0.015625)"/>
       </defs>
       <use xlink:href="#DejaVuSans-30"/>
       <use x="63.623047" xlink:href="#DejaVuSans-2e"/>
       <use x="95.410156" xlink:href="#DejaVuSans-36"/>
      </g>
     </g>
    </g>
    <g id="ytick_14">
     <g id="line2d_61">
      <path clip-path="url(#p288d88ee92)" d="M 52.160938 652.945704 
L 721.760938 652.945704 
" style="fill:none;stroke:#b0b0b0;stroke-linecap:square;stroke-width:0.8;"/>
     </g>
     <g id="line2d_62">
      <g>
       <use style="stroke:#000000;stroke-width:0.8;" x="52.160938" xlink:href="#mf4705c735e" y="652.945704"/>
      </g>
     </g>
     <g id="text_35">
      <!-- 0.7 -->
      <g transform="translate(29.257813 656.744923)scale(0.1 -0.1)">
       <defs>
        <path d="M 525 4666 
L 3525 4666 
L 3525 4397 
L 1831 0 
L 1172 0 
L 2766 4134 
L 525 4134 
L 525 4666 
z
" id="DejaVuSans-37" transform="scale(0.015625)"/>
       </defs>
       <use xlink:href="#DejaVuSans-30"/>
       <use x="63.623047" xlink:href="#DejaVuSans-2e"/>
       <use x="95.410156" xlink:href="#DejaVuSans-37"/>
      </g>
     </g>
    </g>
    <g id="ytick_15">
     <g id="line2d_63">
      <path clip-path="url(#p288d88ee92)" d="M 52.160938 594.193123 
L 721.760938 594.193123 
" style="fill:none;stroke:#b0b0b0;stroke-linecap:square;stroke-width:0.8;"/>
     </g>
     <g id="line2d_64">
      <g>
       <use style="stroke:#000000;stroke-width:0.8;" x="52.160938" xlink:href="#mf4705c735e" y="594.193123"/>
      </g>
     </g>
     <g id="text_36">
      <!-- 0.8 -->
      <g transform="translate(29.257813 597.992342)scale(0.1 -0.1)">
       <defs>
        <path d="M 2034 2216 
Q 1584 2216 1326 1975 
Q 1069 1734 1069 1313 
Q 1069 891 1326 650 
Q 1584 409 2034 409 
Q 2484 409 2743 651 
Q 3003 894 3003 1313 
Q 3003 1734 2745 1975 
Q 2488 2216 2034 2216 
z
M 1403 2484 
Q 997 2584 770 2862 
Q 544 3141 544 3541 
Q 544 4100 942 4425 
Q 1341 4750 2034 4750 
Q 2731 4750 3128 4425 
Q 3525 4100 3525 3541 
Q 3525 3141 3298 2862 
Q 3072 2584 2669 2484 
Q 3125 2378 3379 2068 
Q 3634 1759 3634 1313 
Q 3634 634 3220 271 
Q 2806 -91 2034 -91 
Q 1263 -91 848 271 
Q 434 634 434 1313 
Q 434 1759 690 2068 
Q 947 2378 1403 2484 
z
M 1172 3481 
Q 1172 3119 1398 2916 
Q 1625 2713 2034 2713 
Q 2441 2713 2670 2916 
Q 2900 3119 2900 3481 
Q 2900 3844 2670 4047 
Q 2441 4250 2034 4250 
Q 1625 4250 1398 4047 
Q 1172 3844 1172 3481 
z
" id="DejaVuSans-38" transform="scale(0.015625)"/>
       </defs>
       <use xlink:href="#DejaVuSans-30"/>
       <use x="63.623047" xlink:href="#DejaVuSans-2e"/>
       <use x="95.410156" xlink:href="#DejaVuSans-38"/>
      </g>
     </g>
    </g>
    <g id="ytick_16">
     <g id="line2d_65">
      <path clip-path="url(#p288d88ee92)" d="M 52.160938 535.440541 
L 721.760938 535.440541 
" style="fill:none;stroke:#b0b0b0;stroke-linecap:square;stroke-width:0.8;"/>
     </g>
     <g id="line2d_66">
      <g>
       <use style="stroke:#000000;stroke-width:0.8;" x="52.160938" xlink:href="#mf4705c735e" y="535.440541"/>
      </g>
     </g>
     <g id="text_37">
      <!-- 0.9 -->
      <g transform="translate(29.257813 539.23976)scale(0.1 -0.1)">
       <defs>
        <path d="M 703 97 
L 703 672 
Q 941 559 1184 500 
Q 1428 441 1663 441 
Q 2288 441 2617 861 
Q 2947 1281 2994 2138 
Q 2813 1869 2534 1725 
Q 2256 1581 1919 1581 
Q 1219 1581 811 2004 
Q 403 2428 403 3163 
Q 403 3881 828 4315 
Q 1253 4750 1959 4750 
Q 2769 4750 3195 4129 
Q 3622 3509 3622 2328 
Q 3622 1225 3098 567 
Q 2575 -91 1691 -91 
Q 1453 -91 1209 -44 
Q 966 3 703 97 
z
M 1959 2075 
Q 2384 2075 2632 2365 
Q 2881 2656 2881 3163 
Q 2881 3666 2632 3958 
Q 2384 4250 1959 4250 
Q 1534 4250 1286 3958 
Q 1038 3666 1038 3163 
Q 1038 2656 1286 2365 
Q 1534 2075 1959 2075 
z
" id="DejaVuSans-39" transform="scale(0.015625)"/>
       </defs>
       <use xlink:href="#DejaVuSans-30"/>
       <use x="63.623047" xlink:href="#DejaVuSans-2e"/>
       <use x="95.410156" xlink:href="#DejaVuSans-39"/>
      </g>
     </g>
    </g>
    <g id="text_38">
     <!-- Value -->
     <g transform="translate(23.178125 708.136648)rotate(-90)scale(0.1 -0.1)">
      <use xlink:href="#DejaVuSans-56"/>
      <use x="60.658203" xlink:href="#DejaVuSans-61"/>
      <use x="121.9375" xlink:href="#DejaVuSans-6c"/>
      <use x="149.720703" xlink:href="#DejaVuSans-75"/>
      <use x="213.099609" xlink:href="#DejaVuSans-65"/>
     </g>
    </g>
   </g>
   <g id="line2d_67">
    <path clip-path="url(#p288d88ee92)" d="M 82.597301 874.107877 
L 84.633178 800.293937 
L 86.669055 772.548492 
L 88.704933 748.14675 
L 90.74081 741.459396 
L 92.776687 732.379133 
L 94.812564 724.812148 
L 96.848441 723.17187 
L 98.884318 717.877713 
L 100.920196 705.279108 
L 102.956073 699.30097 
L 104.99195 694.916788 
L 107.027827 670.425045 
L 109.063704 651.052958 
L 111.099581 653.924343 
L 113.135459 650.594997 
L 115.171336 648.1155 
L 117.207213 642.222659 
L 119.24309 626.014043 
L 121.278967 623.848498 
L 123.314844 622.587558 
L 125.350722 616.689657 
L 127.386599 613.85718 
L 129.422476 621.511663 
L 131.458353 604.494525 
L 133.49423 598.892159 
L 135.530107 585.878052 
L 137.565985 587.763504 
L 139.601862 577.744678 
L 141.637739 563.65244 
L 143.673616 563.927325 
L 145.709493 560.297462 
L 147.74537 557.115488 
L 149.781248 557.010811 
L 151.817125 557.674839 
L 153.853002 547.656065 
L 155.888879 543.938752 
L 157.924756 549.024851 
L 159.960633 545.358803 
L 161.996511 537.600759 
L 164.032388 527.802606 
L 166.068265 524.740124 
L 168.104142 528.012931 
L 172.175896 536.360294 
L 174.211774 533.037683 
L 176.247651 535.400342 
L 178.283528 529.587284 
L 180.319405 532.306389 
L 182.355282 533.854592 
L 184.391159 532.164623 
L 186.427037 535.788251 
L 188.462914 538.071477 
L 190.498791 538.218197 
L 192.534668 536.737643 
L 194.570545 538.839755 
L 196.606422 544.355547 
L 198.6423 547.842199 
L 200.678177 556.864235 
L 202.714054 575.411574 
L 204.749931 568.178772 
L 206.785808 575.473622 
L 210.857563 575.731147 
L 212.89344 572.863619 
L 214.929317 571.088753 
L 216.965194 572.165597 
L 219.001071 567.179834 
L 221.036948 570.513297 
L 223.072826 570.192182 
L 225.108703 570.305699 
L 227.14458 570.162129 
L 229.180457 567.183688 
L 231.216334 564.747969 
L 233.252211 557.829035 
L 235.288089 555.192529 
L 237.323966 551.353392 
L 239.359843 552.722601 
L 241.39572 546.415292 
L 243.431597 543.669006 
L 245.467474 538.710661 
L 247.503352 544.095985 
L 249.539229 548.770754 
L 251.575106 551.054077 
L 253.610983 560.379322 
L 255.64686 558.835133 
L 257.682737 561.929015 
L 259.718615 565.451326 
L 261.754492 553.859349 
L 263.790369 559.793001 
L 265.826246 549.458405 
L 267.862123 552.969183 
L 271.933878 559.415298 
L 273.969755 549.191286 
L 276.005632 549.845129 
L 278.041509 555.341592 
L 280.077386 553.03405 
L 282.113263 553.021579 
L 284.149141 548.900757 
L 286.185018 551.831904 
L 288.220895 543.110747 
L 290.256772 543.205735 
L 292.292649 542.460813 
L 294.328526 545.12423 
L 296.364404 536.207164 
L 298.400281 532.02943 
L 300.436158 529.527087 
L 302.472035 537.412222 
L 304.507912 534.351908 
L 306.543789 537.743965 
L 308.579667 540.902578 
L 310.615544 542.356524 
L 312.651421 545.93274 
L 314.687298 547.935483 
L 316.723175 542.970187 
L 318.759052 536.126282 
L 320.79493 533.946765 
L 322.830807 549.697708 
L 324.866684 548.973737 
L 326.902561 546.218834 
L 328.938438 547.754047 
L 330.974315 547.544482 
L 333.010193 550.94453 
L 335.04607 550.688442 
L 337.081947 546.551735 
L 339.117824 551.891027 
L 341.153701 565.333522 
L 343.189578 563.815902 
L 345.225456 566.24786 
L 347.261333 557.628569 
L 349.29721 563.461783 
L 351.333087 553.778165 
L 353.368964 564.220881 
L 355.404841 565.397654 
L 357.440719 565.754034 
L 359.476596 571.237158 
L 361.512473 571.64946 
L 363.54835 574.18093 
L 365.584227 573.483526 
L 367.620104 566.522822 
L 369.655982 570.015128 
L 371.691859 567.037969 
L 375.763613 559.836795 
L 377.79949 552.315279 
L 379.835367 547.091798 
L 381.871245 548.421772 
L 383.907122 543.419192 
L 385.942999 547.841835 
L 387.978876 547.64475 
L 390.014753 549.295497 
L 392.05063 548.542282 
L 394.086508 557.92906 
L 396.122385 550.015148 
L 398.158262 551.348304 
L 400.194139 545.122526 
L 402.230016 547.799976 
L 404.265893 555.067582 
L 406.301771 544.643749 
L 408.337648 546.187186 
L 410.373525 546.468362 
L 414.445279 546.594609 
L 416.481156 543.629576 
L 418.517034 542.83025 
L 420.552911 550.804023 
L 422.588788 555.426668 
L 424.624665 550.738277 
L 426.660542 548.817951 
L 428.696419 550.047781 
L 432.768174 535.176116 
L 434.804051 534.046528 
L 436.839928 531.897364 
L 438.875805 533.682115 
L 440.911682 541.681364 
L 442.94756 547.998913 
L 444.983437 546.338501 
L 447.019314 548.788776 
L 449.055191 553.643721 
L 451.091068 551.906657 
L 453.126945 551.54628 
L 455.162823 543.170829 
L 457.1987 545.354438 
L 459.234577 541.408825 
L 461.270454 537.053794 
L 463.306331 538.196046 
L 465.342208 531.32424 
L 467.378086 530.770744 
L 469.413963 530.043813 
L 471.44984 537.085062 
L 473.485717 532.466822 
L 475.521594 530.100853 
L 477.557471 534.268415 
L 479.593349 529.372436 
L 481.629226 525.731022 
L 483.665103 531.11952 
L 485.70098 530.987187 
L 487.736857 530.020286 
L 489.772734 532.245411 
L 491.808612 534.73372 
L 493.844489 535.062396 
L 495.880366 535.736759 
L 497.916243 536.271912 
L 499.95212 541.817178 
L 501.987997 549.717052 
L 504.023875 539.462724 
L 506.059752 543.224433 
L 508.095629 539.895088 
L 510.131506 541.409128 
L 512.167383 543.411211 
L 514.20326 547.995111 
L 516.239138 548.894755 
L 518.275015 548.4248 
L 520.310892 549.129173 
L 522.346769 556.199599 
L 524.382646 547.874227 
L 526.418523 550.658054 
L 528.454401 547.686765 
L 530.490278 549.405521 
L 532.526155 545.203675 
L 534.562032 542.121285 
L 536.597909 543.502551 
L 538.633786 545.452389 
L 540.669664 542.945591 
L 542.705541 545.586425 
L 544.741418 547.068284 
L 546.777295 542.718972 
L 548.813172 540.53975 
L 550.849049 527.083268 
L 552.884927 524.254059 
L 554.920804 525.070373 
L 556.956681 514.702918 
L 558.992558 515.961357 
L 561.028435 520.175937 
L 563.064312 522.068608 
L 565.10019 528.777885 
L 567.136067 533.45265 
L 569.171944 537.215882 
L 571.207821 542.678246 
L 573.243698 543.371823 
L 575.279575 550.253317 
L 577.315453 553.989596 
L 579.35133 546.964121 
L 581.387207 544.102697 
L 583.423084 548.603452 
L 585.458961 544.807037 
L 587.494838 552.998158 
L 589.530716 548.689286 
L 591.566593 541.149006 
L 593.60247 549.068653 
L 595.638347 549.796401 
L 597.674224 545.61554 
L 599.710101 543.664794 
L 601.745979 542.867108 
L 603.781856 542.345678 
L 605.817733 547.69592 
L 607.85361 543.612193 
L 609.889487 540.525689 
L 611.925364 528.786447 
L 613.961242 522.963436 
L 615.997119 532.596503 
L 618.032996 535.431383 
L 620.068873 524.820778 
L 622.10475 529.118037 
L 624.140627 529.352804 
L 626.176505 526.060562 
L 628.212382 524.113675 
L 630.248259 527.219881 
L 632.284136 531.242615 
L 634.320013 534.72652 
L 636.35589 524.709251 
L 638.391768 518.248241 
L 640.427645 519.585693 
L 642.463522 524.698981 
L 644.499399 526.511857 
L 646.535276 530.084848 
L 648.571153 523.426885 
L 650.607031 523.633944 
L 652.642908 528.007531 
L 654.678785 535.503248 
L 656.714662 530.706707 
L 658.750539 529.191096 
L 660.786416 532.86585 
L 662.822294 533.357444 
L 664.858171 528.130181 
L 666.894048 531.703524 
L 668.929925 534.649405 
L 670.965802 534.5911 
L 673.001679 533.452174 
L 677.073434 556.269572 
L 679.109311 561.787692 
L 681.145188 558.076807 
L 683.181065 562.887251 
L 685.216942 565.26927 
L 687.25282 562.792346 
L 689.288697 565.245535 
L 691.324574 572.050913 
L 691.324574 572.050913 
" style="fill:none;stroke:#1f77b4;stroke-linecap:square;stroke-width:2.5;"/>
   </g>
   <g id="patch_10">
    <path d="M 52.160938 892.078125 
L 52.160938 496.73267 
" style="fill:none;stroke:#000000;stroke-linecap:square;stroke-linejoin:miter;stroke-width:0.8;"/>
   </g>
   <g id="patch_11">
    <path d="M 721.760938 892.078125 
L 721.760938 496.73267 
" style="fill:none;stroke:#000000;stroke-linecap:square;stroke-linejoin:miter;stroke-width:0.8;"/>
   </g>
   <g id="patch_12">
    <path d="M 52.160938 892.078125 
L 721.760938 892.078125 
" style="fill:none;stroke:#000000;stroke-linecap:square;stroke-linejoin:miter;stroke-width:0.8;"/>
   </g>
   <g id="patch_13">
    <path d="M 52.160938 496.73267 
L 721.760938 496.73267 
" style="fill:none;stroke:#000000;stroke-linecap:square;stroke-linejoin:miter;stroke-width:0.8;"/>
   </g>
   <g id="text_39">
    <!-- Correlation of mean features with replication weights -->
    <g transform="translate(227.135 490.73267)scale(0.12 -0.12)">
     <defs>
      <path d="M 4122 4306 
L 4122 3641 
Q 3803 3938 3442 4084 
Q 3081 4231 2675 4231 
Q 1875 4231 1450 3742 
Q 1025 3253 1025 2328 
Q 1025 1406 1450 917 
Q 1875 428 2675 428 
Q 3081 428 3442 575 
Q 3803 722 4122 1019 
L 4122 359 
Q 3791 134 3420 21 
Q 3050 -91 2638 -91 
Q 1578 -91 968 557 
Q 359 1206 359 2328 
Q 359 3453 968 4101 
Q 1578 4750 2638 4750 
Q 3056 4750 3426 4639 
Q 3797 4528 4122 4306 
z
" id="DejaVuSans-43" transform="scale(0.015625)"/>
     </defs>
     <use xlink:href="#DejaVuSans-43"/>
     <use x="69.824219" xlink:href="#DejaVuSans-6f"/>
     <use x="131.005859" xlink:href="#DejaVuSans-72"/>
     <use x="170.369141" xlink:href="#DejaVuSans-72"/>
     <use x="209.232422" xlink:href="#DejaVuSans-65"/>
     <use x="270.755859" xlink:href="#DejaVuSans-6c"/>
     <use x="298.539062" xlink:href="#DejaVuSans-61"/>
     <use x="359.818359" xlink:href="#DejaVuSans-74"/>
     <use x="399.027344" xlink:href="#DejaVuSans-69"/>
     <use x="426.810547" xlink:href="#DejaVuSans-6f"/>
     <use x="487.992188" xlink:href="#DejaVuSans-6e"/>
     <use x="551.371094" xlink:href="#DejaVuSans-20"/>
     <use x="583.158203" xlink:href="#DejaVuSans-6f"/>
     <use x="644.339844" xlink:href="#DejaVuSans-66"/>
     <use x="679.544922" xlink:href="#DejaVuSans-20"/>
     <use x="711.332031" xlink:href="#DejaVuSans-6d"/>
     <use x="808.744141" xlink:href="#DejaVuSans-65"/>
     <use x="870.267578" xlink:href="#DejaVuSans-61"/>
     <use x="931.546875" xlink:href="#DejaVuSans-6e"/>
     <use x="994.925781" xlink:href="#DejaVuSans-20"/>
     <use x="1026.712891" xlink:href="#DejaVuSans-66"/>
     <use x="1061.917969" xlink:href="#DejaVuSans-65"/>
     <use x="1123.441406" xlink:href="#DejaVuSans-61"/>
     <use x="1184.720703" xlink:href="#DejaVuSans-74"/>
     <use x="1223.929688" xlink:href="#DejaVuSans-75"/>
     <use x="1287.308594" xlink:href="#DejaVuSans-72"/>
     <use x="1326.171875" xlink:href="#DejaVuSans-65"/>
     <use x="1387.695312" xlink:href="#DejaVuSans-73"/>
     <use x="1439.794922" xlink:href="#DejaVuSans-20"/>
     <use x="1471.582031" xlink:href="#DejaVuSans-77"/>
     <use x="1553.369141" xlink:href="#DejaVuSans-69"/>
     <use x="1581.152344" xlink:href="#DejaVuSans-74"/>
     <use x="1620.361328" xlink:href="#DejaVuSans-68"/>
     <use x="1683.740234" xlink:href="#DejaVuSans-20"/>
     <use x="1715.527344" xlink:href="#DejaVuSans-72"/>
     <use x="1754.390625" xlink:href="#DejaVuSans-65"/>
     <use x="1815.914062" xlink:href="#DejaVuSans-70"/>
     <use x="1879.390625" xlink:href="#DejaVuSans-6c"/>
     <use x="1907.173828" xlink:href="#DejaVuSans-69"/>
     <use x="1934.957031" xlink:href="#DejaVuSans-63"/>
     <use x="1989.9375" xlink:href="#DejaVuSans-61"/>
     <use x="2051.216797" xlink:href="#DejaVuSans-74"/>
     <use x="2090.425781" xlink:href="#DejaVuSans-69"/>
     <use x="2118.208984" xlink:href="#DejaVuSans-6f"/>
     <use x="2179.390625" xlink:href="#DejaVuSans-6e"/>
     <use x="2242.769531" xlink:href="#DejaVuSans-20"/>
     <use x="2274.556641" xlink:href="#DejaVuSans-77"/>
     <use x="2356.34375" xlink:href="#DejaVuSans-65"/>
     <use x="2417.867188" xlink:href="#DejaVuSans-69"/>
     <use x="2445.650391" xlink:href="#DejaVuSans-67"/>
     <use x="2509.126953" xlink:href="#DejaVuSans-68"/>
     <use x="2572.505859" xlink:href="#DejaVuSans-74"/>
     <use x="2611.714844" xlink:href="#DejaVuSans-73"/>
    </g>
   </g>
   <g id="legend_2">
    <g id="patch_14">
     <path d="M 59.160938 519.410795 
L 268.696875 519.410795 
Q 270.696875 519.410795 270.696875 517.410795 
L 270.696875 503.73267 
Q 270.696875 501.73267 268.696875 501.73267 
L 59.160938 501.73267 
Q 57.160938 501.73267 57.160938 503.73267 
L 57.160938 517.410795 
Q 57.160938 519.410795 59.160938 519.410795 
z
" style="fill:#ffffff;opacity:0.8;stroke:#cccccc;stroke-linejoin:miter;"/>
    </g>
    <g id="line2d_68">
     <path d="M 61.160938 509.831108 
L 81.160938 509.831108 
" style="fill:none;stroke:#1f77b4;stroke-linecap:square;stroke-width:2.5;"/>
    </g>
    <g id="line2d_69"/>
    <g id="text_40">
     <!-- Correlation with replication weights -->
     <g transform="translate(89.160938 513.331108)scale(0.1 -0.1)">
      <use xlink:href="#DejaVuSans-43"/>
      <use x="69.824219" xlink:href="#DejaVuSans-6f"/>
      <use x="131.005859" xlink:href="#DejaVuSans-72"/>
      <use x="170.369141" xlink:href="#DejaVuSans-72"/>
      <use x="209.232422" xlink:href="#DejaVuSans-65"/>
      <use x="270.755859" xlink:href="#DejaVuSans-6c"/>
      <use x="298.539062" xlink:href="#DejaVuSans-61"/>
      <use x="359.818359" xlink:href="#DejaVuSans-74"/>
      <use x="399.027344" xlink:href="#DejaVuSans-69"/>
      <use x="426.810547" xlink:href="#DejaVuSans-6f"/>
      <use x="487.992188" xlink:href="#DejaVuSans-6e"/>
      <use x="551.371094" xlink:href="#DejaVuSans-20"/>
      <use x="583.158203" xlink:href="#DejaVuSans-77"/>
      <use x="664.945312" xlink:href="#DejaVuSans-69"/>
      <use x="692.728516" xlink:href="#DejaVuSans-74"/>
      <use x="731.9375" xlink:href="#DejaVuSans-68"/>
      <use x="795.316406" xlink:href="#DejaVuSans-20"/>
      <use x="827.103516" xlink:href="#DejaVuSans-72"/>
      <use x="865.966797" xlink:href="#DejaVuSans-65"/>
      <use x="927.490234" xlink:href="#DejaVuSans-70"/>
      <use x="990.966797" xlink:href="#DejaVuSans-6c"/>
      <use x="1018.75" xlink:href="#DejaVuSans-69"/>
      <use x="1046.533203" xlink:href="#DejaVuSans-63"/>
      <use x="1101.513672" xlink:href="#DejaVuSans-61"/>
      <use x="1162.792969" xlink:href="#DejaVuSans-74"/>
      <use x="1202.001953" xlink:href="#DejaVuSans-69"/>
      <use x="1229.785156" xlink:href="#DejaVuSans-6f"/>
      <use x="1290.966797" xlink:href="#DejaVuSans-6e"/>
      <use x="1354.345703" xlink:href="#DejaVuSans-20"/>
      <use x="1386.132812" xlink:href="#DejaVuSans-77"/>
      <use x="1467.919922" xlink:href="#DejaVuSans-65"/>
      <use x="1529.443359" xlink:href="#DejaVuSans-69"/>
      <use x="1557.226562" xlink:href="#DejaVuSans-67"/>
      <use x="1620.703125" xlink:href="#DejaVuSans-68"/>
      <use x="1684.082031" xlink:href="#DejaVuSans-74"/>
      <use x="1723.291016" xlink:href="#DejaVuSans-73"/>
     </g>
    </g>
   </g>
  </g>
 </g>
 <defs>
  <clipPath id="p7cbd835752">
   <rect height="395.345455" width="669.6" x="52.160938" y="22.318125"/>
  </clipPath>
  <clipPath id="p288d88ee92">
   <rect height="395.345455" width="669.6" x="52.160938" y="496.73267"/>
  </clipPath>
 </defs>
</svg>
